<svg width="39" height="37" viewBox="0 0 39 37" fill="none" xmlns="http://www.w3.org/2000/svg">
<g clip-path="url(#clip0_101:201)">
<path d="M11.0274 5.921C11.0274 5.921 9.67981 3.45713 8.13151 3.97282C8.13151 3.97282 6.58321 5.2334 8.18885 7.81187C8.18885 7.81187 6.15312 9.55949 5.70393 13.2266C5.70393 13.2266 2.8367 15.8338 3.69687 18.4982C3.69687 18.4982 3.88801 20.8474 7.797 22.3945L7.13754 23.4259C7.13754 23.4259 2.54998 27.0071 4.87243 28.6115C4.87243 28.6115 5.90463 29.0985 6.33471 28.5542C6.31458 29.9147 6.46875 31.2723 6.79347 32.5938C6.79347 32.5938 6.30604 36.748 8.5138 36.6047C8.5138 36.6047 11.0943 37.4642 10.9509 33.969C10.9509 33.969 13.2161 34.8304 16.8001 34.2268C16.8001 34.2268 17.0008 37.0364 19.4093 36.8053C19.4093 36.8053 21.445 37.1204 21.9898 33.5392C21.9898 33.5392 27.9536 35.8312 31.853 35.0003C31.853 35.0003 38.763 34.3414 38.7917 32.3951C38.7917 32.3951 39.1931 31.9635 36.0105 31.4191C36.0105 31.4191 31.3943 31.0772 29.0145 29.471C27.5354 28.1784 26.3772 26.5601 25.6311 24.7438C25.6311 24.7438 24.2262 22.0813 23.9395 17.8679C23.9395 17.8679 23.5667 13.0261 22.5919 10.3617L22.7352 10.0752C22.7352 10.0752 25.029 8.54721 24.2262 6.40804C24.2262 6.40804 23.6814 5.09207 20.1261 6.86643C20.1165 6.87598 14.8771 4.60693 11.0274 5.921Z" fill="#66CE94"/>
<path d="M22.6397 10.566L23.4999 14.1759C23.4999 14.1759 25.0195 13.431 24.3314 11.798C23.6432 10.165 22.7831 10.5049 22.6397 10.566Z" fill="#00B7C6"/>
<path d="M23.5857 14.405C23.5857 14.405 24.0445 17.2699 24.0445 18.244C24.0445 18.244 25.7935 17.5278 25.3348 15.8374C24.876 14.1471 23.5857 14.405 23.5857 14.405Z" fill="#00B7C6"/>
<path d="M24.1593 18.5592C24.1413 19.5274 24.2669 20.4928 24.5321 21.4242L24.7901 22.255C24.7901 22.255 26.4818 21.3 25.6789 19.8771C25.6789 19.8771 25.4496 18.5039 24.1593 18.5592Z" fill="#00B7C6"/>
<path d="M24.8474 22.5987C24.8474 22.5987 25.7363 25.5802 26.3097 26.1226C26.3097 26.1226 27.6573 25.2631 26.7971 23.5155C25.937 21.7679 24.8474 22.5987 24.8474 22.5987Z" fill="#00B7C6"/>
<path d="M26.3097 26.266C26.3097 26.266 27.9153 25.5498 28.8041 26.839C28.8041 26.839 29.9224 28.1588 28.8615 29.3907C28.8615 29.3907 26.625 27.2974 26.3097 26.266Z" fill="#00B7C6"/>
<path d="M29.0049 29.4746C29.0049 29.4746 30.0084 28.2714 31.3273 28.7584C31.3273 28.7584 32.9043 29.6465 32.5029 30.8212C32.5029 30.8212 29.6644 30.0496 29.0049 29.4746Z" fill="#00B7C6"/>
<path d="M35.4847 31.4229C35.9148 30.6207 34.4812 29.9045 34.4812 29.9045C33.1336 29.6199 32.6461 30.6799 32.6461 30.6799L33.1622 30.9359L35.4847 31.4229Z" fill="#00B7C6"/>
<path d="M18.1382 6.26849C18.1745 6.35253 19.0557 4.54952 19.0557 4.54952C19.0557 4.54952 20.7187 5.52551 20.6327 3.66138L19.7725 3.03109L20.3173 1.48401L20.2312 1.10201L19.1704 0.786865L18.0808 2.248L16.6472 5.05566L16.3605 5.68595C16.3605 5.68595 18.0235 6.01065 18.1382 6.26849Z" fill="#FEF5AA"/>
<path d="M13.78 5.43771L14.9555 2.57276C14.9555 2.57276 15.9017 0.739182 15.0702 0.366738C15.0702 0.366738 14.3821 -0.0630051 13.9233 0.424038L13.0918 2.17166C13.0918 2.17166 12.4113 1.66743 11.9908 1.71518C11.9335 1.72018 11.8784 1.7392 11.8302 1.77057L11.3428 2.97385L12.461 3.66144L11.6276 5.58096L11.771 5.69556L13.78 5.43771Z" fill="#FEF5AA"/>
<path d="M13.6498 20.3948L14.8254 20.4521L14.338 21.1683L13.6498 20.3948Z" fill="white"/>
<path d="M9.73719 33.1286C9.73719 33.1286 7.19875 25.1774 11.3275 24.8336C15.4564 24.4898 17.2207 27.9717 16.7466 33.9881L16.565 34.2249L15.6093 34.3586L13.759 34.4312L12.2011 34.1886L11.1765 33.9671C11.1765 33.9671 10.1443 33.4877 10.1233 33.4877C10.1023 33.4877 9.73719 33.1286 9.73719 33.1286Z" fill="#FEF5AA"/>
<path d="M13.2658 28.5618C10.9357 28.5618 9.7429 27.5743 9.68364 27.5227C9.63143 27.4784 9.59898 27.4152 9.59342 27.3469C9.58786 27.2787 9.60966 27.2111 9.65402 27.1589C9.69838 27.1067 9.76166 27.0743 9.82995 27.0687C9.89824 27.0632 9.96594 27.085 10.0182 27.1293C10.0334 27.1426 11.6295 28.4472 14.7242 27.9181C14.791 27.9079 14.8591 27.9243 14.914 27.9637C14.9688 28.0032 15.006 28.0625 15.0175 28.129C15.029 28.1956 15.0139 28.2639 14.9756 28.3195C14.9372 28.375 14.8785 28.4133 14.8122 28.4261C14.3014 28.5148 13.7841 28.5601 13.2658 28.5618Z" fill="#66CE94"/>
<path d="M13.3574 30.8708C11.0904 30.8708 9.94352 29.9502 9.88809 29.9024C9.84094 29.8575 9.81255 29.7964 9.80862 29.7314C9.80468 29.6665 9.82549 29.6024 9.86686 29.5521C9.90824 29.5018 9.96711 29.469 10.0317 29.4603C10.0962 29.4516 10.1617 29.4676 10.215 29.5052C10.2341 29.5204 11.7613 30.7237 14.77 30.2386C14.8044 30.2308 14.84 30.2301 14.8747 30.2365C14.9094 30.243 14.9423 30.2565 14.9716 30.2762C15.0008 30.2959 15.0257 30.3214 15.0447 30.3511C15.0637 30.3808 15.0764 30.4141 15.0821 30.4489C15.0877 30.4837 15.0861 30.5192 15.0774 30.5534C15.0688 30.5876 15.0532 30.6196 15.0316 30.6475C15.0101 30.6754 14.9831 30.6986 14.9522 30.7156C14.9213 30.7327 14.8873 30.7433 14.8522 30.7467C14.3581 30.828 13.8582 30.8695 13.3574 30.8708Z" fill="#66CE94"/>
<path d="M13.6594 32.9871C11.1897 32.9871 10.0601 32.099 10.0046 32.0531C9.95574 32.009 9.92561 31.9479 9.9204 31.8822C9.91519 31.8166 9.93531 31.7515 9.97661 31.7002C10.0179 31.6489 10.0773 31.6154 10.1426 31.6064C10.2078 31.5974 10.2741 31.6138 10.3277 31.6521C10.3506 31.6692 11.832 32.798 15.1217 32.3721C15.1564 32.365 15.1922 32.365 15.227 32.3723C15.2617 32.3797 15.2945 32.394 15.3234 32.4146C15.3523 32.4351 15.3766 32.4614 15.3949 32.4918C15.4132 32.5222 15.425 32.556 15.4296 32.5911C15.4342 32.6263 15.4315 32.662 15.4217 32.696C15.4119 32.7301 15.3951 32.7618 15.3725 32.7891C15.3499 32.8164 15.3219 32.8387 15.2902 32.8547C15.2586 32.8707 15.224 32.88 15.1886 32.8821C14.6817 32.9509 14.1709 32.986 13.6594 32.9871Z" fill="#66CE94"/>
<path d="M12.5125 23.4029C10.106 23.4029 7.84088 22.8624 6.11863 21.8195C4.69075 20.9562 3.78853 19.8465 3.50563 18.607C2.78309 15.4383 5.00806 13.5398 5.45343 13.196C6.05173 9.79434 7.5121 7.46608 9.79441 6.25707C14.101 3.98611 19.7341 6.52255 19.9769 6.63906C20.0068 6.6475 20.0345 6.66234 20.0581 6.68256C20.0817 6.70277 20.1006 6.72787 20.1135 6.75612C20.1264 6.78437 20.133 6.81508 20.1328 6.84613C20.1326 6.87718 20.1257 6.90782 20.1125 6.93592C20.0992 6.96402 20.0801 6.98891 20.0562 7.00886C20.0324 7.02881 20.0046 7.04334 19.9746 7.05144C19.9446 7.05954 19.9132 7.06102 19.8825 7.05577C19.8519 7.05053 19.8228 7.03868 19.7972 7.02106C19.7399 6.99623 14.1125 4.46169 9.99321 6.63906C7.81794 7.78505 6.42829 10.0465 5.86249 13.3545C5.8578 13.3829 5.84742 13.4101 5.83199 13.4343C5.81655 13.4586 5.79637 13.4796 5.77265 13.4959C5.66752 13.5684 3.19406 15.3084 3.92425 18.5134C4.18039 19.6364 5.01571 20.6525 6.34228 21.4547C8.96674 23.0438 12.9159 23.4201 16.649 22.4364C16.7042 22.4219 16.763 22.4298 16.8125 22.4584C16.8619 22.487 16.898 22.5341 16.9128 22.5892C16.9268 22.6447 16.9184 22.7034 16.8894 22.7527C16.8605 22.8021 16.8132 22.838 16.7579 22.8528C15.3721 23.2166 13.9454 23.4015 12.5125 23.4029Z" fill="black"/>
<path d="M8.01684 7.97421C7.97712 7.97414 7.93821 7.96302 7.90445 7.94211C7.8707 7.92119 7.84342 7.89131 7.82569 7.8558C7.7607 7.72974 6.2621 4.73681 8.20799 3.67487C8.23322 3.66031 8.26122 3.6512 8.29019 3.64813C8.31121 3.64813 10.2992 3.4896 11.2071 5.90762C11.2197 5.9346 11.2266 5.96389 11.2273 5.99365C11.2281 6.02341 11.2226 6.05299 11.2113 6.08055C11.2001 6.10811 11.1832 6.13304 11.1618 6.15377C11.1405 6.17451 11.115 6.1906 11.0871 6.20104C11.0592 6.21148 11.0295 6.21604 10.9997 6.21443C10.97 6.21282 10.9409 6.20508 10.9143 6.19169C10.8877 6.1783 10.8641 6.15956 10.8451 6.13664C10.8261 6.11372 10.812 6.08712 10.8038 6.05851C10.0812 4.13135 8.63617 4.0645 8.37238 4.07596C6.84893 4.96601 8.18696 7.63997 8.20799 7.66098C8.23355 7.71198 8.23805 7.77097 8.22054 7.82526C8.20302 7.87955 8.16489 7.92481 8.11433 7.9513C8.08394 7.96608 8.05064 7.97391 8.01684 7.97421Z" fill="black"/>
<path d="M30.0619 35.3096C27.7891 35.3096 24.8225 34.9792 21.9209 33.6823C21.8689 33.659 21.8284 33.616 21.8081 33.5628C21.7878 33.5096 21.7896 33.4506 21.8129 33.3987C21.8362 33.3467 21.8792 33.3062 21.9325 33.286C21.9857 33.2657 22.0448 33.2674 22.0967 33.2907C29.1253 36.4307 37.4134 34.2056 38.4648 32.7846C38.6024 32.5936 38.5699 32.5191 38.5584 32.4924C38.3979 32.0894 36.8629 31.822 35.3796 31.5622C33.7147 31.2719 31.6446 30.9109 29.9529 30.189C26.0153 28.512 23.9853 22.1327 23.7999 18.1408C23.6317 14.4871 22.3319 10.3291 22.3185 10.287C22.3035 10.2398 22.3055 10.1888 22.3239 10.1428C22.3424 10.0969 22.3763 10.0587 22.4198 10.0349C24.5224 8.86219 24.1401 6.87964 24.0541 6.50528C22.7428 5.45098 20.0897 7.17568 20.0629 7.19287C20.0395 7.20843 20.0132 7.2192 19.9855 7.2246C19.9579 7.22999 19.9294 7.22989 19.9018 7.2243C19.8742 7.21872 19.848 7.20775 19.8246 7.19203C19.8013 7.17632 19.7813 7.15616 19.7657 7.13271C19.7501 7.10926 19.7393 7.08297 19.7339 7.05536C19.7285 7.02774 19.7286 6.99933 19.7342 6.97175C19.7398 6.94417 19.7508 6.91796 19.7665 6.89462C19.7823 6.87128 19.8024 6.85126 19.8259 6.83571C19.9482 6.75358 22.848 4.86844 24.3867 6.22261C24.4167 6.24911 24.4385 6.28354 24.4498 6.32193C24.4593 6.34676 25.1857 8.8641 22.7791 10.3329C23.0238 11.1484 24.0789 14.8366 24.23 18.1294C24.4039 21.8997 26.3976 28.216 30.1211 29.8031C31.7688 30.5041 33.8103 30.8613 35.4523 31.1497C37.4135 31.4916 38.7018 31.7227 38.9579 32.3434C38.999 32.4636 39.007 32.5926 38.9811 32.7169C38.9552 32.8412 38.8964 32.9563 38.8107 33.0501C38.1341 33.965 35.5058 34.8627 32.5621 35.1854C31.7316 35.272 30.8969 35.3134 30.0619 35.3096Z" fill="black"/>
<path d="M19.3175 28.8406C19.1238 28.8398 18.9311 28.8142 18.744 28.7642C18.503 28.7117 18.2772 28.6049 18.0837 28.452C17.8903 28.2991 17.7343 28.1041 17.6277 27.8818C16.9893 26.5448 17.9851 24.3216 18.0272 24.228C18.0341 24.1964 18.0481 24.1668 18.068 24.1413C18.0879 24.1158 18.1133 24.0951 18.1423 24.0808C18.1713 24.0664 18.2032 24.0588 18.2355 24.0584C18.2679 24.058 18.2999 24.0648 18.3293 24.0785C18.3586 24.0921 18.3845 24.1122 18.4051 24.1371C18.4256 24.1621 18.4403 24.1914 18.448 24.2228C18.4557 24.2542 18.4562 24.287 18.4496 24.3186C18.4429 24.3503 18.4292 24.38 18.4095 24.4056C18.4095 24.4267 17.4538 26.5448 18.0062 27.6965C18.0857 27.8621 18.2024 28.0071 18.3474 28.1201C18.4923 28.2331 18.6614 28.3111 18.8415 28.3478C19.0561 28.4097 19.2811 28.4265 19.5025 28.3972C19.7239 28.368 19.9368 28.2933 20.1279 28.1778C21.1601 27.5514 21.5558 25.8859 21.5596 25.8725C21.566 25.845 21.5778 25.8191 21.5942 25.7962C21.6106 25.7733 21.6314 25.7538 21.6554 25.7389C21.6794 25.724 21.706 25.714 21.7339 25.7094C21.7617 25.7048 21.7902 25.7057 21.8177 25.7121C21.8452 25.7185 21.8711 25.7302 21.8941 25.7466C21.917 25.763 21.9365 25.7838 21.9514 25.8078C21.9663 25.8317 21.9764 25.8584 21.981 25.8862C21.9856 25.914 21.9846 25.9425 21.9782 25.9699C21.961 26.0444 21.5367 27.8264 20.3516 28.5446C20.0408 28.7367 19.6829 28.8391 19.3175 28.8406Z" fill="black"/>
<path d="M9.12156 36.8739C9.05083 36.8739 8.97819 36.8739 8.90365 36.8739C6.63471 36.7096 6.60987 35.3688 6.57355 33.8179C6.57355 33.6002 6.56399 33.3767 6.55443 33.1456C6.52831 32.5334 6.45417 31.9241 6.3327 31.3235C6.15175 30.4034 6.06846 29.4668 6.08421 28.5292C6.08421 24.2509 7.44901 22.4555 7.50635 22.381C7.54298 22.3411 7.59329 22.3164 7.6473 22.3118C7.7013 22.3072 7.75506 22.3231 7.79789 22.3563C7.84073 22.3895 7.86951 22.4375 7.87853 22.4909C7.88756 22.5443 7.87616 22.5992 7.8466 22.6446C7.82748 22.6694 6.50856 24.4247 6.50856 28.5292C6.49358 29.4433 6.57624 30.3563 6.75514 31.2528C6.87734 31.8683 6.95337 32.4921 6.98261 33.1189C6.99216 33.3538 6.99789 33.5811 7.00172 33.8007C7.03421 35.3593 7.05333 36.3009 8.93232 36.4384C9.48856 36.4785 9.91673 36.341 10.2092 36.0297C10.8553 35.3421 10.6851 34.0299 10.6832 34.0166C10.6765 33.9873 10.6759 33.9569 10.6815 33.9274C10.6872 33.8979 10.6989 33.8699 10.716 33.8452C10.7331 33.8205 10.7552 33.7996 10.7808 33.7839C10.8064 33.7682 10.8351 33.758 10.8649 33.754C10.8947 33.75 10.925 33.7522 10.9539 33.7606C10.9827 33.769 11.0095 33.7833 11.0326 33.8026C11.0556 33.8219 11.0743 33.8458 11.0876 33.8728C11.1008 33.8998 11.1083 33.9292 11.1095 33.9593C11.1095 34.0204 11.3006 35.4872 10.5227 36.3238C10.341 36.5088 10.1223 36.6534 9.88083 36.7482C9.6394 36.8429 9.38068 36.8858 9.12156 36.8739Z" fill="black"/>
<path d="M19.1837 36.998C18.8654 37.012 18.5476 36.9623 18.2489 36.8517C17.9502 36.7412 17.6766 36.5721 17.4442 36.3543C16.8192 35.7451 16.6663 34.876 16.6299 34.4444C11.2128 35.2217 9.59377 33.2984 9.52687 33.2143C9.50905 33.1925 9.4957 33.1674 9.48759 33.1404C9.47948 33.1135 9.47677 33.0852 9.47961 33.0571C9.48534 33.0005 9.51335 32.9485 9.55745 32.9126C9.60156 32.8766 9.65815 32.8596 9.71479 32.8653C9.77143 32.8711 9.82347 32.8991 9.85947 32.9431C9.8824 32.9699 11.4823 34.8073 16.8001 33.9841C16.831 33.9797 16.8625 33.982 16.8924 33.9908C16.9224 33.9997 16.95 34.0148 16.9736 34.0353C16.9972 34.0558 17.0161 34.0811 17.029 34.1095C17.0419 34.1379 17.0486 34.1687 17.0486 34.1999C17.0486 34.2113 17.0486 35.3592 17.7463 36.043C18.1285 36.4135 18.6542 36.5874 19.3194 36.5606C21.0206 36.4899 21.2213 35.6056 21.5883 34.0184C21.6285 33.8485 21.6686 33.6708 21.7126 33.4875C21.7173 33.4581 21.7281 33.43 21.7442 33.405C21.7603 33.38 21.7814 33.3586 21.8062 33.3421C21.831 33.3256 21.859 33.3145 21.8883 33.3093C21.9176 33.3041 21.9477 33.3051 21.9766 33.3121C22.0056 33.3191 22.0327 33.332 22.0565 33.35C22.0802 33.368 22.0999 33.3907 22.1144 33.4166C22.1289 33.4426 22.1379 33.4713 22.1408 33.5009C22.1437 33.5305 22.1404 33.5604 22.1312 33.5887C22.0872 33.7701 22.0471 33.9459 22.0069 34.1158C21.6342 35.7355 21.3647 36.9063 19.3309 36.9904L19.1837 36.998Z" fill="black"/>
<path d="M5.47651 29.0202C5.34732 29.0206 5.21868 29.0032 5.09421 28.9686C4.85365 28.8989 4.63439 28.77 4.45643 28.5939C4.27847 28.4177 4.14748 28.1999 4.07539 27.9602C3.37006 26.0502 7.20067 22.788 7.36314 22.6504C7.40674 22.6137 7.46316 22.5958 7.51997 22.6006C7.57679 22.6055 7.62936 22.6327 7.66611 22.6762C7.70287 22.7198 7.7208 22.7761 7.71596 22.8329C7.71112 22.8897 7.68391 22.9422 7.64031 22.9789C6.59282 23.8652 3.97791 26.4646 4.47872 27.8112C4.52953 27.9853 4.62258 28.1443 4.74963 28.2739C4.87667 28.4035 5.03378 28.4998 5.20699 28.5541C5.37042 28.5962 5.54123 28.6008 5.7067 28.5678C5.87218 28.5347 6.02805 28.4648 6.16273 28.3632C6.18467 28.345 6.20999 28.3314 6.23722 28.3231C6.26445 28.3147 6.29306 28.3118 6.3214 28.3146C6.34975 28.3174 6.37726 28.3257 6.40237 28.3391C6.42748 28.3526 6.44969 28.3708 6.46771 28.3929C6.48573 28.4149 6.49921 28.4403 6.50737 28.4675C6.51554 28.4948 6.51823 28.5234 6.51529 28.5517C6.51235 28.58 6.50384 28.6074 6.49024 28.6325C6.47665 28.6575 6.45824 28.6795 6.43607 28.6974C6.16069 28.908 5.82327 29.0215 5.47651 29.0202Z" fill="black"/>
<path d="M1.3265 18.7769C1.18411 18.7762 1.04346 18.7456 0.913621 18.6872C0.298124 18.4179 -0.0421189 17.5889 0.00375671 17.1382C0.0085728 17.0814 0.0357475 17.0289 0.0793019 16.9922C0.122856 16.9555 0.179222 16.9376 0.236001 16.9424C0.29278 16.9472 0.34532 16.9744 0.382063 17.0179C0.418807 17.0614 0.436743 17.1177 0.431927 17.1745C0.405166 17.4896 0.672776 18.1123 1.08566 18.2937C1.39341 18.4293 1.73174 18.2937 2.09492 17.9003C3.86495 15.9616 5.5203 16.7543 5.58911 16.7925C5.6364 16.8197 5.67149 16.864 5.68721 16.9162C5.70293 16.9684 5.69809 17.0247 5.67368 17.0735C5.64927 17.1223 5.60713 17.1599 5.55588 17.1787C5.50463 17.1974 5.44814 17.1959 5.39796 17.1745C5.3387 17.1458 3.95479 16.4983 2.41222 18.1868C2.00125 18.6375 1.63043 18.7769 1.3265 18.7769Z" fill="black"/>
<path d="M21.896 19.6116C21.334 19.6116 20.7491 19.3079 20.1623 18.7101C19.7492 18.2672 19.2238 17.9446 18.6418 17.7764C18.0598 17.6082 17.4431 17.6009 16.8573 17.7551C16.8298 17.7668 16.8001 17.7727 16.7702 17.7723C16.7402 17.772 16.7107 17.7654 16.6834 17.753C16.6562 17.7407 16.6318 17.7228 16.6118 17.7005C16.5918 17.6782 16.5767 17.652 16.5674 17.6236C16.5581 17.5952 16.5548 17.5651 16.5577 17.5354C16.5607 17.5056 16.5698 17.4768 16.5845 17.4507C16.5991 17.4246 16.6191 17.4019 16.643 17.3839C16.6669 17.366 16.6944 17.3532 16.7235 17.3464C17.3853 17.1664 18.0836 17.1698 18.7436 17.3562C19.4036 17.5426 20.0004 17.905 20.47 18.4045C20.9995 18.9431 21.5003 19.2009 21.961 19.1685C22.2556 19.1443 22.5295 19.0075 22.7256 18.7865C22.7428 18.7641 22.7642 18.7454 22.7886 18.7314C22.8131 18.7173 22.84 18.7082 22.868 18.7046C22.896 18.701 22.9244 18.7029 22.9516 18.7102C22.9788 18.7175 23.0043 18.7301 23.0266 18.7473C23.049 18.7645 23.0677 18.7859 23.0818 18.8103C23.0958 18.8347 23.1049 18.8617 23.1086 18.8896C23.1122 18.9176 23.1103 18.9459 23.103 18.9731C23.0956 19.0003 23.083 19.0258 23.0658 19.0481C22.9312 19.2064 22.7664 19.3363 22.581 19.4301C22.3955 19.5239 22.1932 19.5797 21.9858 19.5944L21.896 19.6116Z" fill="black"/>
<path d="M14.5521 20.6067C13.7134 20.6131 12.8822 20.4487 12.1092 20.1235C11.2373 19.7408 10.2716 19.6245 9.33373 19.7893C8.26139 19.9421 7.47004 19.8294 6.98261 19.455C6.76368 19.302 6.61181 19.071 6.55826 18.8094C6.55339 18.7642 6.56648 18.7188 6.59471 18.6831C6.62295 18.6474 6.66408 18.6242 6.70926 18.6184C6.75406 18.613 6.7992 18.6254 6.83496 18.6529C6.87072 18.6804 6.89422 18.7208 6.90041 18.7655C6.90041 18.7846 7.09156 19.7587 9.28595 19.4493C10.2822 19.2726 11.3086 19.3949 12.2354 19.8007C13.0898 20.1216 13.9729 20.4539 16.0794 20.1369C16.1238 20.1319 16.1684 20.1442 16.204 20.1712C16.2396 20.1983 16.2634 20.2379 16.2705 20.282C16.276 20.3265 16.2639 20.3714 16.2367 20.407C16.2096 20.4427 16.1696 20.4664 16.1252 20.473C15.6049 20.5564 15.0791 20.6011 14.5521 20.6067Z" fill="black"/>
<path d="M14.2672 21.3096C14.2242 21.3102 14.1825 21.2945 14.1506 21.2657L13.4051 20.5761C13.3884 20.561 13.3748 20.5426 13.3652 20.5221C13.3557 20.5016 13.3503 20.4795 13.3494 20.4569C13.3485 20.4343 13.3521 20.4117 13.3601 20.3906C13.368 20.3694 13.3801 20.35 13.3956 20.3336C13.4268 20.3007 13.4697 20.2812 13.515 20.2794C13.5604 20.2777 13.6046 20.2937 13.6383 20.324L14.2558 20.897L14.7699 20.3374C14.7848 20.3195 14.8031 20.3048 14.8238 20.2942C14.8445 20.2835 14.8671 20.2772 14.8903 20.2756C14.9135 20.2739 14.9368 20.277 14.9588 20.2846C14.9808 20.2923 15.001 20.3042 15.0182 20.3199C15.0354 20.3355 15.0493 20.3545 15.0589 20.3757C15.0686 20.3968 15.0739 20.4197 15.0744 20.4429C15.075 20.4662 15.0708 20.4893 15.0622 20.5109C15.0535 20.5324 15.0406 20.5521 15.0242 20.5685L14.3934 21.2561C14.378 21.2729 14.3595 21.2865 14.3388 21.296C14.3181 21.3055 14.2957 21.3108 14.273 21.3115L14.2672 21.3096Z" fill="black"/>
<path d="M10.4348 17.8355C10.4351 17.8979 10.417 17.959 10.3825 18.0111C10.3481 18.0631 10.299 18.1038 10.2414 18.128C10.1838 18.1521 10.1203 18.1586 10.059 18.1467C9.99771 18.1347 9.94133 18.1049 9.89703 18.0609C9.85273 18.0169 9.8225 17.9607 9.81017 17.8995C9.79785 17.8384 9.80398 17.7749 9.82779 17.7172C9.85161 17.6595 9.89204 17.6102 9.94394 17.5755C9.99585 17.5407 10.0569 17.5222 10.1194 17.5222C10.2027 17.5222 10.2826 17.5552 10.3417 17.6138C10.4008 17.6725 10.4343 17.7522 10.4348 17.8355Z" fill="black"/>
<path d="M12.0577 18.0513C12.0581 18.1138 12.0398 18.175 12.0053 18.2271C11.9708 18.2792 11.9216 18.3199 11.8639 18.344C11.8062 18.3681 11.7426 18.3745 11.6812 18.3624C11.6199 18.3503 11.5635 18.3202 11.5193 18.276C11.475 18.2318 11.445 18.1755 11.4329 18.1142C11.4208 18.0529 11.4272 17.9894 11.4513 17.9317C11.4754 17.874 11.5161 17.8248 11.5683 17.7904C11.6204 17.7559 11.6817 17.7377 11.7442 17.738C11.8273 17.738 11.9071 17.771 11.9659 17.8298C12.0246 17.8885 12.0577 17.9682 12.0577 18.0513Z" fill="black"/>
<path d="M23.5419 14.4337C23.4943 14.434 23.448 14.4185 23.4102 14.3895C23.3724 14.3606 23.3454 14.32 23.3333 14.2739C23.3212 14.2279 23.3249 14.1792 23.3436 14.1355C23.3623 14.0918 23.3951 14.0556 23.4368 14.0326C23.7744 13.8202 24.0295 13.4991 24.1598 13.1223C24.2902 12.7456 24.288 12.3356 24.1536 11.9602C23.7388 10.5641 22.7238 10.692 22.7123 10.6939C22.6581 10.6973 22.6046 10.6802 22.5625 10.646C22.5203 10.6118 22.4926 10.5629 22.4849 10.5092C22.4772 10.4555 22.49 10.4008 22.5208 10.3561C22.5516 10.3114 22.5982 10.28 22.6512 10.268C22.6664 10.268 24.0465 10.0904 24.5626 11.838C24.7194 12.307 24.7142 12.8151 24.5478 13.2808C24.3815 13.7465 24.0636 14.143 23.6451 14.4069C23.6135 14.4242 23.578 14.4334 23.5419 14.4337Z" fill="black"/>
<path d="M24.4344 18.2594C24.387 18.2589 24.3411 18.2428 24.3038 18.2137C24.2664 18.1845 24.2397 18.1439 24.2278 18.0981C24.2158 18.0522 24.2193 18.0038 24.2376 17.9601C24.256 17.9164 24.2882 17.88 24.3293 17.8564C24.6695 17.6479 24.9283 17.3297 25.0632 16.9543C25.198 16.579 25.2007 16.1689 25.0709 15.7918C24.6753 14.4051 23.6851 14.5044 23.6431 14.5083C23.5865 14.5156 23.5294 14.5002 23.4842 14.4655C23.4391 14.4307 23.4096 14.3795 23.4022 14.323C23.3949 14.2665 23.4103 14.2094 23.445 14.1643C23.4798 14.1192 23.5311 14.0897 23.5876 14.0823C23.6029 14.0823 24.9849 13.92 25.4838 15.6733C25.6359 16.1442 25.6253 16.6524 25.4537 17.1165C25.2821 17.5806 24.9595 17.9737 24.5376 18.2327C24.5059 18.2498 24.4705 18.259 24.4344 18.2594Z" fill="black"/>
<path d="M24.8837 22.4422C24.8359 22.442 24.7895 22.4259 24.7517 22.3965C24.714 22.3671 24.6871 22.326 24.6753 22.2797C24.6635 22.2333 24.6674 22.1844 24.6865 22.1405C24.7055 22.0967 24.7386 22.0604 24.7805 22.0373C25.1243 21.8325 25.3869 21.5154 25.5238 21.1396C25.6606 20.7638 25.6634 20.3522 25.5317 19.9745C25.1284 18.586 24.1191 18.6872 24.0752 18.691C24.0469 18.6945 24.0182 18.6923 23.9908 18.6845C23.9634 18.6767 23.9378 18.6635 23.9155 18.6457C23.8933 18.6279 23.8748 18.6059 23.8612 18.5809C23.8476 18.5559 23.8391 18.5284 23.8362 18.5C23.8331 18.4718 23.8355 18.4432 23.8434 18.4159C23.8513 18.3887 23.8645 18.3632 23.8822 18.341C23.9 18.3188 23.9219 18.3004 23.9468 18.2867C23.9718 18.273 23.9991 18.2644 24.0274 18.2613C24.0427 18.2613 25.4419 18.0989 25.9503 19.8504C26.1048 20.3224 26.0944 20.8328 25.9208 21.298C25.7472 21.7633 25.4206 22.156 24.9946 22.4117C24.9609 22.4313 24.9227 22.4419 24.8837 22.4422Z" fill="black"/>
<path d="M26.346 26.327C26.3024 26.3251 26.2604 26.31 26.2256 26.2838C26.1907 26.2575 26.1646 26.2213 26.1507 26.18C26.1369 26.1386 26.1359 26.094 26.1479 26.0521C26.1599 26.0101 26.1843 25.9728 26.218 25.945C26.529 25.6938 26.7442 25.3434 26.8273 24.9526C26.9105 24.5617 26.8567 24.1541 26.6748 23.7982C26.0746 22.4613 25.0634 22.7267 25.0539 22.7286C24.9991 22.7438 24.9406 22.7367 24.8911 22.7087C24.8416 22.6808 24.8053 22.6344 24.7901 22.5797C24.7749 22.525 24.7821 22.4665 24.81 22.417C24.838 22.3676 24.8844 22.3313 24.9392 22.3161C24.9545 22.3161 26.3174 21.957 27.0667 23.6206C27.2856 24.0675 27.3462 24.5754 27.2385 25.0612C27.1309 25.5469 26.8614 25.9818 26.4741 26.2946C26.4359 26.3186 26.3911 26.33 26.346 26.327Z" fill="black"/>
<path d="M29.0393 29.3219C28.9994 29.3215 28.9604 29.3103 28.9265 29.2895C28.9022 29.2748 28.8812 29.2555 28.8645 29.2326C28.8478 29.2097 28.8358 29.1838 28.8292 29.1562C28.8226 29.1287 28.8216 29.1001 28.8262 29.0722C28.8307 29.0442 28.8408 29.0175 28.8558 28.9934C29.0499 28.6442 29.1178 28.2389 29.0482 27.8456C28.9786 27.4522 28.7757 27.0948 28.4735 26.8333C27.4183 25.8229 26.5792 26.4417 26.5715 26.4513C26.5264 26.486 26.4694 26.5013 26.4129 26.494C26.3564 26.4866 26.3052 26.4572 26.2705 26.4121C26.2358 26.367 26.2204 26.31 26.2277 26.2536C26.2351 26.1972 26.2645 26.146 26.3097 26.1113C26.3211 26.1017 27.4566 25.2633 28.7716 26.5257C29.1409 26.8581 29.3865 27.3057 29.4684 27.7955C29.5503 28.2853 29.4637 28.7883 29.2228 29.2226C29.2029 29.2532 29.1757 29.2783 29.1437 29.2957C29.1116 29.313 29.0757 29.322 29.0393 29.3219Z" fill="black"/>
<path d="M32.5315 30.7774C32.4744 30.7749 32.4206 30.7501 32.3816 30.7082C32.3426 30.6664 32.3216 30.611 32.3232 30.5539C32.3214 30.1802 32.1908 29.8185 31.9534 29.5297C31.7159 29.241 31.3861 29.0428 31.0196 28.9686C29.6968 28.6286 29.2992 29.5149 29.2992 29.5244C29.2896 29.5526 29.2743 29.5784 29.2542 29.6004C29.2341 29.6224 29.2097 29.6399 29.1825 29.652C29.1553 29.6641 29.1259 29.6704 29.0961 29.6706C29.0663 29.6708 29.0368 29.6648 29.0095 29.653C28.9821 29.6413 28.9575 29.624 28.9371 29.6023C28.9168 29.5806 28.9011 29.5549 28.8912 29.5269C28.8813 29.4988 28.8772 29.469 28.8793 29.4394C28.8815 29.4097 28.8897 29.3808 28.9036 29.3544C28.9036 29.343 29.4541 28.1206 31.1304 28.5522C31.5902 28.6544 32.0016 28.9097 32.2972 29.2761C32.5927 29.6426 32.7549 30.0985 32.7571 30.5692C32.7561 30.5977 32.7495 30.6257 32.7376 30.6517C32.7257 30.6776 32.7088 30.7009 32.6878 30.7203C32.6668 30.7396 32.6422 30.7547 32.6154 30.7645C32.5886 30.7742 32.5601 30.7786 32.5315 30.7774Z" fill="black"/>
<path d="M35.59 31.379C35.5391 31.3789 35.4899 31.3607 35.4511 31.3279C35.4123 31.2951 35.3863 31.2496 35.3778 31.1995C35.3135 30.9092 35.1514 30.6497 34.9187 30.4644C34.6859 30.2791 34.3966 30.1793 34.099 30.1815C33.0362 30.1337 32.891 30.7545 32.8852 30.7774C32.8746 30.8334 32.8421 30.8828 32.795 30.9149C32.7478 30.9469 32.6899 30.959 32.6339 30.9483C32.5778 30.9377 32.5283 30.9053 32.4963 30.8582C32.4642 30.811 32.4521 30.7531 32.4628 30.6972C32.5278 30.3476 32.9579 29.7002 34.1181 29.7422C34.5144 29.7425 34.8984 29.8796 35.2052 30.1301C35.512 30.3807 35.7229 30.7294 35.8021 31.1174C35.8111 31.1735 35.7977 31.2309 35.7648 31.2773C35.7319 31.3237 35.6822 31.3554 35.6263 31.3657L35.59 31.379Z" fill="black"/>
<path d="M8.91899 14.1796C8.92248 14.0711 8.9689 13.9683 9.04808 13.8938C9.12726 13.8194 9.23274 13.7793 9.34143 13.7824C9.43845 13.7818 9.53281 13.8141 9.60904 13.874C9.58037 13.2724 9.24776 12.7949 8.81768 12.7739C8.34554 12.751 7.93649 13.2858 7.90208 13.9695C7.86767 14.6533 8.22512 15.2244 8.69726 15.2473C9.04706 15.2645 9.36246 14.9723 9.51538 14.5425C9.46016 14.5651 9.40109 14.5768 9.34143 14.5769C9.23274 14.58 9.12726 14.5399 9.04808 14.4655C8.9689 14.391 8.92248 14.2882 8.91899 14.1796Z" fill="black"/>
<path d="M15.4065 14.5311C15.4119 14.4225 15.4595 14.3203 15.5391 14.2461C15.6186 14.1719 15.724 14.1317 15.8328 14.1338C15.9278 14.1342 16.0203 14.165 16.0965 14.2216C16.0564 13.6907 15.7697 13.2667 15.3778 13.2285C14.9076 13.1769 14.4661 13.6849 14.3915 14.3649C14.317 15.0448 14.6381 15.6369 15.1064 15.6885C15.4887 15.7305 15.8557 15.3982 16.0163 14.9035C15.9563 14.9308 15.891 14.9445 15.8251 14.9436C15.7151 14.9436 15.6095 14.9003 15.5311 14.8231C15.4528 14.7459 15.408 14.641 15.4065 14.5311Z" fill="black"/>
<path d="M9.609 13.874C9.61282 13.9332 9.61282 13.9925 9.609 14.0517C9.60196 14.2191 9.56974 14.3846 9.51343 14.5425" fill="white"/>
<path d="M9.60895 13.8742C9.53272 13.8142 9.43836 13.7819 9.34134 13.7825C9.23589 13.7825 9.13476 13.8243 9.0602 13.8988C8.98563 13.9733 8.94374 14.0744 8.94374 14.1798C8.94374 14.2851 8.98563 14.3862 9.0602 14.4607C9.13476 14.5352 9.23589 14.577 9.34134 14.577C9.401 14.5769 9.46006 14.5652 9.51528 14.5426C9.5716 14.3847 9.60382 14.2193 9.61086 14.0518C9.61404 13.9926 9.6134 13.9333 9.60895 13.8742Z" fill="white"/>
<path d="M16.1005 14.2139C16.0222 14.1592 15.9284 14.1311 15.8329 14.1337C15.7254 14.1337 15.6223 14.1764 15.5463 14.2523C15.4703 14.3282 15.4277 14.4312 15.4277 14.5386C15.4277 14.646 15.4703 14.749 15.5463 14.8249C15.6223 14.9009 15.7254 14.9435 15.8329 14.9435C15.8988 14.9445 15.9641 14.9308 16.024 14.9034C16.0618 14.7893 16.0874 14.6715 16.1005 14.552C16.1115 14.4396 16.1115 14.3264 16.1005 14.2139Z" fill="white"/>
<path d="M18.1437 6.31237C18.1077 6.3119 18.0722 6.30272 18.0405 6.28563C17.9907 6.25786 17.954 6.21156 17.9382 6.15682C17.9224 6.10208 17.929 6.04334 17.9564 5.9934L18.7305 4.58575C18.7464 4.50919 18.7899 4.44117 18.8529 4.39475C19.044 4.24959 19.3613 4.35655 19.5773 4.45014C19.6465 4.48897 19.7227 4.51354 19.8015 4.5224C19.8803 4.53126 19.9601 4.52422 20.0361 4.50171C20.2272 4.41958 20.3228 4.14072 20.4012 3.91535C20.4184 3.86569 20.4356 3.81794 20.4528 3.77401C20.4432 3.67851 20.0705 3.42067 19.6175 3.25068C19.5879 3.23975 19.5611 3.22243 19.539 3.19995C19.5169 3.17747 19.5 3.15039 19.4896 3.12065C19.4792 3.09091 19.4755 3.05923 19.4788 3.02789C19.482 2.99655 19.4922 2.96632 19.5085 2.93935C19.5085 2.93935 19.6423 2.70824 20.0323 1.78382C20.168 1.46485 20.1431 1.35216 20.1259 1.31969C20.0839 1.23757 19.8717 1.186 19.6481 1.1287C19.499 1.09432 19.3307 1.0523 19.153 0.993088C18.7707 1.27003 17.5416 3.63076 16.5342 5.82341C16.5082 5.87165 16.4647 5.90818 16.4127 5.92558C16.3607 5.94298 16.304 5.93995 16.2541 5.9171C16.2043 5.89425 16.165 5.8533 16.1442 5.80256C16.1235 5.75181 16.1228 5.69508 16.1424 5.64387C18.5834 0.330329 19.0459 0.498405 19.2428 0.569074C19.4085 0.625284 19.5769 0.673094 19.7475 0.712322C20.0858 0.792541 20.3782 0.86321 20.512 1.12488C20.6134 1.31587 20.5866 1.57754 20.4299 1.94999C20.2158 2.45995 20.0762 2.76363 19.9921 2.93935C20.275 3.06541 20.7147 3.30225 20.8427 3.58874C20.868 3.64152 20.8822 3.69889 20.8845 3.75735C20.8868 3.81581 20.8772 3.87413 20.8561 3.92872C20.8408 3.96692 20.8255 4.01085 20.8083 4.05669C20.707 4.34318 20.5694 4.73664 20.21 4.89325C20.0805 4.94171 19.9421 4.96216 19.804 4.95328C19.666 4.94439 19.5314 4.90636 19.4091 4.84169C19.3211 4.80018 19.2279 4.77063 19.132 4.75383L18.3368 6.20159C18.3179 6.23597 18.2898 6.26448 18.2558 6.28402C18.2217 6.30356 18.183 6.31337 18.1437 6.31237Z" fill="black"/>
<path d="M11.6715 5.90362C11.644 5.90318 11.6169 5.89801 11.5912 5.88834C11.5383 5.86674 11.4961 5.82505 11.4739 5.77243C11.4517 5.7198 11.4512 5.66052 11.4727 5.60758C11.7002 5.05369 12.0194 4.1369 12.1589 3.7358C11.5855 3.52189 11.2777 3.37673 11.163 3.12461C11.0483 2.8725 11.1477 2.62993 11.2968 2.24984L11.3981 1.98245C11.4302 1.88514 11.4851 1.79691 11.5583 1.72513C11.6314 1.65336 11.7207 1.60013 11.8187 1.56989C12.201 1.45339 12.7037 1.69786 12.9828 1.86403C13.1299 1.58326 13.3995 1.05038 13.6384 0.485029C13.7056 0.339327 13.8135 0.216168 13.9492 0.13042C14.0848 0.0446724 14.2425 1.91649e-06 14.403 0.00180559C14.6198 -0.0124479 14.8364 0.0335361 15.0287 0.134667C15.221 0.235797 15.3815 0.388129 15.4925 0.574798C15.7888 1.14779 14.5578 4.11016 14.015 5.34973C13.9921 5.40191 13.9495 5.44289 13.8965 5.46367C13.8434 5.48444 13.7843 5.4833 13.7321 5.46051C13.6798 5.43771 13.6388 5.39513 13.618 5.34212C13.5972 5.2891 13.5984 5.23001 13.6212 5.17783C14.4317 3.30988 15.2326 1.09049 15.1102 0.760065C15.0365 0.646105 14.9337 0.553832 14.8124 0.492737C14.6911 0.431642 14.5557 0.403931 14.4202 0.412452C14.3423 0.410728 14.2653 0.430493 14.1979 0.469577C14.1305 0.50866 14.0751 0.565553 14.0379 0.634009C13.6843 1.47822 13.2733 2.22693 13.2542 2.2594C13.2396 2.28609 13.2194 2.30931 13.195 2.32744C13.1706 2.34558 13.1425 2.3582 13.1127 2.36444C13.0832 2.37082 13.0527 2.37106 13.0231 2.36515C12.9935 2.35923 12.9655 2.34729 12.9407 2.33006C12.7285 2.17536 12.2067 1.88695 11.9467 1.96526C11.9122 1.97625 11.8811 1.9959 11.8564 2.02231C11.8316 2.04872 11.814 2.08102 11.8053 2.11615C11.769 2.21547 11.7326 2.30714 11.7002 2.38927C11.6008 2.64521 11.5205 2.84958 11.5568 2.92979C11.618 3.06158 12.0595 3.22584 12.5125 3.38437C12.566 3.40342 12.6099 3.44277 12.6346 3.49389C12.6593 3.54501 12.6628 3.60379 12.6444 3.65749C12.6253 3.71288 12.1799 5.0174 11.8798 5.75846C11.8657 5.80205 11.8377 5.83983 11.8001 5.86603C11.7625 5.89224 11.7173 5.90544 11.6715 5.90362Z" fill="black"/>
</g>
<defs>
<clipPath id="clip0_101:201">
<rect width="39" height="37" fill="white"/>
</clipPath>
</defs>
</svg>
