<svg width="40" height="37" viewBox="0 0 40 37" fill="none" xmlns="http://www.w3.org/2000/svg">
<g clip-path="url(#clip0_101:149)">
<path d="M6.96697 26.6276C7.69579 26.8176 8.46725 26.7674 9.16473 26.4846C9.75371 26.1865 10.2499 25.7355 10.6003 25.1798C11.1454 24.0118 11.0579 23.1664 10.3376 22.6435C9.70122 22.1793 9.10183 22.1451 8.53944 22.5409L8.50613 22.5666C8.44161 22.6102 8.38096 22.6593 8.32484 22.7132C8.23089 22.7959 8.13206 22.873 8.02885 22.9441C7.74056 23.2275 7.3661 23.4092 6.96327 23.4609C7.3661 23.4092 7.74056 23.2275 8.02885 22.9441C8.13206 22.873 8.23089 22.7959 8.32484 22.7132C8.38096 22.6593 8.44161 22.6102 8.50613 22.5666C9.59638 21.2618 9.43482 20.7474 8.02144 21.0235C6.5982 21.9178 5.82493 22.9893 5.7016 24.2379C5.5943 25.4877 6.01609 26.2867 6.96697 26.6276Z" fill="#66CE94"/>
<path d="M7.84755 26.8804C7.54253 26.8801 7.23891 26.8394 6.94477 26.7594C5.91619 26.3929 5.4648 25.5462 5.5906 24.2304C5.7164 22.9146 6.51556 21.8261 7.97334 20.9098C8.00447 20.8952 8.03992 20.8925 8.07295 20.9021C8.10598 20.9117 8.13431 20.933 8.15255 20.9619C8.1708 20.9909 8.17768 21.0254 8.17193 21.059C8.16618 21.0927 8.14819 21.123 8.12134 21.1444C6.74127 22.0093 5.98279 23.0576 5.8681 24.2561C5.7534 25.4546 6.13448 26.1766 7.03356 26.4992C7.72968 26.6784 8.46567 26.6295 9.13142 26.3599C9.69193 26.0734 10.1656 25.6446 10.5041 25.1174C11.0147 24.0179 10.9444 23.2372 10.2821 22.7607C9.69383 22.3282 9.17212 22.2952 8.64673 22.6581C8.59 22.6972 8.53452 22.7412 8.48025 22.79C8.38608 22.8763 8.28594 22.9559 8.18056 23.0283C7.87198 23.3285 7.47339 23.5214 7.04467 23.578C7.02639 23.5806 7.00776 23.5795 6.98993 23.5747C6.9721 23.57 6.95545 23.5617 6.94093 23.5504C6.92641 23.5391 6.91435 23.525 6.90547 23.509C6.8966 23.4929 6.89107 23.4753 6.88926 23.4571C6.88666 23.4393 6.88767 23.4211 6.89224 23.4036C6.89681 23.3862 6.90484 23.3698 6.91586 23.3555C6.92688 23.3412 6.94068 23.3292 6.95644 23.3202C6.9722 23.3112 6.98961 23.3054 7.00766 23.3031C7.38058 23.2527 7.7271 23.0843 7.99556 22.823C8.09384 22.7556 8.18773 22.6821 8.27674 22.6031C8.33609 22.5477 8.39913 22.4962 8.46544 22.4492L8.50983 22.4162C9.12402 21.9874 9.78263 22.024 10.4671 22.5261C11.2441 23.0869 11.3477 23.9922 10.7779 25.2274C10.4173 25.8035 9.90583 26.2721 9.29792 26.5835C8.83846 26.7746 8.34587 26.8755 7.84755 26.8804Z" fill="black"/>
<path d="M14.9588 25.2018C13.4936 24.5396 12.2751 24.5091 11.3033 25.1102C10.3166 25.8432 9.70984 27.0442 9.48292 28.713C9.38172 30.2233 9.66145 31.7348 10.2969 33.1113C10.697 33.3916 11.1277 33.6264 11.5808 33.8113C13.1989 34.4784 15.2597 34.6286 17.7634 34.2621C17.9189 33.0997 17.9672 31.9257 17.9077 30.7545C17.7473 27.9715 16.7607 26.1242 14.9477 25.2128L14.9588 25.2018ZM10.6558 27.192C12.1605 27.898 13.8705 28.0475 15.4768 27.6135C13.8731 28.0425 12.1675 27.8905 10.6669 27.1847L10.6558 27.192ZM10.5966 28.9476C12.0914 29.7466 13.8476 29.9311 15.8653 29.5011C13.8451 29.9287 12.0889 29.7442 10.5966 28.9476ZM10.9444 31.3776C12.4391 32.1209 14.1524 32.3119 15.7765 31.9164C14.152 32.3108 12.4387 32.1185 10.9444 31.374V31.3776Z" fill="#FDF6A3"/>
<path d="M34.2577 31.3079C35.3423 31.6102 36.4479 31.8331 37.5654 31.975C37.7504 31.303 37.3015 30.8009 36.2187 30.4686C35.3159 30.3806 34.6647 30.6629 34.2577 31.3079ZM33.2772 29.6146C32.8722 29.3946 32.411 29.2971 31.9506 29.3343C31.4902 29.3714 31.051 29.5415 30.6872 29.8235C31.813 30.461 33.0133 30.9595 34.2614 31.3079C34.2649 31.1853 34.2574 31.0627 34.2392 30.9414C34.1931 30.6636 34.083 30.4001 33.9174 30.1713C33.7519 29.9424 33.5353 29.7545 33.2846 29.622L33.2772 29.6146ZM29.359 28.9439C29.7802 29.2683 30.2226 29.5646 30.6835 29.8309C30.7989 29.489 30.8182 29.1225 30.7393 28.7706C30.6604 28.4187 30.4864 28.0947 30.2359 27.8333C29.7068 27.2836 28.9446 27.1003 27.9382 27.3165C28.3661 27.8965 28.8413 28.4408 29.359 28.9439ZM28.3748 24.7436C28.0221 23.5683 27.2044 23.0124 25.9217 23.0759C26.3102 24.6055 26.995 26.0458 27.9382 27.3165C28.2028 26.947 28.379 26.5225 28.4534 26.0755C28.5278 25.6284 28.4984 25.1704 28.3674 24.7363L28.3748 24.7436Z" fill="#279295"/>
<path d="M14.056 32.2426C12.9541 32.2518 11.8658 32.0005 10.8815 31.5096C10.8623 31.5033 10.8446 31.493 10.8298 31.4793C10.815 31.4657 10.8033 31.449 10.7956 31.4304C10.7878 31.4119 10.7843 31.3919 10.785 31.3719C10.7858 31.3518 10.791 31.3322 10.8002 31.3143C10.8093 31.2964 10.8223 31.2807 10.8381 31.2682C10.854 31.2557 10.8724 31.2468 10.8921 31.242C10.9118 31.2373 10.9322 31.2368 10.9521 31.2406C10.972 31.2443 10.9908 31.2524 11.0073 31.264C12.4747 31.9887 14.1537 32.1757 15.7469 31.7918C15.7831 31.7851 15.8205 31.7924 15.8515 31.8122C15.8825 31.8319 15.9046 31.8627 15.9134 31.8981C15.9211 31.9341 15.9142 31.9716 15.8941 32.0025C15.874 32.0334 15.8424 32.0551 15.8061 32.063C15.2312 32.1864 14.6443 32.2466 14.056 32.2426ZM13.8489 29.8603C12.689 29.8771 11.5436 29.6035 10.5189 29.0649C10.4999 29.058 10.4827 29.0471 10.4684 29.033C10.454 29.0189 10.4429 29.0019 10.4358 28.9832C10.4287 28.9645 10.4258 28.9444 10.4272 28.9245C10.4286 28.9045 10.4343 28.8851 10.444 28.8675C10.4537 28.8499 10.4671 28.8346 10.4832 28.8226C10.4994 28.8107 10.518 28.8023 10.5378 28.7981C10.5575 28.7938 10.578 28.7939 10.5977 28.7982C10.6174 28.8025 10.636 28.811 10.6521 28.823C12.1099 29.6 13.8489 29.7833 15.832 29.3618C15.85 29.3575 15.8687 29.3569 15.887 29.3599C15.9052 29.363 15.9227 29.3697 15.9382 29.3796C15.9538 29.3896 15.9672 29.4025 15.9775 29.4177C15.9879 29.4329 15.995 29.4501 15.9985 29.4681C16.0052 29.5039 15.9979 29.541 15.978 29.5717C15.958 29.6023 15.927 29.6243 15.8912 29.633C15.2203 29.7793 14.5358 29.8555 13.8489 29.8603ZM13.6787 27.9873C12.6194 27.9787 11.5739 27.7476 10.6114 27.3093C10.5783 27.2934 10.5526 27.2655 10.5395 27.2315C10.5265 27.1974 10.527 27.1597 10.5411 27.126C10.5565 27.0926 10.5845 27.0666 10.6192 27.0535C10.6538 27.0405 10.6922 27.0415 10.7261 27.0564C12.1962 27.7452 13.8658 27.8933 15.4361 27.4742C15.4719 27.4653 15.5099 27.4706 15.5417 27.4892C15.5736 27.5077 15.5968 27.5379 15.6063 27.5732C15.6114 27.5905 15.6129 27.6087 15.6108 27.6266C15.6086 27.6445 15.6029 27.6618 15.594 27.6775C15.585 27.6932 15.573 27.707 15.5586 27.718C15.5442 27.729 15.5277 27.7371 15.5101 27.7418C14.9132 27.9023 14.2972 27.9824 13.6787 27.98V27.9873Z" fill="#66CE94"/>
<path d="M30.6799 29.8125C30.219 29.5463 29.7765 29.2499 29.3553 28.9255C28.8376 28.4224 28.3625 27.8781 27.9345 27.2982C26.9914 26.0274 26.3065 24.5872 25.918 23.0575C23.3799 21.5573 20.3867 19.9434 16.9383 18.2158C13.5812 16.5298 10.6349 17.8737 8.09917 22.2475C6.59453 24.8571 6.19863 27.9261 6.91148 31.4545C6.91148 31.5095 6.97808 31.733 7.07798 32.1215C7.19024 32.5787 7.27183 33.0428 7.32219 33.5106C7.36706 33.9195 7.3819 34.3311 7.36659 34.7421C7.32396 35.1495 7.42032 35.5593 7.64029 35.9061C7.86026 36.2529 8.19114 36.5167 8.58015 36.6554C8.90286 36.808 9.26177 36.8695 9.61749 36.8333C9.9732 36.7971 10.312 36.6645 10.5966 36.4501C11.2379 35.9883 11.5672 35.0977 11.5845 33.7782C11.1316 33.604 10.6998 33.3802 10.2969 33.1111C9.66148 31.7347 9.38174 30.2232 9.48294 28.7129C9.7074 27.0367 10.3142 25.8358 11.3033 25.11C12.2752 24.5041 13.4937 24.5346 14.9588 25.2017C16.7644 26.1155 17.7511 27.9628 17.9188 30.7434C17.9484 31.2785 17.9521 31.843 17.9188 32.4074V32.8436H17.8966C17.8707 33.3017 17.8263 33.7672 17.7634 34.251C17.7311 34.5113 17.7126 34.7731 17.7079 35.0354C17.6996 35.3686 17.7934 35.6966 17.977 35.976C18.1607 36.2554 18.4255 36.4731 18.7365 36.6004C19.3915 36.8412 20.1072 36.8682 20.7789 36.6774C21.8469 36.2815 22.5462 35.2431 22.8767 33.562C25.8965 34.7699 29.1433 35.3199 32.3966 35.1746C35.6205 35.028 37.9194 34.4062 39.2933 33.3091C40.1616 32.6078 40.0259 32.2083 38.8863 32.1105C38.4386 32.0702 37.9984 32.0262 37.5655 31.9749C36.4479 31.8331 35.3423 31.6101 34.2577 31.3079C33.0079 30.9562 31.8063 30.454 30.6799 29.8125Z" fill="#66CE94"/>
<path d="M9.46443 37C9.14299 36.9961 8.82526 36.9314 8.52833 36.8094C8.11107 36.6616 7.75595 36.3794 7.51982 36.0079C7.28369 35.6364 7.18022 35.1972 7.22597 34.7606C7.23833 34.3568 7.22225 33.9526 7.17787 33.5511C7.12975 33.0882 7.05064 32.6291 6.94107 32.1766C6.84117 31.7918 6.78566 31.5645 6.77086 31.5059C6.05308 27.958 6.45637 24.8279 7.97334 22.2C10.5411 17.7651 13.5788 16.387 17.0012 18.1023C20.4236 19.8176 23.428 21.4413 25.9513 22.9294C27.2796 22.8744 28.1343 23.4681 28.5006 24.6996C28.7306 25.5106 28.6324 26.3783 28.2268 27.1187C28.6009 27.0413 28.9885 27.0567 29.3551 27.1635C29.7217 27.2703 30.0561 27.4652 30.3284 27.7308C30.5602 27.9665 30.7311 28.2542 30.8264 28.5695C30.9218 28.8848 30.9388 29.2182 30.876 29.5414C31.2448 29.3158 31.6681 29.1924 32.1015 29.1841C32.5349 29.1757 32.9626 29.2826 33.3401 29.4937C33.6114 29.6352 33.8455 29.8375 34.0241 30.0843C34.2026 30.3312 34.3206 30.6159 34.3687 30.9158C34.606 30.6765 34.8981 30.4976 35.2202 30.3942C35.5423 30.2908 35.8848 30.2661 36.2187 30.322H36.2446C37.3249 30.6556 37.8207 31.165 37.7245 31.8394C38.0945 31.8834 38.4941 31.9237 38.8863 31.9567C39.5412 32.0154 39.8853 32.1656 39.9704 32.4368C40.0555 32.7081 39.8594 33.0086 39.371 33.4008C37.9761 34.5003 35.6304 35.1527 32.3929 35.2994C29.1767 35.4402 25.9667 34.9069 22.9729 33.7343C22.6214 35.369 21.8962 36.3952 20.8195 36.7947H20.7936C20.0971 36.9882 19.3568 36.96 18.6773 36.7141C18.3425 36.5763 18.0575 36.3417 17.8595 36.0409C17.6615 35.7401 17.5596 35.3872 17.5673 35.0281C17.5673 34.7972 17.5858 34.5883 17.6006 34.4014C15.2548 34.7239 13.2791 34.5883 11.714 33.9946C11.6622 35.2444 11.3144 36.1094 10.6743 36.5602C10.3316 36.8359 9.90585 36.9906 9.46443 37ZM14.2299 17.6662C13.5512 17.6677 12.8808 17.8153 12.2653 18.0987C10.826 18.7584 9.46443 20.1841 8.21755 22.3393C6.73758 24.9049 6.34169 27.969 7.04468 31.4472C7.04468 31.4839 7.08906 31.6305 7.21116 32.1106C7.32536 32.5749 7.40697 33.0464 7.45537 33.5217C7.50151 33.9355 7.51758 34.3519 7.50347 34.7679C7.45926 35.1457 7.54472 35.5272 7.74607 35.851C7.94743 36.1748 8.25297 36.422 8.61345 36.5529C8.91385 36.6966 9.2486 36.7548 9.58046 36.7212C9.91231 36.6875 10.2282 36.5633 10.493 36.3623C11.0776 35.9371 11.3884 35.1088 11.4217 33.8956C10.9923 33.7101 10.5832 33.4817 10.2007 33.2139C10.1856 33.2033 10.1728 33.1899 10.163 33.1744C10.1532 33.1589 10.1465 33.1416 10.1434 33.1236C10.1404 33.1055 10.1409 33.0871 10.145 33.0692C10.1491 33.0514 10.1567 33.0345 10.1674 33.0196C10.1778 33.0048 10.191 32.9922 10.2063 32.9825C10.2216 32.9728 10.2387 32.9662 10.2566 32.9632C10.2745 32.9601 10.2929 32.9606 10.3106 32.9646C10.3283 32.9686 10.345 32.9761 10.3598 32.9866C10.752 33.2619 11.1739 33.493 11.6178 33.6757C13.2014 34.3281 15.2585 34.4747 17.7264 34.1118C17.7479 34.1087 17.7699 34.1108 17.7905 34.1178C17.8111 34.1248 17.8297 34.1366 17.8448 34.1522C17.8593 34.1672 17.8705 34.185 17.8775 34.2046C17.8845 34.2242 17.8872 34.2451 17.8855 34.2658C17.8527 34.5235 17.8354 34.783 17.8337 35.0428C17.8248 35.3479 17.91 35.6485 18.0779 35.9046C18.2458 36.1606 18.4884 36.3598 18.7735 36.4759C19.4002 36.6998 20.0819 36.7242 20.7233 36.5455C21.7297 36.179 22.4031 35.1527 22.7213 33.5327C22.7253 33.5127 22.7336 33.4938 22.7458 33.4773C22.7579 33.4609 22.7736 33.4473 22.7916 33.4374C22.81 33.4284 22.8303 33.4237 22.8508 33.4237C22.8713 33.4237 22.8916 33.4284 22.91 33.4374C25.9114 34.6364 29.1377 35.1826 32.3707 35.0391C35.5453 34.8962 37.8392 34.2768 39.186 33.2065C39.7003 32.7924 39.7114 32.6018 39.6892 32.5395C39.667 32.4772 39.5486 32.3159 38.853 32.2573C38.4053 32.2169 37.9576 32.1693 37.5284 32.118C36.4093 31.9779 35.3024 31.7549 34.217 31.4509H34.1948C32.9446 31.1017 31.742 30.6033 30.6133 29.9665H30.5837C30.1189 29.6949 29.6716 29.395 29.2443 29.0685C28.7227 28.5584 28.2427 28.0081 27.8087 27.4229C26.8677 26.1526 26.1807 24.7156 25.7848 23.1896C23.2726 21.7235 20.2682 20.0925 16.8643 18.3845C16.0557 17.9426 15.153 17.6964 14.2299 17.6662ZM34.4834 31.2273C35.4558 31.4893 36.4446 31.6877 37.4433 31.8211C37.4951 31.5389 37.4433 31.0001 36.178 30.6079C35.8654 30.5508 35.543 30.5782 35.2448 30.6872C34.9466 30.7962 34.6836 30.9828 34.4834 31.2273ZM30.95 29.8126C31.9526 30.3593 33.012 30.7967 34.1097 31.1174C34.1072 31.0621 34.101 31.007 34.0912 30.9524C34.0498 30.6944 33.9479 30.4496 33.7937 30.2376C33.6395 30.0257 33.4372 29.8525 33.2032 29.7319C32.8568 29.5378 32.4628 29.4425 32.0651 29.4568C31.6673 29.471 31.2813 29.5942 30.95 29.8126ZM29.4404 28.8303C29.8104 29.1015 30.1804 29.3618 30.58 29.6037C30.6567 29.3084 30.6554 28.9986 30.5764 28.704C30.4973 28.4094 30.3431 28.1399 30.1286 27.9213C29.6698 27.4412 29.0186 27.2726 28.1787 27.4009C28.5652 27.907 28.9868 28.3858 29.4404 28.834V28.8303ZM26.1104 23.1969C26.487 24.5857 27.1137 25.8957 27.9604 27.0637C28.1668 26.7215 28.2999 26.3409 28.3514 25.9455C28.403 25.5502 28.3719 25.1486 28.2601 24.7656C28.1553 24.2886 27.8765 23.8666 27.4771 23.5805C27.0777 23.2944 26.5858 23.1644 26.0956 23.2153L26.1104 23.1969Z" fill="black"/>
<path d="M5.40191 10.2588C6.96328 11.158 8.40255 11.1226 9.71973 10.1526L9.33124 6.68164C7.06441 6.77449 5.75464 7.96689 5.40191 10.2588Z" fill="#66CE94"/>
<path d="M7.56637 11.0432C6.78013 11.0208 6.01401 10.7918 5.34641 10.3798C5.32202 10.3662 5.3023 10.3456 5.28977 10.3208C5.27725 10.296 5.27249 10.268 5.27611 10.2405C5.64611 7.88015 7.00398 6.63765 9.34604 6.54602C9.36616 6.54275 9.38676 6.54387 9.4064 6.54927C9.42605 6.55468 9.44427 6.56424 9.45981 6.57732C9.47535 6.59039 9.48781 6.60666 9.49637 6.62499C9.50493 6.64332 9.50938 6.66327 9.50938 6.68346C9.50938 6.70366 9.50493 6.72361 9.49637 6.74194C9.48781 6.76027 9.47535 6.77654 9.45981 6.78961C9.44427 6.80269 9.42605 6.81226 9.4064 6.81766C9.38676 6.82307 9.36616 6.82417 9.34604 6.82091C7.16308 6.90887 5.92361 8.01209 5.56101 10.1892C7.04099 11.0139 8.38776 10.9662 9.63094 10.0389C9.6609 10.0172 9.69835 10.008 9.73509 10.0135C9.77184 10.019 9.80489 10.0387 9.82703 10.0683C9.8384 10.0828 9.84669 10.0994 9.85137 10.1172C9.85605 10.135 9.85703 10.1535 9.85426 10.1717C9.85149 10.1898 9.84504 10.2073 9.83527 10.2229C9.8255 10.2385 9.81263 10.252 9.79744 10.2625C9.16007 10.7576 8.37627 11.0319 7.56637 11.0432Z" fill="black"/>
<path d="M21.3486 1.33772C21.1517 1.08709 20.888 0.895949 20.5873 0.785856C20.2866 0.675762 19.9608 0.651093 19.6467 0.714639C18.4799 2.26905 17.4559 3.92376 16.5868 5.65898L16.72 5.68829C16.9827 5.73594 17.2491 5.79459 17.5155 5.86789C17.7819 5.9412 18.1297 6.03283 18.422 6.13179L18.5959 6.19042H18.6366L19.6356 4.59973C20.0009 4.86672 20.4472 5.00246 20.9009 4.98458C21.0564 4.88405 21.1902 4.75384 21.2944 4.60156C21.3986 4.44927 21.4711 4.27795 21.5077 4.0976C21.5226 4.024 21.53 3.94911 21.5299 3.87403C21.1794 3.5846 20.7708 3.37222 20.3311 3.25095C20.7502 2.65814 21.0921 2.01532 21.3486 1.33772Z" fill="#FDF6A3"/>
<path d="M18.644 6.35536C18.6234 6.3608 18.6017 6.3608 18.5811 6.35536H18.5589C18.4997 6.33336 18.4405 6.31137 18.385 6.29671C18.0964 6.19775 17.7967 6.10979 17.4896 6.03649C17.1825 5.96318 16.9605 5.90454 16.7015 5.8569C16.659 5.84552 16.6157 5.83695 16.572 5.83124C16.55 5.82702 16.5292 5.81791 16.5113 5.80457C16.4933 5.79124 16.4787 5.77403 16.4684 5.75426C16.4592 5.73476 16.4544 5.7135 16.4544 5.69196C16.4544 5.67042 16.4592 5.64914 16.4684 5.62965C17.3419 3.87555 18.3721 2.20244 19.5468 0.630344C19.5582 0.61554 19.5727 0.603307 19.5893 0.594462C19.6059 0.585617 19.6242 0.580356 19.643 0.579026C19.9808 0.511641 20.3309 0.539073 20.6538 0.658229C20.9768 0.777384 21.2597 0.983523 21.4707 1.25342C21.485 1.27195 21.4945 1.29367 21.4984 1.31667C21.5022 1.33967 21.5004 1.36325 21.4929 1.38537C21.2585 2.02094 20.948 2.62635 20.5679 3.18863C20.9578 3.32067 21.3201 3.52188 21.6372 3.7824C21.6536 3.79492 21.6668 3.81103 21.6758 3.82948C21.6848 3.84793 21.6893 3.8682 21.689 3.88868C21.6879 3.97236 21.6792 4.05578 21.6631 4.13793C21.6238 4.33589 21.5446 4.52394 21.4301 4.69083C21.3157 4.85773 21.1684 5.00003 20.9971 5.1092C20.975 5.12635 20.9475 5.13542 20.9194 5.13485C20.4882 5.1475 20.0627 5.03542 19.6948 4.81232L18.7735 6.27839C18.7619 6.30239 18.7434 6.32248 18.7204 6.33616C18.6974 6.34985 18.6708 6.35652 18.644 6.35536ZM16.794 5.571C17.0419 5.61498 17.2972 5.6773 17.534 5.74693C17.8448 5.82024 18.1519 5.91187 18.4479 6.01083L18.5589 6.04748L19.4987 4.55208C19.5088 4.53583 19.5223 4.52188 19.5382 4.51114C19.5541 4.50041 19.5722 4.49313 19.5912 4.48978C19.6104 4.48658 19.6302 4.48719 19.6493 4.49159C19.6683 4.496 19.6863 4.50411 19.7021 4.51544C20.0292 4.75645 20.4267 4.88514 20.8343 4.88196C21.1031 4.7018 21.2892 4.42389 21.3523 4.1086C21.3562 4.06347 21.3562 4.01811 21.3523 3.97299C21.0236 3.71662 20.6461 3.5284 20.2423 3.41954C20.2204 3.41343 20.2003 3.40228 20.1836 3.38699C20.1669 3.3717 20.154 3.35272 20.1461 3.33158C20.1391 3.31083 20.1371 3.28874 20.1404 3.26709C20.1436 3.24544 20.1519 3.22484 20.1646 3.20697C20.5628 2.63863 20.8873 2.02293 21.1303 1.37438C20.9519 1.1662 20.7208 1.00867 20.4608 0.917872C20.2008 0.827078 19.9212 0.806277 19.6504 0.857583C18.5664 2.34127 17.6132 3.91454 16.8014 5.56001L16.794 5.571Z" fill="black"/>
<path d="M16.1687 0.590003C15.9622 0.397982 15.7105 0.26018 15.4365 0.189124C15.1625 0.118068 14.875 0.116021 14.6 0.183173C14.1181 0.820956 13.7249 1.51991 13.4308 2.26132L12.0766 2.33463C11.8054 2.65231 11.6724 3.06351 11.7066 3.47817C12.0572 3.64501 12.4315 3.75751 12.8166 3.8117L12.6501 4.17822C12.5021 4.54474 12.2505 5.15316 11.9101 6.05846H11.9545C12.6147 5.82158 13.2999 5.65928 13.9969 5.57465L14.2632 5.54899C14.4926 4.98455 14.822 4.2222 15.2511 3.26192C15.6407 2.40169 15.9479 1.50713 16.1687 0.590003Z" fill="#FDF6A3"/>
<path d="M11.9064 6.20878H11.8583C11.8235 6.19565 11.7953 6.16935 11.7801 6.13568C11.7648 6.102 11.7637 6.06369 11.7769 6.02918C12.121 5.12755 12.3726 4.49347 12.5169 4.14162C12.5465 4.06831 12.5798 3.99868 12.6131 3.92537C12.2747 3.8642 11.9461 3.75818 11.6363 3.61017C11.615 3.5993 11.597 3.58309 11.584 3.56315C11.571 3.54321 11.5635 3.52025 11.5623 3.49655C11.5431 3.27359 11.5685 3.04906 11.6371 2.83585C11.7057 2.62264 11.816 2.42493 11.9619 2.25405C11.9741 2.23914 11.9892 2.2269 12.0064 2.21807C12.0236 2.20924 12.0425 2.20402 12.0618 2.20274L13.3272 2.13676C13.6218 1.41449 14.0098 0.733183 14.4815 0.109917C14.4911 0.0953952 14.5036 0.0830087 14.5182 0.0735423C14.5329 0.064076 14.5494 0.0577402 14.5666 0.0549413C14.8627 -0.0148695 15.1716 -0.0112534 15.4659 0.0654666C15.7602 0.142187 16.0308 0.289645 16.2538 0.494768C16.2729 0.510484 16.2871 0.531162 16.295 0.554474C16.3028 0.577787 16.3039 0.602801 16.2982 0.626709C16.0751 1.55572 15.7629 2.46147 15.3658 3.33161C14.944 4.28823 14.6258 5.05425 14.3816 5.61503C14.3708 5.63828 14.3544 5.6585 14.3337 5.67386C14.313 5.68922 14.2888 5.69923 14.2632 5.70299C14.1744 5.70299 14.0894 5.70299 14.0043 5.72865C13.3175 5.8109 12.6424 5.96949 11.9915 6.20145H11.9397L11.9064 6.20878ZM11.8435 3.38659C12.1597 3.52874 12.4949 3.62502 12.8388 3.67247C12.8598 3.67635 12.8797 3.68482 12.897 3.69726C12.9144 3.7097 12.9287 3.72579 12.9389 3.74438C12.9492 3.76298 12.9552 3.7836 12.9564 3.80476C12.9576 3.82592 12.9541 3.84709 12.9461 3.86673L12.7796 4.23325C12.6464 4.54479 12.4318 5.08357 12.1395 5.84227C12.7411 5.64651 13.3607 5.51023 13.9894 5.43542L14.1744 5.41343C14.4038 4.85999 14.7257 4.11596 15.1327 3.21433C15.5095 2.38792 15.8092 1.52914 16.0281 0.648699C15.8467 0.495982 15.632 0.387047 15.4009 0.330445C15.1697 0.273843 14.9285 0.271124 14.6961 0.322504C14.2396 0.938713 13.8664 1.61149 13.5862 2.32369C13.5768 2.34859 13.5602 2.37022 13.5384 2.38586C13.5167 2.4015 13.4909 2.41046 13.4641 2.41165L12.1728 2.48129C11.9585 2.73504 11.8418 3.05576 11.8435 3.38659Z" fill="black"/>
<path d="M14.0376 4.98102L13.7712 5.01033C13.0743 5.09371 12.3892 5.25479 11.7288 5.49048L11.5919 5.53812C12.3842 5.26473 13.2043 5.07793 14.0376 4.98102ZM23.3355 9.51118L23.28 9.36824C22.54 7.67004 21.0674 6.43243 18.8623 5.65541H18.829H18.7846L18.6514 5.61143C18.3628 5.51247 18.0594 5.4245 17.7449 5.34753C17.4304 5.27057 17.2158 5.21559 16.9531 5.16794L16.8199 5.14229L16.6571 5.1203H16.6164C15.761 4.97723 14.8905 4.94396 14.0265 5.02133C13.1932 5.11824 12.3731 5.30506 11.5808 5.57844L11.5253 5.59676C10.9087 5.82536 10.3153 6.1113 9.75304 6.45076C7.28642 7.91683 6.05311 10.254 6.05311 13.4623C4.8198 14.5325 4.21423 15.9729 4.23643 17.7835C4.25123 19.2789 5.05535 20.5666 6.64879 21.6466C7.94377 22.4261 9.7444 22.8378 12.0507 22.8818C14.1709 22.982 16.295 22.7921 18.3628 22.3173C21.5546 24.1524 24.0681 24.4211 25.9032 23.1237C25.4209 21.4642 25.0891 19.7653 24.9117 18.0474C24.7859 16.5813 24.6268 15.202 24.4344 13.9094C24.2889 12.9508 24.0937 12.0003 23.8498 11.0616C23.712 10.5344 23.5402 10.0165 23.3355 9.51118Z" fill="#66CE94"/>
<path d="M26.5766 19.2203C26.4147 18.905 26.181 18.6313 25.894 18.4207C25.6069 18.2102 25.2745 18.0686 24.9228 18.0071C25.1002 19.7251 25.432 21.4239 25.9144 23.0834C26.9577 21.9765 27.1785 20.6888 26.5766 19.2203ZM23.8609 11.0213C24.1048 11.96 24.3 12.9106 24.4455 13.8691C25.3137 13.4073 25.6726 12.6095 25.5222 11.4758C25.4583 10.944 25.2033 10.4528 24.8038 10.092C24.4043 9.73129 23.887 9.5251 23.3466 9.51123C23.5497 10.0035 23.7214 10.5078 23.8609 11.0213ZM26.1511 15.6761C26.0229 14.5252 25.4543 13.9229 24.4455 13.8691C24.6379 15.1519 24.797 16.5313 24.9228 18.0071C25.8453 17.6699 26.251 16.8929 26.14 15.6761H26.1511Z" fill="#279295"/>
<path d="M25.9032 23.2153H25.87C25.8462 23.2096 25.8245 23.1978 25.8069 23.1811C25.7893 23.1643 25.7766 23.1432 25.7701 23.12C25.2871 21.4528 24.9528 19.7468 24.7711 18.0217C24.6453 16.5556 24.4862 15.1665 24.2975 13.8984C24.152 12.9434 23.9569 11.9965 23.7129 11.0615C23.5747 10.5545 23.4055 10.0563 23.206 9.56979L23.1505 9.43052C22.4327 7.78485 20.9749 6.56068 18.8216 5.79832H18.7883H18.7439C18.1177 5.56164 17.4677 5.39208 16.8051 5.29252L16.646 5.27053H16.5868C15.7483 5.13168 14.8954 5.09965 14.0487 5.17524C13.2266 5.27011 12.4176 5.45448 11.6363 5.72501H11.6067C10.9969 5.9514 10.4098 6.23361 9.85292 6.568C7.43316 8.00475 6.2085 10.3248 6.2122 13.4622C6.21211 13.4817 6.20776 13.501 6.19946 13.5187C6.19116 13.5364 6.1791 13.5522 6.1641 13.5648C4.96902 14.6021 4.37332 16.0205 4.39552 17.7835C4.39552 19.2239 5.19842 20.4847 6.74499 21.5293C8.01037 22.2916 9.80112 22.6985 12.0692 22.7424C14.1817 22.8429 16.2981 22.6554 18.3591 22.1853C18.3949 22.1764 18.4328 22.1818 18.4646 22.2003C18.4965 22.2188 18.5197 22.249 18.5293 22.2843C18.5383 22.3198 18.5329 22.3573 18.5142 22.3889C18.4955 22.4204 18.465 22.4434 18.4294 22.4529C16.3492 22.9289 14.2129 23.1201 12.0803 23.021C9.76043 22.977 7.92157 22.5519 6.60809 21.7639C4.97642 20.6643 4.14393 19.3228 4.12913 17.7835C4.10693 15.9509 4.71741 14.4848 5.94579 13.3852C5.94579 10.1745 7.22968 7.79585 9.72343 6.31511C10.2951 5.97339 10.897 5.68387 11.5216 5.45012H11.5845L11.7214 5.40248H11.7473C12.4971 5.15521 13.2709 4.9857 14.056 4.89668C14.92 4.82018 15.7902 4.8522 16.646 4.99198H16.7015L16.8569 5.01397C17.5382 5.11797 18.2066 5.29242 18.8512 5.53443L18.8956 5.55275H18.9215C21.1414 6.34443 22.6695 7.61991 23.4206 9.34255L23.4465 9.41219C24.6638 9.55146 25.4074 10.2442 25.6664 11.4757C25.8033 12.5129 25.5296 13.3083 24.8488 13.8031C25.685 13.9827 26.1733 14.6131 26.2954 15.6796C26.4175 16.7462 26.0734 17.5709 25.3335 17.9924C25.9265 18.1975 26.4177 18.6198 26.7061 19.1726C27.3277 20.6899 27.0761 22.0387 26.0179 23.1786C26.0031 23.1932 25.985 23.2041 25.965 23.2105C25.9451 23.2169 25.9239 23.2185 25.9032 23.2153ZM25.0708 18.183C25.2439 19.7427 25.5445 21.2859 25.9698 22.7974C26.8319 21.7712 26.9873 20.6166 26.4397 19.2752C26.3011 19.009 26.1077 18.7745 25.8719 18.587C25.6361 18.3995 25.3631 18.2631 25.0708 18.1866V18.183ZM24.6009 14.0193C24.7711 15.1958 24.9154 16.464 25.0338 17.8018C25.7738 17.4573 26.0993 16.7645 26.0031 15.6833C25.8848 14.6791 25.4259 14.1293 24.6009 14.023V14.0193ZM23.5538 9.67241C23.7092 10.0707 23.8535 10.5069 23.9867 10.9809C24.205 11.8202 24.3937 12.7145 24.5417 13.6455C25.2336 13.1983 25.5074 12.4946 25.3742 11.494C25.1559 10.4348 24.5602 9.83735 23.5538 9.67608V9.67241Z" fill="black"/>
<path d="M21.4596 7.33398L20.3829 10.9442C21.7815 11.7945 23.2183 11.7053 24.6934 10.6766C24.2222 8.55082 23.1443 7.43661 21.4596 7.33398Z" fill="#66CE94"/>
<path d="M22.3032 11.659C21.595 11.6495 20.9038 11.4425 20.3089 11.0615C20.291 11.0532 20.275 11.0411 20.2621 11.0261C20.2492 11.0112 20.2396 10.9937 20.234 10.9748C20.2284 10.956 20.2269 10.9361 20.2296 10.9166C20.2323 10.8971 20.2392 10.8784 20.2497 10.8618C20.2602 10.8451 20.2742 10.8308 20.2907 10.8198C20.3072 10.8089 20.3259 10.8015 20.3454 10.7983C20.365 10.795 20.3851 10.7958 20.4043 10.8008C20.4235 10.8057 20.4415 10.8147 20.4569 10.827C21.7889 11.637 23.1283 11.56 24.5269 10.6144C24.057 8.59854 23.0469 7.56862 21.4411 7.47333C21.4042 7.47052 21.3697 7.45373 21.3449 7.42643C21.3201 7.39913 21.3069 7.36343 21.3079 7.32672C21.3089 7.30843 21.3135 7.29049 21.3214 7.27395C21.3294 7.25741 21.3405 7.24259 21.3543 7.23033C21.368 7.21807 21.3841 7.20862 21.4015 7.20252C21.419 7.19642 21.4374 7.19379 21.4559 7.19478C23.206 7.30107 24.3382 8.46293 24.8192 10.6474C24.8261 10.674 24.8244 10.702 24.8145 10.7276C24.8045 10.7533 24.7868 10.7752 24.7637 10.7903C24.0546 11.3263 23.1946 11.6299 22.3032 11.659Z" fill="black"/>
<path d="M16.4462 14.7047C16.4231 14.7101 16.399 14.7101 16.3759 14.7047C15.9078 14.4219 15.3611 14.2935 14.8146 14.3382C14.7773 14.3425 14.7397 14.3321 14.7102 14.309C14.6808 14.286 14.6617 14.2523 14.6573 14.2154C14.6529 14.1785 14.6635 14.1413 14.6867 14.1121C14.71 14.0829 14.744 14.064 14.7812 14.0596C14.9705 14.0376 15.1617 14.0376 15.351 14.0596C15.1697 14.0011 14.9823 13.963 14.7924 13.946C14.7583 13.9424 14.7267 13.9267 14.7036 13.9017C14.6804 13.8768 14.6673 13.8443 14.6665 13.8104C14.6644 13.7771 14.675 13.7443 14.6962 13.7184C14.7175 13.6926 14.7479 13.6757 14.7812 13.6711C15.1087 13.6078 15.4458 13.6126 15.7713 13.6852C16.0967 13.7577 16.4034 13.8965 16.6719 14.0926C16.7023 14.1145 16.7227 14.1474 16.7286 14.1842C16.7345 14.221 16.7254 14.2586 16.7034 14.2887C16.6813 14.3188 16.648 14.339 16.6109 14.3449C16.5738 14.3507 16.5358 14.3417 16.5054 14.3199C16.34 14.1966 16.1566 14.099 15.9615 14.0303C16.1748 14.1511 16.3702 14.3003 16.5424 14.4738C16.5648 14.4992 16.5771 14.5317 16.5771 14.5654C16.5771 14.5991 16.5648 14.6317 16.5424 14.657C16.5175 14.6843 16.4832 14.7013 16.4462 14.7047ZM9.95284 14.1952C9.93223 14.2007 9.91055 14.2007 9.88994 14.1952C9.36622 14.0141 8.7986 13.9987 8.26567 14.1512C8.23246 14.1575 8.19809 14.1516 8.16888 14.1348C8.13966 14.118 8.11755 14.0913 8.10657 14.0596C8.09613 14.0274 8.09788 13.9925 8.11149 13.9615C8.12511 13.9305 8.14967 13.9054 8.18057 13.891C8.53448 13.7328 8.90757 13.6207 9.29056 13.5575C8.95145 13.5477 8.61326 13.5974 8.29157 13.7041C8.27436 13.7103 8.25603 13.713 8.23773 13.7119C8.21944 13.7108 8.20157 13.7059 8.18525 13.6977C8.16893 13.6894 8.15449 13.6779 8.14286 13.6639C8.13123 13.6499 8.12265 13.6336 8.11766 13.6161C8.1071 13.5807 8.11084 13.5425 8.12809 13.5097C8.14534 13.4769 8.17476 13.452 8.21016 13.4402C8.51327 13.3235 8.83667 13.2674 9.16177 13.2749C9.48687 13.2825 9.80726 13.3536 10.1045 13.4842C10.1316 13.4979 10.1535 13.52 10.1668 13.5471C10.1802 13.5742 10.1843 13.6048 10.1785 13.6345C10.1715 13.664 10.1552 13.6907 10.1319 13.7104C10.1087 13.7302 10.0796 13.7421 10.049 13.7444C9.86034 13.7444 9.67903 13.7774 9.50514 13.8031C9.67705 13.8242 9.84445 13.8724 10.0009 13.946C10.0178 13.9538 10.0329 13.9649 10.0454 13.9786C10.0578 13.9923 10.0675 14.0083 10.0737 14.0257C10.0799 14.0431 10.0825 14.0615 10.0815 14.0799C10.0804 14.0983 10.0757 14.1163 10.0675 14.1329C10.0547 14.1515 10.0376 14.1669 10.0177 14.1777C9.99778 14.1885 9.97556 14.1945 9.95284 14.1952ZM16.9827 12.0841C16.9621 12.0841 16.9417 12.0795 16.9231 12.0706C16.9046 12.0617 16.8882 12.0488 16.8754 12.0328C16.4055 11.4647 15.7654 11.2814 14.9255 11.4683C14.8907 11.4727 14.8554 11.464 14.8267 11.4438C14.798 11.4237 14.778 11.3936 14.7705 11.3596C14.7631 11.3255 14.7688 11.29 14.7866 11.2599C14.8043 11.2298 14.8327 11.2074 14.8663 11.1971C15.2607 11.0764 15.6824 11.0747 16.0777 11.1922C16.4731 11.3097 16.8241 11.541 17.0863 11.8569C17.103 11.8772 17.1136 11.9017 17.1169 11.9277C17.1201 11.9537 17.1159 11.9801 17.1047 12.0038C17.0935 12.0276 17.0757 12.0477 17.0535 12.0619C17.0313 12.0761 17.0055 12.0838 16.979 12.0841H16.9827ZM8.32856 11.406C8.30699 11.4062 8.2857 11.4013 8.26641 11.3917C8.24712 11.3822 8.23039 11.3682 8.21757 11.3511C8.19558 11.3214 8.18634 11.2843 8.19189 11.2479C8.19744 11.2115 8.21732 11.1787 8.24717 11.1568C8.55192 10.9035 8.92628 10.7465 9.32197 10.706C9.71766 10.6655 10.1165 10.7434 10.4671 10.9296C10.4837 10.9377 10.4984 10.9491 10.5105 10.9629C10.5226 10.9767 10.5318 10.9927 10.5377 11.0101C10.5435 11.0275 10.5458 11.0458 10.5445 11.0641C10.5432 11.0823 10.5383 11.1001 10.53 11.1165C10.5218 11.1329 10.5104 11.1475 10.4963 11.1594C10.4823 11.1713 10.466 11.1802 10.4483 11.1857C10.4307 11.1912 10.4121 11.1931 10.3937 11.1913C10.3753 11.1894 10.3575 11.1839 10.3413 11.1751C10.0348 11.0084 9.68422 10.9383 9.33642 10.9744C8.98863 11.0104 8.66022 11.1508 8.39515 11.3767C8.37684 11.3913 8.35528 11.4013 8.33226 11.406H8.32856Z" fill="black"/>
<path d="M14.2706 20.2502C14.3631 20.5909 14.5741 20.8881 14.8663 21.0896C15.0229 21.0324 15.1649 20.9416 15.2819 20.8238C15.399 20.7059 15.4883 20.5639 15.5434 20.4078H15.3732C15.0328 20.4297 14.6913 20.3874 14.3668 20.2832L14.2706 20.2502Z" fill="white"/>
<path d="M14.8663 21.2286C14.8468 21.2324 14.8267 21.2324 14.8071 21.2286C14.4968 21.0231 14.268 20.7175 14.1597 20.3636L14.119 20.3453L13.9562 20.283C12.5988 19.4948 11.0059 19.2018 9.45332 19.4546C9.14227 19.5086 8.82859 19.5466 8.51355 19.5683C7.49237 19.6416 6.80049 19.4363 6.46379 18.9525C6.4531 18.9376 6.44546 18.9207 6.44135 18.9029C6.43723 18.8851 6.43672 18.8666 6.43981 18.8486C6.4429 18.8305 6.44954 18.8133 6.45937 18.7978C6.4692 18.7823 6.48201 18.7688 6.49708 18.7583C6.52824 18.7382 6.56603 18.7308 6.60256 18.7376C6.6391 18.7444 6.67156 18.765 6.69319 18.7949C6.97068 19.1907 7.57747 19.3593 8.49505 19.2934C8.79907 19.2718 9.10168 19.2338 9.40154 19.1797C11.0145 18.9167 12.6695 19.2187 14.0819 20.0337L14.2262 20.0887L14.3262 20.1327L14.426 20.173C14.7284 20.2736 15.0474 20.3159 15.3658 20.2976H15.5212L15.6285 20.2756C16.038 20.1842 16.4189 19.9955 16.7385 19.7259C16.7513 19.7129 16.7665 19.7026 16.7833 19.6956C16.8002 19.6885 16.8183 19.6849 16.8365 19.6849C16.8548 19.6849 16.8729 19.6885 16.8898 19.6956C16.9066 19.7026 16.9218 19.7129 16.9346 19.7259C16.9601 19.7519 16.9744 19.7867 16.9744 19.823C16.9744 19.8593 16.9601 19.8941 16.9346 19.9201C16.584 20.2188 16.1647 20.4277 15.7136 20.5285H15.6766C15.6066 20.6873 15.5049 20.8305 15.3778 20.9495C15.2507 21.0685 15.1006 21.1609 14.9366 21.2213L14.8663 21.2286ZM14.5259 20.4955C14.603 20.6727 14.7224 20.8287 14.8737 20.95C15.0527 20.8734 15.2047 20.7458 15.3103 20.5835C15.0452 20.5871 14.781 20.5525 14.5259 20.4809V20.4955Z" fill="black"/>
<path d="M12.6575 16.7425C12.6634 16.7222 12.6634 16.7006 12.6575 16.6802C12.6648 16.6428 12.6643 16.6043 12.6561 16.5672C12.6478 16.53 12.6319 16.4948 12.6094 16.464C12.5529 16.405 12.4766 16.3685 12.3948 16.3613C12.3145 16.3556 12.2351 16.3805 12.1728 16.431C12.1425 16.455 12.1177 16.485 12.0998 16.5191C12.082 16.5532 12.0715 16.5906 12.0692 16.6289C12.0654 16.6433 12.0654 16.6585 12.0692 16.6729C12.0651 16.691 12.0651 16.7098 12.0692 16.7279C12.0774 16.7732 12.0965 16.8159 12.1247 16.8525C12.1511 16.8821 12.1836 16.9059 12.2199 16.9223C12.2563 16.9387 12.2957 16.9474 12.3356 16.9478C12.3758 16.9555 12.4173 16.9536 12.4566 16.9421C12.4959 16.9306 12.5318 16.9099 12.5613 16.8818C12.6007 16.8471 12.6279 16.8009 12.639 16.7498L12.6575 16.7425ZM10.3376 16.7498C10.3701 16.7695 10.407 16.7808 10.4449 16.7828C10.497 16.7897 10.5499 16.7808 10.5966 16.7572C10.624 16.7445 10.6481 16.7257 10.6669 16.7022C10.6988 16.6815 10.725 16.6532 10.7431 16.6199C10.7612 16.5866 10.7706 16.5494 10.7705 16.5116C10.777 16.4332 10.7547 16.3551 10.7076 16.2917C10.6514 16.2364 10.5788 16.2004 10.5004 16.1891C10.46 16.1842 10.419 16.1879 10.3801 16.2C10.3412 16.212 10.3053 16.232 10.2747 16.2587C10.2104 16.3108 10.1693 16.3858 10.16 16.4676C10.1595 16.5421 10.1872 16.6141 10.2377 16.6692C10.2469 16.6746 10.2545 16.6821 10.2599 16.6912C10.2858 16.7166 10.3198 16.7321 10.3561 16.7352L10.3376 16.7498Z" fill="black"/>
<path d="M22.3624 18.084C21.6557 18.084 20.9564 17.6955 20.2756 16.9148C19.347 15.8446 18.3406 15.6283 17.201 16.2477C17.1852 16.2568 17.1678 16.2627 17.1498 16.2651C17.1317 16.2674 17.1133 16.2662 17.0958 16.2614C17.0782 16.2566 17.0618 16.2484 17.0474 16.2372C17.0331 16.2261 17.0212 16.2122 17.0123 16.1964C16.9949 16.1637 16.9909 16.1256 17.0012 16.09C17.0116 16.0545 17.0354 16.0243 17.0678 16.0058C18.3221 15.3204 19.4728 15.566 20.4865 16.7389C21.4189 17.8091 22.3365 18.0767 23.2874 17.5635C23.3031 17.5544 23.3206 17.5485 23.3386 17.5462C23.3567 17.5439 23.375 17.5451 23.3926 17.5499C23.4102 17.5547 23.4266 17.5629 23.441 17.574C23.4553 17.5852 23.4672 17.5991 23.4761 17.6149C23.4935 17.6476 23.4975 17.6857 23.4872 17.7212C23.4768 17.7568 23.4529 17.787 23.4206 17.8054C23.0969 17.9844 22.7331 18.0801 22.3624 18.084ZM0.973079 17.2996C0.776579 17.3082 0.581754 17.2606 0.411833 17.1625C0.241912 17.0643 0.104087 16.9198 0.0148081 16.7462C0.0058982 16.7302 0.000340276 16.7125 -0.00149654 16.6943C-0.00333337 16.6761 -0.00142744 16.6577 0.00410394 16.6402C0.00963532 16.6228 0.0186954 16.6066 0.0307063 16.5927C0.0427171 16.5788 0.0574366 16.5674 0.0739971 16.5593C0.106461 16.5422 0.144389 16.5384 0.179661 16.5486C0.214933 16.5589 0.244746 16.5825 0.262697 16.6143C0.358083 16.783 0.511009 16.9125 0.694071 16.9797C0.877132 17.0469 1.07836 17.0472 1.26168 16.9808C1.92949 16.8129 2.52969 16.4472 2.98214 15.9325C3.92932 14.9759 4.98751 14.866 6.13079 15.6063C6.14615 15.6166 6.15929 15.6299 6.16947 15.6452C6.17966 15.6606 6.18668 15.6778 6.19011 15.6958C6.19355 15.7139 6.19336 15.7324 6.18953 15.7504C6.1857 15.7684 6.17832 15.7854 6.1678 15.8006C6.15775 15.8157 6.14473 15.8286 6.12955 15.8387C6.11437 15.8487 6.09732 15.8556 6.07939 15.8591C6.06146 15.8625 6.04303 15.8623 6.02517 15.8586C6.00731 15.8548 5.99039 15.8476 5.9754 15.8372C4.94682 15.1702 4.03294 15.2655 3.18195 16.1268C2.68868 16.6834 2.03543 17.0773 1.30979 17.2557C1.19935 17.2828 1.08664 17.3 0.973079 17.307V17.2996Z" fill="black"/>
<path d="M18.3036 27.4486C18.6987 26.9125 18.9748 26.2996 19.1138 25.6502C19.2528 25.0008 19.2516 24.3297 19.1102 23.6808C17.6623 23.4511 16.6164 23.0101 15.9726 22.3577C15.3252 21.7016 14.5963 21.6247 13.786 22.1671C12.9757 22.7096 12.8277 23.6112 13.3531 24.9123C14.1079 26.2978 15.758 27.1432 18.3036 27.4486Z" fill="#66CE94"/>
<path d="M18.3036 27.5878C15.7136 27.2763 14.0227 26.4003 13.2457 24.9782C12.6945 23.6111 12.8758 22.6325 13.7305 22.0681C14.5851 21.5036 15.3954 21.5659 16.0947 22.2733C16.7163 22.9037 17.7449 23.3326 19.1546 23.5561C19.1909 23.5633 19.2231 23.584 19.2445 23.614C19.2658 23.644 19.2747 23.6811 19.2693 23.7174C19.2629 23.7531 19.2427 23.785 19.213 23.8062C19.1833 23.8275 19.1464 23.8363 19.1102 23.831C17.6302 23.5964 16.5609 23.1383 15.8949 22.4676C15.2955 21.8591 14.6369 21.8042 13.8859 22.299C13.1348 22.7938 13.0053 23.6294 13.5159 24.8646C14.2558 26.1987 15.8764 27.0271 18.3554 27.3239C18.3738 27.3257 18.3916 27.3312 18.4077 27.34C18.4239 27.3488 18.4382 27.3607 18.4496 27.3751C18.461 27.3895 18.4693 27.406 18.4741 27.4237C18.4789 27.4413 18.48 27.4598 18.4775 27.4779C18.4746 27.497 18.4676 27.5153 18.4569 27.5316C18.4463 27.5478 18.4322 27.5616 18.4157 27.572C18.3993 27.5824 18.3807 27.5892 18.3614 27.592C18.342 27.5947 18.3223 27.5933 18.3036 27.5878Z" fill="black"/>
<path d="M6.80788 23.0942L6.65988 24.2817C6.80787 24.8315 6.60067 25.3812 6.03088 25.9237C6.34168 26.3928 6.88189 26.6347 7.64407 26.6567C8.31167 26.6282 8.96207 26.4382 9.53844 26.1033C10.122 25.7838 10.5902 25.2918 10.8778 24.6959C11.3415 23.4937 11.1948 22.6568 10.4375 22.1852C10.1779 22.0169 9.88317 21.9091 9.57543 21.87C9.00317 21.7918 8.37543 22.1009 7.69217 22.7973C7.57267 22.9034 7.4327 22.9844 7.28072 23.0354C7.12873 23.0864 6.96788 23.1064 6.80788 23.0942Z" fill="#66CE94"/>
<path d="M7.64778 26.7813C6.83379 26.7813 6.2529 26.5064 5.91251 25.997C5.90255 25.9816 5.89573 25.9644 5.89248 25.9464C5.88923 25.9284 5.88959 25.9099 5.89354 25.892C5.89749 25.8742 5.90496 25.8572 5.91551 25.8422C5.92607 25.8272 5.93951 25.8144 5.95506 25.8045C5.9706 25.7947 5.98796 25.7879 6.00614 25.7847C6.02431 25.7815 6.04295 25.7819 6.06099 25.7858C6.07903 25.7897 6.09611 25.7971 6.11126 25.8075C6.12641 25.818 6.13933 25.8313 6.14929 25.8467C6.43418 26.2792 6.92627 26.4954 7.62926 26.5064C8.27307 26.4761 8.90003 26.2926 9.45703 25.9713C10.0134 25.6671 10.4598 25.198 10.7335 24.6299C11.1701 23.49 11.0443 22.7276 10.3635 22.2915C10.1212 22.1353 9.84703 22.0339 9.56064 21.9946C9.03155 21.925 8.45065 22.2255 7.79206 22.8852C7.66099 23.0061 7.50648 23.0992 7.33792 23.1591C7.16937 23.219 6.99031 23.2442 6.81159 23.2334C6.77495 23.2325 6.74013 23.2174 6.71455 23.1914C6.68898 23.1653 6.67468 23.1305 6.6747 23.0942C6.6742 23.076 6.67736 23.058 6.68402 23.0411C6.69068 23.0242 6.70069 23.0089 6.71345 22.9959C6.72621 22.9829 6.74146 22.9726 6.75832 22.9655C6.77517 22.9585 6.7933 22.9549 6.81159 22.9549C6.9535 22.965 7.09601 22.9468 7.23072 22.9015C7.36544 22.8562 7.48964 22.7846 7.59598 22.691C8.30636 21.9579 8.97974 21.6391 9.59763 21.7197C9.92462 21.7646 10.2378 21.8797 10.5152 22.0569C11.3292 22.5664 11.4994 23.468 11.0147 24.7361C10.7144 25.3563 10.227 25.8686 9.61983 26.2022C9.02066 26.5532 8.34325 26.7522 7.64778 26.7813Z" fill="black"/>
</g>
<defs>
<clipPath id="clip0_101:149">
<rect width="40" height="37" fill="white"/>
</clipPath>
</defs>
</svg>
