<svg width="39" height="37" viewBox="0 0 39 37" fill="none" xmlns="http://www.w3.org/2000/svg">
<g clip-path="url(#clip0_101:190)">
<path d="M0.401418 12.6137C0.524724 12.7233 0.683057 12.7863 0.848598 12.7917C0.936694 12.7804 1.02167 12.7519 1.09861 12.7079C1.38734 12.2427 1.26175 11.8635 0.721842 11.5704C0.642579 11.5685 0.563806 11.5834 0.490811 11.614C0.417817 11.6447 0.352287 11.6905 0.298604 11.7483C0.244922 11.8061 0.204331 11.8747 0.179553 11.9493C0.154776 12.0239 0.14638 12.1029 0.154935 12.1811C0.158134 12.2674 0.182187 12.3518 0.225072 12.4271C0.267957 12.5024 0.32843 12.5664 0.401418 12.6137ZM3.92255 11.396C3.78035 11.3247 3.62407 11.2854 3.4648 11.2808C3.37297 11.28 3.28219 11.3004 3.19969 11.3404C3.11718 11.3803 3.0452 11.4388 2.98945 11.5111C2.87214 11.6497 2.80958 11.8258 2.81339 12.0066C2.81156 12.1003 2.83468 12.1929 2.88042 12.275C2.92616 12.3571 2.99291 12.4258 3.07395 12.4742C3.23751 12.5711 3.42571 12.6195 3.61621 12.6137C3.6964 12.6116 3.77537 12.5938 3.8486 12.5614L4.0986 12.4393C3.96695 12.3023 3.87981 12.1293 3.84842 11.9427C3.81704 11.756 3.84285 11.5644 3.92255 11.3925V11.396ZM4.36621 8.25216C4.26623 8.20446 4.15927 8.17266 4.0493 8.15795C3.87269 8.15113 3.70053 8.21386 3.57043 8.33241C3.51379 8.38289 3.46875 8.44485 3.43838 8.51408C3.408 8.58331 3.393 8.6582 3.39438 8.73368C3.39265 8.92548 3.46583 9.11051 3.5986 9.25008C3.67163 9.33709 3.77068 9.39886 3.88143 9.42645C3.99219 9.45405 4.10892 9.44605 4.21479 9.40361C4.39056 9.31858 4.53842 9.18594 4.64124 9.02106C4.74407 8.85618 4.79766 8.6658 4.79579 8.47199C4.65995 8.38539 4.51611 8.31179 4.36621 8.25216ZM1.1972 8.77903C1.64438 8.72321 1.81339 8.44756 1.70071 7.95558C1.63276 7.81561 1.51665 7.70426 1.37325 7.64155C1.29042 7.60729 1.2023 7.58723 1.11268 7.58222C0.957934 7.58127 0.808902 7.6401 0.697192 7.74622C0.641327 7.79247 0.596084 7.85002 0.564505 7.91502C0.532925 7.98001 0.515743 8.05095 0.514097 8.12306C0.514097 8.47199 0.742971 8.68831 1.1972 8.77903ZM2.25353 3.60099H2.12325C1.99981 3.59543 1.87742 3.62575 1.77114 3.68822C1.71143 3.72433 1.66282 3.77592 1.63055 3.83741C1.59828 3.89891 1.58357 3.96797 1.58804 4.03715C1.59957 4.18922 1.66876 4.33134 1.7817 4.43493C1.82878 4.49934 1.89395 4.54858 1.9691 4.57651C2.04424 4.60443 2.12603 4.60979 2.20423 4.59194C2.61268 4.43143 2.69015 4.12787 2.44367 3.68474C2.3807 3.65538 2.31604 3.62975 2.25001 3.60797L2.25353 3.60099ZM5.25353 6.32959C5.72536 6.29818 5.92958 6.00159 5.87677 5.43285C5.80772 5.33433 5.7177 5.25203 5.61306 5.19175C5.50841 5.13146 5.39169 5.09464 5.27113 5.08392C5.19698 5.08548 5.1239 5.10173 5.05618 5.13169C4.98845 5.16165 4.92745 5.20472 4.87677 5.25838C4.82361 5.3057 4.78063 5.36315 4.75038 5.4273C4.72013 5.49144 4.70324 5.56097 4.70071 5.63174C4.70071 5.84807 4.88381 6.08185 5.25353 6.32959ZM10.2254 13.8908C10.1026 13.8878 9.98125 13.9167 9.87325 13.9745C9.82644 14.0005 9.78764 14.0385 9.76097 14.0846C9.7343 14.1307 9.72077 14.1831 9.72184 14.2362C9.72683 14.2995 9.74913 14.3602 9.78636 14.4119C9.82359 14.4635 9.87433 14.5041 9.93311 14.5293C10.0127 14.575 10.0979 14.6102 10.1866 14.634C10.2896 14.4248 10.3539 14.1992 10.3768 13.9676V13.8978H10.2289L10.2254 13.8908ZM16.6831 14.2293C16.5608 14.2264 16.4398 14.254 16.331 14.3095C16.2842 14.3363 16.2454 14.375 16.2188 14.4216C16.1922 14.4683 16.1786 14.5211 16.1796 14.5747C16.1852 14.6373 16.2078 14.6973 16.245 14.7483C16.2822 14.7993 16.3326 14.8394 16.3909 14.8643C16.4699 14.9135 16.5568 14.9489 16.6479 14.969C16.748 14.7602 16.8112 14.536 16.8345 14.306V14.2327H16.6866L16.6831 14.2293ZM14.2852 20.1156L14.9296 20.9461L15.6585 20.2761C15.2453 20.286 14.8325 20.245 14.4296 20.154C14.3817 20.1364 14.3357 20.1142 14.2923 20.0877L14.2852 20.1156Z" fill="white"/>
<path d="M30.5035 27.6944C29.7324 27.1326 29.0246 27.1117 28.3908 27.6351C29.0982 28.5055 29.9823 29.2188 30.9859 29.7286C31.4554 28.9447 31.3005 28.2701 30.5211 27.7049L30.5035 27.6944ZM27.7535 26.7663C27.9196 27.0337 28.1031 27.2901 28.3028 27.5339C28.5216 27.1691 28.6551 26.7603 28.6935 26.3376C28.7318 25.9149 28.6742 25.4891 28.5246 25.0914C28.2265 24.1982 27.5223 23.719 26.412 23.6539C26.6938 24.761 27.1425 25.8197 27.743 26.7942L27.7535 26.7663ZM25.9613 21.4835C26.0515 22.1201 26.1761 22.7514 26.3345 23.3747C26.7169 23.021 26.9998 22.5747 27.1554 22.0797C27.3109 21.5848 27.3338 21.0583 27.2218 20.5519C26.9871 19.5098 26.419 18.8806 25.5176 18.6642C25.6937 19.7319 25.8416 20.6717 25.9613 21.4835ZM26.2711 17.3418C26.4447 16.8907 26.5004 16.4034 26.4331 15.9252C26.3964 15.4549 26.1873 15.0143 25.8451 14.6865C25.5335 14.3885 25.1285 14.205 24.6972 14.1666C24.8592 14.9226 25.1009 16.2392 25.4225 18.1164C25.6189 18.0698 25.8 17.9742 25.9486 17.8386C26.0971 17.703 26.2081 17.532 26.2711 17.3418ZM23.7148 10.4959C23.8275 10.8029 23.9366 11.1274 24.0352 11.4659C24.2535 12.2312 24.4718 13.1186 24.6901 14.1282C25.493 13.7479 25.8063 13.0814 25.6338 12.1219C25.4108 10.9006 24.7711 10.3587 23.7148 10.4959ZM34.1338 30.9813C34.0317 30.0845 33.6444 29.5332 32.9754 29.3344C32.6579 29.2298 32.3165 29.2193 31.9932 29.3042C31.6698 29.3891 31.3785 29.5657 31.1549 29.8124C32.1149 30.28 33.111 30.6709 34.1338 30.9813ZM34.324 31.0406C35.2145 31.2997 36.1214 31.5002 37.0387 31.6408C37.1021 30.908 36.6984 30.437 35.8275 30.2276C35.1303 30.0601 34.6291 30.3311 34.324 31.0406Z" fill="#1F969A"/>
<path d="M13.3099 24.8017C11.1972 24.7412 10.1268 26.1718 10.0986 29.0935C10.0581 30.6164 10.4523 32.1198 11.2359 33.4306C11.4914 33.5628 11.7548 33.6793 12.0247 33.7795C13.5082 34.3378 15.4448 34.4867 17.8345 34.2261C18.2627 33.2086 18.4588 32.1099 18.4089 31.0085C18.359 29.9071 18.0643 28.8302 17.5458 27.8548C16.4894 25.7403 15.081 24.7203 13.3204 24.7947L13.3099 24.8017ZM11.6303 29.6099C13.1865 30.1195 14.8517 30.2086 16.4542 29.8681C14.8517 30.2086 13.1865 30.1195 11.6303 29.6099ZM11.507 27.4919C12.9944 27.8275 14.5302 27.8973 16.0423 27.6978C14.5302 27.8973 12.9944 27.8275 11.507 27.4919ZM11.9789 31.7243C13.4048 32.3598 15.0122 32.4724 16.5141 32.0419C15.0122 32.4724 13.4048 32.3598 11.9789 31.7243ZM15.75 0.670027C15.6875 0.544682 15.5978 0.434615 15.4873 0.347755C15.3768 0.260895 15.2482 0.199404 15.1108 0.167702C14.9734 0.136001 14.8306 0.13488 14.6927 0.164423C14.5548 0.193965 14.4253 0.25344 14.3134 0.338555L13.6796 2.08318C13.2321 2.01038 12.7743 2.02937 12.3345 2.139C12.0106 2.48792 11.9261 2.76357 12.0775 3.00084C12.3971 3.24818 12.7635 3.42969 13.1549 3.5347L12.3627 5.7085C12.5634 5.64221 12.7782 5.5829 13 5.52707C13.4218 5.41901 13.8515 5.34433 14.2852 5.30375L15.75 0.677002V0.670027ZM21.4859 1.07478C21.306 0.861415 21.0642 0.708113 20.7933 0.635697C20.5224 0.563281 20.2356 0.575264 19.9718 0.670027C18.8784 2.16888 17.9417 3.77406 17.1761 5.46077C17.8664 5.58341 18.545 5.76435 19.2042 6.0016L20.0387 4.20813L21.5 4.48377C21.7392 4.26003 21.8976 3.96456 21.9507 3.64286C21.5632 3.31421 21.1405 3.02872 20.6901 2.7915L21.4859 1.07478Z" fill="#FEF5AA"/>
<path d="M8.54225 5.81648C8.57854 6.41141 8.76894 6.98704 9.09507 7.48784C10.004 6.68468 11.0798 6.08911 12.2465 5.74321C12.0255 5.37848 11.7722 5.034 11.4894 4.71388C11.1851 4.42203 10.8179 4.2025 10.4155 4.07186C10.0371 3.90196 9.61302 3.85908 9.20775 3.94973C8.73827 4.33355 8.51643 4.95114 8.54225 5.80252V5.81648ZM36.4155 34.0166C38.9977 32.6884 39.5153 31.93 37.9683 31.7416C37.6549 31.7102 37.3486 31.6718 37.0387 31.6265C36.1214 31.4859 35.2145 31.2854 34.324 31.0263L34.1338 30.967C33.111 30.6566 32.1149 30.2658 31.1549 29.7981L31.0458 29.7423L30.9683 29.7039C29.9647 29.1941 29.0806 28.4808 28.3732 27.6103L28.2852 27.4987C28.0855 27.2549 27.902 26.9985 27.7359 26.731C27.1354 25.7565 26.6867 24.6979 26.4049 23.5907C26.3738 23.4945 26.3479 23.3966 26.3275 23.2976C26.169 22.6743 26.0444 22.043 25.9542 21.4064C25.8345 20.5923 25.6866 19.6525 25.5106 18.5871C25.4824 18.4092 25.4507 18.2382 25.4155 18.0393C25.0939 16.1621 24.8521 14.8455 24.6901 14.0895C24.4718 13.0776 24.2535 12.1902 24.0352 11.4272C23.9366 11.0783 23.8275 10.7642 23.7148 10.4572C23.6655 10.3281 23.6162 10.199 23.5634 10.0769C23.4155 10.192 23.2606 10.3002 23.1056 10.4048C23.2606 10.3002 23.4155 10.192 23.5634 10.0769C24.17 9.61944 24.7092 9.08039 25.1655 8.47529C25.4357 7.86838 25.519 7.1959 25.4049 6.54225C24.9126 6.13362 24.2821 5.92535 23.6408 5.95954C22.722 6.0934 21.8341 6.3863 21.0176 6.82488L20.7394 6.98538L21.0176 6.82488H20.993C20.4294 6.50681 19.8406 6.23491 19.2324 6.01188C18.5731 5.77462 17.8946 5.59369 17.2042 5.47105L16.8521 5.41522C16.0075 5.2873 15.1504 5.26035 14.2993 5.33496C13.8656 5.37554 13.4358 5.45022 13.0141 5.55828C12.7923 5.61411 12.5775 5.67342 12.3768 5.73972L12.2711 5.77461C11.1044 6.12051 10.0286 6.71608 9.11972 7.51924C8.80346 7.81292 8.52119 8.1406 8.27817 8.49622C7.3392 9.87099 6.73944 11.7017 6.47888 13.9883C6.02517 14.2956 5.64264 14.695 5.3567 15.16C5.07076 15.6251 4.88795 16.1451 4.82042 16.6855C4.92223 16.6433 5.02697 16.6083 5.1338 16.5808C5.4233 16.5203 5.72128 16.5109 6.01409 16.5529C6.24122 16.5639 6.46492 16.6123 6.67606 16.696C6.46492 16.6123 6.24122 16.5639 6.01409 16.5529C5.72128 16.5109 5.4233 16.5203 5.1338 16.5808C5.02697 16.6083 4.92223 16.6433 4.82042 16.6855C4.79091 16.9368 4.78268 17.19 4.79578 17.4427C4.88968 19.9619 6.18896 21.5902 8.69366 22.3276L9.29578 22.4811C11.9903 23.0411 14.7682 23.0838 17.4789 22.6067C14.7682 23.0838 11.9903 23.0411 9.29578 22.4811L8.69366 22.3276L8.50353 22.7707L8.60915 22.8196L8.50353 22.7707C7.2101 22.138 6.02935 21.981 4.96127 22.2997C3.8932 22.6184 3.40493 23.215 3.49648 24.0897C3.53313 24.4831 3.68641 24.8571 3.93703 25.1644C4.18765 25.4718 4.52442 25.6988 4.90493 25.8169C5.7378 26.0776 6.60946 26.1956 7.48239 26.1658H7.86972H7.48239C7.0671 28.2302 7.13941 30.3619 7.69366 32.3941C7.94254 33.429 8.12948 34.4776 8.25352 35.5344C8.33568 36.2951 8.83802 36.7068 9.76056 36.7696C10.8075 36.8882 11.4554 36.6103 11.7042 35.9357C11.9564 35.2547 12.0759 34.5324 12.0563 33.8072C11.7865 33.707 11.5231 33.5905 11.2676 33.4583C11.1127 33.3676 10.9613 33.2769 10.8169 33.1827C10.9613 33.2769 11.1127 33.3676 11.2676 33.4583C10.484 32.1475 10.0898 30.6442 10.1303 29.1212C10.1467 26.2018 11.2171 24.7712 13.3415 24.8294C15.1092 24.755 16.5176 25.775 17.5669 27.8895C18.0854 28.8649 18.3801 29.9418 18.43 31.0432C18.4799 32.1446 18.2838 33.2433 17.8556 34.2608C17.9893 34.9771 18.2815 35.6552 18.7113 36.2462C19.0634 36.6649 19.6585 36.8603 20.4965 36.8324C21.3345 36.8045 21.9073 36.5719 22.2148 36.1346C22.6758 35.35 23.031 34.5089 23.2711 33.6328C29.4566 35.2355 33.8415 35.3727 36.4261 34.0445L36.4155 34.0166ZM21.7007 18.6918C21.9752 18.9188 22.3187 19.0478 22.6761 19.0582C23.0576 19.0464 23.4331 18.9611 23.7817 18.807C23.4331 18.9611 23.0576 19.0464 22.6761 19.0582C22.3187 19.0478 21.9752 18.9188 21.7007 18.6918C21.3768 18.4441 21.0246 18.1824 20.6444 17.8998C20.3593 17.6779 20.058 17.4773 19.743 17.2996C19.3728 17.1194 18.9652 17.0274 18.5528 17.0309C18.2391 17.0355 17.9367 17.1477 17.6972 17.3485C17.9367 17.1477 18.2391 17.0355 18.5528 17.0309C18.9652 17.0274 19.3728 17.1194 19.743 17.2996C20.058 17.4773 20.3593 17.6779 20.6444 17.8998C21.0211 18.1824 21.3732 18.4441 21.7007 18.6918ZM7.74647 18.807C7.82862 19.0356 7.98461 19.231 8.19025 19.3629C8.39588 19.4947 8.63966 19.5556 8.8838 19.5362C9.40141 19.5083 9.70775 19.4839 9.7993 19.4699C10.3376 19.359 10.8902 19.3331 11.4366 19.3932C12.2375 19.454 13.0251 19.6304 13.7747 19.9165C13.8398 19.9376 13.9033 19.9633 13.9648 19.9933C14.0797 20.0397 14.1973 20.0793 14.3169 20.1119C14.3637 20.1293 14.412 20.1421 14.4613 20.1503C14.8642 20.2413 15.277 20.2824 15.6901 20.2724H16.0951C16.4356 20.2505 16.7644 20.1411 17.0493 19.9549C16.7644 20.1411 16.4356 20.2505 16.0951 20.2724H15.6901L14.9613 20.9424L14.3169 20.1119C14.1973 20.0793 14.0797 20.0397 13.9648 19.9933C13.9033 19.9633 13.8398 19.9376 13.7747 19.9165C13.4245 20.1719 13.0243 20.3516 12.5997 20.4442C12.1752 20.5367 11.7358 20.54 11.3099 20.4539C10.3709 20.305 9.86267 19.977 9.78521 19.4699C9.69366 19.4699 9.38732 19.5083 8.86971 19.5362C8.62558 19.5556 8.38179 19.4947 8.17616 19.3629C7.97053 19.231 7.81454 19.0356 7.7324 18.807H7.74647ZM11.3732 17.4741C11.4241 17.5265 11.4519 17.5968 11.4507 17.6695C11.4515 17.7039 11.445 17.7382 11.4317 17.77C11.4183 17.8019 11.3984 17.8306 11.3732 17.8544C11.3558 17.8802 11.3323 17.9014 11.3046 17.916C11.277 17.9306 11.2461 17.9382 11.2148 17.9381C11.1798 17.9392 11.145 17.9322 11.1133 17.9177C11.0815 17.9032 11.0536 17.8815 11.0317 17.8544C10.9866 17.8033 10.9627 17.7373 10.9648 17.6695C10.9631 17.5985 10.9868 17.5293 11.0317 17.4741C11.056 17.451 11.0847 17.4329 11.1162 17.4209C11.1476 17.4089 11.1811 17.4033 11.2148 17.4043C11.2447 17.4039 11.2744 17.41 11.3017 17.422C11.3291 17.434 11.3535 17.4518 11.3732 17.4741ZM12.1162 17.7846C12.1172 17.7127 12.1462 17.6439 12.1972 17.5927C12.2223 17.5671 12.2525 17.5468 12.2857 17.533C12.319 17.5192 12.3548 17.5122 12.3908 17.5124C12.4636 17.5127 12.5332 17.5416 12.5845 17.5927C12.6333 17.645 12.6609 17.7134 12.662 17.7846C12.6624 17.8202 12.6558 17.8555 12.6424 17.8885C12.6289 17.9215 12.609 17.9515 12.5838 17.9768C12.5586 18.0022 12.5285 18.0223 12.4954 18.036C12.4623 18.0497 12.4267 18.0568 12.3908 18.0568C12.3548 18.057 12.319 18.05 12.2857 18.0362C12.2525 18.0225 12.2223 18.0021 12.1972 17.9765C12.1712 17.9517 12.1506 17.9219 12.1366 17.8889C12.1227 17.8559 12.1157 17.8204 12.1162 17.7846ZM25.2606 25.8727C25.1547 26.0972 25.0036 26.2979 24.8164 26.4623C24.6293 26.6268 24.4102 26.7515 24.1725 26.8287C23.6563 26.9524 23.1128 26.8957 22.6338 26.6682C21.4836 26.2216 20.6549 26.0681 20.1479 26.2077C20.6549 26.0681 21.4836 26.2216 22.6338 26.6682C23.1128 26.8957 23.6563 26.9524 24.1725 26.8287C24.4102 26.7515 24.6293 26.6268 24.8164 26.4623C25.0036 26.2979 25.1547 26.0972 25.2606 25.8727C25.7699 24.9166 25.5153 24.0118 24.4965 23.1581C23.4777 22.3044 22.1021 22.038 20.3697 22.359C22.1303 22.0659 23.5059 22.3392 24.4965 23.179C25.4871 24.0187 25.7418 24.9236 25.2606 25.8936V25.8727ZM16.2676 12.938C16.4648 12.9625 16.6197 13.1055 16.7253 13.3707C16.838 13.6397 16.878 13.9331 16.8415 14.2221V14.2954C16.8182 14.5253 16.7551 14.7496 16.6549 14.9583C16.6134 15.0349 16.5663 15.1083 16.5141 15.1781C16.4594 15.2745 16.3787 15.354 16.2811 15.4076C16.1835 15.4612 16.0728 15.4868 15.9613 15.4817C15.7606 15.4608 15.6091 15.3177 15.493 15.0525C15.3762 14.7552 15.341 14.4326 15.3908 14.1174C15.4194 13.8034 15.5312 13.5025 15.7148 13.2451C15.772 13.1483 15.8545 13.0686 15.9537 13.0145C16.0529 12.9605 16.165 12.934 16.2782 12.938H16.2676ZM9.80986 12.5891C10.0106 12.6135 10.162 12.7601 10.2711 13.0253C10.3809 13.295 10.4208 13.5877 10.3873 13.8766V13.9464C10.3645 14.178 10.3001 14.4037 10.1972 14.6129C10.1582 14.6901 10.1122 14.7637 10.0599 14.8327C10.005 14.9296 9.92376 15.0091 9.82533 15.0622C9.72691 15.1153 9.61536 15.1397 9.50352 15.1328C9.30634 15.1118 9.15141 14.9688 9.03873 14.7071C8.93035 14.4091 8.89396 14.09 8.93248 13.7755C8.971 13.461 9.08337 13.1599 9.26057 12.8962C9.31657 12.8015 9.39691 12.7231 9.4934 12.6692C9.58989 12.6153 9.69909 12.5876 9.80986 12.5891Z" fill="#66CE94"/>
<path d="M10.2606 13.029C10.1549 12.7638 10 12.6172 9.7993 12.5928C9.68676 12.5894 9.57537 12.6162 9.47685 12.6702C9.37833 12.7242 9.29633 12.8036 9.23945 12.8999C9.06225 13.1636 8.94988 13.4647 8.91136 13.7792C8.87284 14.0937 8.90923 14.4127 9.01761 14.7108C9.13029 14.9725 9.28522 15.1155 9.48241 15.1365C9.59424 15.1434 9.70578 15.119 9.8042 15.0659C9.90263 15.0128 9.98393 14.9333 10.0387 14.8364C10.0911 14.7674 10.137 14.6938 10.1761 14.6166C10.0873 14.5928 10.0021 14.5576 9.92255 14.5119C9.86376 14.4867 9.81302 14.4461 9.77579 14.3944C9.73857 14.3428 9.71626 14.2821 9.71128 14.2188C9.71021 14.1657 9.72373 14.1133 9.7504 14.0672C9.77707 14.0211 9.81588 13.983 9.86268 13.9571C9.97068 13.8993 10.0921 13.8704 10.2148 13.8734H10.3627C10.3962 13.5844 10.3562 13.2917 10.2465 13.022L10.2606 13.029ZM16.7007 13.35C16.5951 13.0848 16.4401 12.9417 16.243 12.9173C16.1298 12.9133 16.0177 12.9397 15.9185 12.9938C15.8193 13.0479 15.7368 13.1275 15.6796 13.2244C15.496 13.4818 15.3842 13.7827 15.3556 14.0967C15.3058 14.4119 15.341 14.7345 15.4578 15.0318C15.5704 15.297 15.7254 15.44 15.9261 15.461C16.0375 15.4661 16.1483 15.4404 16.2459 15.3868C16.3435 15.3332 16.4242 15.2538 16.4789 15.1574C16.5311 15.0876 16.5782 15.0141 16.6197 14.9376C16.5286 14.9175 16.4417 14.8821 16.3627 14.8329C16.3044 14.808 16.254 14.7679 16.2168 14.7169C16.1796 14.666 16.157 14.606 16.1514 14.5433C16.1505 14.4897 16.164 14.4369 16.1906 14.3903C16.2173 14.3436 16.256 14.3049 16.3028 14.2781C16.4116 14.2226 16.5326 14.1951 16.6549 14.1979H16.8028C16.8393 13.9089 16.7992 13.6155 16.6866 13.3465L16.7007 13.35ZM12.1972 17.6069C12.1463 17.6581 12.1172 17.7268 12.1162 17.7988C12.1157 17.8345 12.1227 17.87 12.1366 17.903C12.1506 17.936 12.1712 17.9659 12.1972 17.9907C12.2223 18.0163 12.2525 18.0366 12.2857 18.0504C12.319 18.0642 12.3548 18.0712 12.3908 18.0709C12.4268 18.0709 12.4623 18.0639 12.4954 18.0502C12.5286 18.0364 12.5586 18.0163 12.5838 17.991C12.6091 17.9657 12.6289 17.9357 12.6424 17.9027C12.6558 17.8697 12.6624 17.8343 12.662 17.7988C12.6609 17.7275 12.6333 17.6592 12.5845 17.6069C12.5332 17.5558 12.4636 17.5269 12.3908 17.5266C12.3548 17.5264 12.319 17.5333 12.2857 17.5471C12.2525 17.5609 12.2223 17.5812 12.1972 17.6069ZM11.4507 17.6836C11.4519 17.6109 11.4241 17.5407 11.3732 17.4882C11.3535 17.466 11.3291 17.4482 11.3017 17.4362C11.2744 17.4241 11.2447 17.4181 11.2148 17.4184C11.1811 17.4174 11.1476 17.4231 11.1162 17.4351C11.0847 17.4471 11.056 17.4651 11.0317 17.4882C10.9868 17.5435 10.9631 17.6127 10.9648 17.6836C10.9627 17.7514 10.9866 17.8175 11.0317 17.8686C11.0536 17.8956 11.0815 17.9173 11.1133 17.9319C11.1451 17.9464 11.1798 17.9534 11.2148 17.9523C11.2461 17.9524 11.277 17.9447 11.3046 17.9301C11.3323 17.9155 11.3558 17.8944 11.3732 17.8686C11.3984 17.8448 11.4183 17.816 11.4317 17.7842C11.445 17.7523 11.4515 17.7181 11.4507 17.6836Z" fill="black"/>
<path d="M11.4261 19.3689C10.8796 19.3089 10.327 19.3348 9.78874 19.4457C9.86151 19.9528 10.3697 20.2808 11.3134 20.4296C11.7393 20.5158 12.1787 20.5125 12.6033 20.4199C13.0278 20.3274 13.4281 20.1476 13.7782 19.8923C13.0242 19.6048 12.2317 19.4284 11.4261 19.3689Z" fill="#DD3A3A"/>
<path d="M20.3521 37.0139C19.5423 37.0139 18.9437 36.7975 18.5915 36.3649C18.1659 35.7919 17.8693 35.1351 17.7218 34.4388C15.5 34.6656 13.6479 34.5365 12.2077 34.048C12.2022 34.7132 12.0831 35.3727 11.8556 35.9985C11.581 36.7487 10.8697 37.0662 9.74296 36.9406C8.48944 36.8569 8.1514 36.1416 8.08802 35.5449C7.96413 34.4883 7.77838 33.4398 7.53169 32.4046C6.99066 30.4154 6.90525 28.3315 7.28169 26.3054C6.45711 26.3177 5.63581 26.1999 4.84859 25.9564C4.43758 25.8302 4.07347 25.5862 3.80215 25.2553C3.53083 24.9243 3.36443 24.5212 3.32394 24.0967C3.18662 23.1336 3.71831 22.4707 4.90493 22.1252C5.96127 21.8077 7.14789 21.9438 8.42606 22.53C8.44366 22.4916 8.45774 22.4497 8.47535 22.4114C6.01056 21.6193 4.73239 19.941 4.6338 17.4182C4.6338 17.2682 4.6338 17.1217 4.6338 16.9751L3.74295 17.7148C3.20551 18.17 2.52038 18.4178 1.81338 18.4127C1.55332 18.4342 1.2931 18.3731 1.07042 18.2382C0.97471 18.1589 0.899759 18.0578 0.85194 17.9436C0.804122 17.8294 0.784852 17.7054 0.795773 17.5822C0.803897 17.4148 0.839584 17.2498 0.901413 17.0937C0.916556 17.0531 0.947029 17.0198 0.986433 17.0009C1.02584 16.982 1.07109 16.979 1.11267 16.9926C1.13328 16.9996 1.15228 17.0106 1.16858 17.025C1.18488 17.0393 1.19816 17.0567 1.20765 17.0762C1.21714 17.0956 1.22265 17.1168 1.22388 17.1383C1.2251 17.1599 1.22201 17.1815 1.21479 17.2019C1.16684 17.3236 1.13833 17.4519 1.13028 17.5822C1.12138 17.6535 1.12912 17.7257 1.15294 17.7935C1.17675 17.8613 1.21599 17.9227 1.2676 17.973C1.43411 18.0636 1.62428 18.1025 1.81338 18.0847C2.43079 18.0853 3.0284 17.8689 3.5 17.4741C4.02816 17.0344 4.35564 16.7762 4.47535 16.6681C4.527 16.6253 4.58376 16.5889 4.64436 16.5599C4.72176 16.0252 4.90844 15.5117 5.193 15.0509C5.47756 14.5902 5.854 14.1918 6.2993 13.8801C6.56338 11.6121 7.17606 9.76283 8.1162 8.38806C8.33902 8.05957 8.59503 7.75443 8.88028 7.47737C8.58668 6.97921 8.41429 6.4201 8.37676 5.84441C8.34859 4.93371 8.59155 4.26377 9.10211 3.85204C9.11832 3.83758 9.13756 3.82686 9.15845 3.82063C9.59945 3.7184 10.0621 3.76254 10.4753 3.94625C10.9037 4.08884 11.293 4.32768 11.6127 4.6441C11.8526 4.91377 12.0704 5.20196 12.2641 5.50595L12.9261 3.68456C12.5786 3.56883 12.2535 3.39539 11.9648 3.17164C11.9493 3.16025 11.9362 3.14604 11.9261 3.12977C11.7289 2.82272 11.8239 2.46332 12.2007 2.06554C12.2237 2.04247 12.2531 2.02668 12.2852 2.02018C12.7019 1.91848 13.1335 1.89131 13.5599 1.93993L14.1479 0.331384C14.1534 0.313458 14.1624 0.29681 14.1745 0.282423C14.1866 0.268036 14.2015 0.256208 14.2183 0.247645C14.3478 0.151099 14.497 0.0837446 14.6555 0.0502996C14.814 0.0168545 14.978 0.0181248 15.1359 0.0540159C15.2939 0.0899069 15.442 0.159555 15.57 0.258091C15.6979 0.356627 15.8027 0.481669 15.8768 0.62448C15.8906 0.645348 15.8997 0.668978 15.9033 0.693694C15.907 0.71841 15.9051 0.743613 15.8979 0.76754L14.507 5.1605C15.2902 5.10998 16.0767 5.14509 16.8521 5.26519L17.0775 5.30007C17.8382 3.64334 18.763 2.06545 19.838 0.589585C19.8595 0.564114 19.8874 0.54484 19.919 0.533766C20.2128 0.42852 20.5322 0.415246 20.8338 0.495752C21.1355 0.576257 21.4049 0.746648 21.6056 0.983872C21.6286 1.0075 21.644 1.03742 21.6496 1.06977C21.6553 1.10212 21.651 1.13541 21.6373 1.16532L20.9084 2.73896C21.315 2.96181 21.6994 3.22234 22.0563 3.51707C22.0806 3.5362 22.0988 3.56182 22.1088 3.59089C22.1187 3.61995 22.1201 3.65125 22.1127 3.68107C22.0512 4.03727 21.873 4.36348 21.6056 4.60921C21.587 4.62519 21.565 4.63666 21.5411 4.64272C21.5173 4.64877 21.4924 4.64925 21.4683 4.6441L20.1338 4.39288L19.4296 5.90721C19.973 6.11508 20.5012 6.35991 21.0106 6.63995C21.819 6.21651 22.6941 5.93216 23.5986 5.79904H23.6584C24.3399 5.78392 25.0022 6.02302 25.5141 6.46897C25.5419 6.49066 25.5607 6.5217 25.5669 6.5562C25.6874 7.24242 25.6017 7.94863 25.3204 8.58695C25.3162 8.60108 25.309 8.61416 25.2993 8.62534C24.8577 9.20662 24.343 9.72959 23.7676 10.1815L23.8239 10.3281C24.5951 10.2688 25.5141 10.5514 25.7958 12.1006C25.9542 12.9729 25.7359 13.6289 25.1408 14.0616C25.446 14.1557 25.7246 14.3194 25.9542 14.5396C26.3243 14.8943 26.551 15.3708 26.5915 15.8795C26.6605 16.3849 26.6012 16.8994 26.419 17.3764C26.3529 17.5649 26.2458 17.7367 26.1052 17.8796C25.9647 18.0225 25.7941 18.133 25.6056 18.2033L25.6584 18.5034C26.5669 18.7581 27.1444 19.4246 27.3768 20.4888C27.4911 21.0066 27.4714 21.5447 27.3193 22.0529C27.1672 22.5612 26.8878 23.023 26.507 23.3953C26.507 23.4267 26.5247 23.4546 26.5317 23.4826C27.6373 23.5803 28.3521 24.1002 28.6444 25.0283C28.9202 25.7642 28.8962 26.5776 28.5775 27.2963C29.2042 26.9474 29.8767 27.0521 30.5845 27.572C31.2922 28.0919 31.5423 28.7758 31.243 29.512C31.484 29.3133 31.7722 29.1789 32.0803 29.1216C32.3884 29.0642 32.7062 29.0856 33.0035 29.184C33.6866 29.3899 34.1056 29.9272 34.25 30.7786C34.3855 30.4906 34.6219 30.2611 34.9152 30.1327C35.2086 30.0044 35.539 29.9859 35.8451 30.0807C36.9331 30.3424 37.1901 30.974 37.1901 31.5113C37.4472 31.5462 37.7042 31.5776 37.9648 31.6055C38.3627 31.6544 38.9014 31.7626 38.9718 32.1429C39.0282 32.4674 38.7993 32.9908 36.4683 34.1911C33.8838 35.5205 29.4718 35.3983 23.3486 33.8421C23.1171 34.6826 22.7737 35.4887 22.3275 36.2393C21.9753 36.7312 21.3556 36.9964 20.4754 37.0243L20.3521 37.0139ZM18.007 34.2225C18.1385 34.9204 18.4247 35.5806 18.8451 36.1555C19.162 36.5289 19.7183 36.7068 20.4965 36.6824C21.2746 36.658 21.7993 36.4416 22.0845 36.0404C22.5313 35.2732 22.8769 34.4523 23.1127 33.5979C23.125 33.5571 23.1528 33.5227 23.1902 33.5018C23.2277 33.481 23.2718 33.4754 23.3134 33.4862C29.4296 35.0704 33.8169 35.2134 36.3415 33.9119C38.5775 32.7605 38.6866 32.3243 38.669 32.2162C38.6514 32.108 38.4542 32.0103 37.9648 31.9475C37.6549 31.9161 37.3415 31.8742 37.0352 31.8323C36.1111 31.6897 35.1972 31.4881 34.2993 31.2287H34.2817L34.1127 31.1764C33.0857 30.8621 32.085 30.4689 31.1197 30.0005L31.0141 29.9481L30.9472 29.9132C29.9268 29.3924 29.0255 28.6691 28.2993 27.7883L28.2113 27.6836C28.0099 27.4337 27.823 27.1728 27.6514 26.902C27.0478 25.9171 26.5934 24.8496 26.3028 23.7338C26.2746 23.6396 26.2465 23.5384 26.2254 23.4372C26.0775 22.8475 25.9507 22.2055 25.8521 21.5356C25.7359 20.733 25.588 19.7909 25.412 18.7232C25.3838 18.5453 25.3521 18.3743 25.3204 18.1824C25 16.3191 24.757 14.9932 24.5951 14.2395C24.3768 13.2381 24.1584 12.3484 23.9437 11.5912C23.8451 11.2423 23.7394 10.9352 23.6268 10.6351L23.5634 10.4642L23.2676 10.67C23.2309 10.6879 23.1889 10.6919 23.1494 10.6815C23.1099 10.671 23.0756 10.6466 23.0528 10.613C23.03 10.5793 23.0203 10.5386 23.0255 10.4984C23.0307 10.4582 23.0504 10.4213 23.081 10.3944C23.2359 10.2932 23.3873 10.185 23.5317 10.0734C24.1199 9.62782 24.6446 9.10552 25.0915 8.52065C25.3316 7.96458 25.4121 7.35359 25.324 6.75509C24.8757 6.38888 24.3096 6.19446 23.7289 6.20728H23.6408C22.7463 6.33916 21.8821 6.62619 21.088 7.05518L20.8134 7.21219C20.7757 7.22736 20.7338 7.22858 20.6953 7.21562C20.6569 7.20267 20.6244 7.17641 20.6038 7.14165C20.5833 7.10689 20.5761 7.06597 20.5836 7.02637C20.591 6.98678 20.6126 6.95117 20.6444 6.92606H20.669C20.1796 6.66581 19.6725 6.43963 19.1514 6.24915C18.5011 6.01654 17.832 5.83912 17.1514 5.71879L16.7993 5.66296C15.9701 5.53495 15.1281 5.508 14.2923 5.58271C13.8668 5.62212 13.4452 5.69562 13.0317 5.80253C12.8134 5.85835 12.6021 5.91767 12.4049 5.98048L12.3063 6.01188C11.1664 6.34925 10.114 6.92784 9.22183 7.70766C8.91475 7.99293 8.64076 8.31126 8.40493 8.65674C7.48592 10.0001 6.89085 11.825 6.64437 14.0721C6.64239 14.0949 6.63537 14.1171 6.62381 14.137C6.61225 14.1569 6.59644 14.174 6.57747 14.1872C5.77752 14.7313 5.22205 15.562 5.02817 16.5041L5.09155 16.4866C5.40062 16.4214 5.71888 16.4107 6.03169 16.4552C6.28475 16.4612 6.53395 16.5182 6.76409 16.6227C6.78258 16.6344 6.79858 16.6496 6.81115 16.6674C6.82373 16.6852 6.83264 16.7053 6.83738 16.7265C6.84212 16.7477 6.8426 16.7696 6.83878 16.7911C6.83496 16.8125 6.82693 16.8329 6.81514 16.8512C6.80335 16.8696 6.78803 16.8854 6.77006 16.8979C6.75209 16.9103 6.73182 16.9192 6.7104 16.9239C6.68899 16.9286 6.66684 16.929 6.64524 16.9253C6.62364 16.9215 6.603 16.9135 6.58451 16.9018C6.39679 16.8292 6.1979 16.7891 5.99648 16.7832C5.7225 16.7436 5.44364 16.7519 5.17253 16.8076C5.10211 16.8251 5.03521 16.846 4.97535 16.8669C4.96115 17.0784 4.96115 17.2905 4.97535 17.502C5.0669 19.9654 6.30634 21.5181 8.75352 22.2474C8.94014 22.2997 9.14084 22.3485 9.34507 22.3974C12.0178 22.951 14.7728 22.9924 17.4613 22.5195C17.5023 22.5184 17.5423 22.5321 17.5739 22.558C17.6055 22.584 17.6265 22.6204 17.6329 22.6606C17.6394 22.7007 17.6309 22.7418 17.609 22.7762C17.5872 22.8106 17.5534 22.836 17.5141 22.8475C14.7832 23.3252 11.9854 23.2814 9.27113 22.7184L8.7993 22.5998L8.72887 22.7742C8.75687 22.7983 8.77591 22.831 8.78293 22.8671C8.78996 22.9031 8.78456 22.9405 8.76761 22.9731C8.74729 23.0113 8.71288 23.0403 8.67154 23.0539C8.63021 23.0676 8.58515 23.0649 8.54578 23.0464L8.44718 22.9975C7.19719 22.3869 6.04577 22.2299 5.02112 22.5335C3.99648 22.837 3.56338 23.3604 3.67605 24.1455C3.70709 24.5096 3.84794 24.8561 4.08028 25.1398C4.31262 25.4236 4.62571 25.6315 4.97887 25.7366C5.79318 25.9938 6.64573 26.1118 7.5 26.0855H7.88028C7.90213 26.0841 7.92405 26.0871 7.9447 26.0943C7.96535 26.1015 7.98431 26.1128 8.00044 26.1275C8.01656 26.1422 8.02951 26.1599 8.03852 26.1797C8.04752 26.1995 8.05239 26.2209 8.05282 26.2426C8.05425 26.2642 8.05124 26.2859 8.04397 26.3064C8.03669 26.3268 8.0253 26.3456 8.01049 26.3616C7.99568 26.3776 7.97776 26.3904 7.9578 26.3994C7.93784 26.4083 7.91626 26.4131 7.89437 26.4135H7.64084C7.25946 28.4114 7.33769 30.4687 7.86971 32.4325C8.12207 33.4776 8.31138 34.5368 8.43662 35.6042C8.50704 36.2776 8.95071 36.651 9.79226 36.6929C10.7676 36.801 11.3451 36.5638 11.5528 35.9636C11.7824 35.3365 11.8946 34.6731 11.8838 34.0061C11.643 33.9115 11.4078 33.8031 11.1796 33.6816C11.0211 33.5909 10.8662 33.4967 10.7183 33.399C10.6819 33.3745 10.6568 33.3366 10.6485 33.2938C10.6403 33.2509 10.6495 33.2065 10.6743 33.1705C10.699 33.1344 10.7372 33.1095 10.7805 33.1013C10.8238 33.0931 10.8685 33.1023 10.9049 33.1268C11.0422 33.2176 11.1901 33.3083 11.3416 33.392C11.5889 33.5236 11.844 33.6401 12.1056 33.741C13.5563 34.2853 15.4824 34.4388 17.8345 34.1771C17.8508 34.1736 17.8676 34.1736 17.8838 34.1771C17.9092 34.1805 17.9334 34.1901 17.9542 34.205C17.9731 34.219 17.9887 34.2369 18 34.2574C18.0011 34.2455 18.0035 34.2338 18.007 34.2225ZM34.5563 30.9496C35.3205 31.1644 36.0964 31.3356 36.8803 31.4625C36.8591 30.9216 36.5 30.5727 35.7887 30.4157C35.555 30.3326 35.2982 30.34 35.0698 30.4364C34.8413 30.5328 34.6579 30.7111 34.5563 30.9356V30.9496ZM31.4542 29.7841C32.2532 30.1624 33.0766 30.4876 33.919 30.7576C33.7852 30.0772 33.4578 29.6655 32.9155 29.505C32.6696 29.42 32.4056 29.3998 32.1495 29.4463C31.8933 29.4927 31.6538 29.6044 31.4542 29.7702V29.7841ZM28.6127 27.6906C29.253 28.4366 30.0279 29.0578 30.8979 29.5225C31.2218 28.87 31.0634 28.3396 30.4014 27.8546C29.7394 27.3696 29.162 27.2928 28.6127 27.6627V27.6906ZM26.6268 23.8524C26.9081 24.8566 27.3288 25.8171 27.8768 26.7066C27.9965 26.8985 28.1232 27.0835 28.2606 27.2614C28.4162 26.9361 28.5042 26.5832 28.5193 26.2235C28.5345 25.8638 28.4764 25.5048 28.3486 25.1679C28.2407 24.792 28.0165 24.4592 27.7076 24.2163C27.3987 23.9734 27.0206 23.8327 26.6268 23.814V23.8524ZM25.7183 18.8698C25.8768 19.8293 26.0106 20.6912 26.1197 21.4344C26.1972 21.9787 26.2958 22.5056 26.412 23.0045C26.709 22.6785 26.9221 22.2861 27.033 21.8608C27.144 21.4355 27.1496 20.9899 27.0493 20.5621C26.8591 19.6618 26.4225 19.1105 25.7183 18.8698ZM24.9014 14.3337C25.0563 15.0909 25.2746 16.2773 25.5493 17.8684C25.6802 17.8072 25.7974 17.7207 25.8941 17.6141C25.9909 17.5074 26.0652 17.3827 26.1127 17.2473C26.2741 16.8211 26.325 16.3616 26.2606 15.9109C26.2298 15.4786 26.0377 15.0731 25.7218 14.7734C25.4939 14.5554 25.2102 14.4034 24.9014 14.3337ZM23.9437 10.6456C24.0317 10.8968 24.1162 11.1585 24.1972 11.4272C24.3979 12.1251 24.6021 12.9625 24.8063 13.8697C25.3979 13.5208 25.6162 12.9485 25.4683 12.1425C25.2782 11.1062 24.7746 10.6107 23.9437 10.6386V10.6456ZM9.28521 4.12071C8.87676 4.46964 8.6831 5.03839 8.70774 5.81998C8.7433 6.31917 8.88745 6.80481 9.13028 7.24359C9.97255 6.54284 10.9433 6.00971 11.9894 5.67342C11.8074 5.38161 11.6001 5.10608 11.3697 4.84997C11.0815 4.57612 10.735 4.36983 10.3556 4.24632C10.0216 4.09222 9.64723 4.04585 9.28521 4.11373V4.12071ZM17.419 5.33846C17.9949 5.45092 18.5621 5.60367 19.1162 5.79555L19.8873 4.13816C19.903 4.10555 19.9291 4.07898 19.9616 4.06257C19.994 4.04617 20.0311 4.04085 20.0669 4.04743L21.4507 4.30564C21.6056 4.13434 21.7135 3.92648 21.7641 3.702C21.4083 3.40983 21.0237 3.15382 20.6162 2.93785C20.5779 2.91835 20.5486 2.88511 20.5342 2.8449C20.5198 2.8047 20.5214 2.76058 20.5387 2.72152L21.2852 1.11297C21.1322 0.954072 20.9369 0.841269 20.722 0.787559C20.5071 0.73385 20.2812 0.741422 20.0704 0.80941C19.0416 2.22858 18.1537 3.74299 17.419 5.33148V5.33846ZM12.1937 2.89598C12.489 3.12115 12.8265 3.28599 13.1866 3.38098C13.2091 3.38698 13.2301 3.39752 13.2483 3.41193C13.2664 3.42634 13.2814 3.44432 13.2922 3.46473C13.3018 3.48556 13.3067 3.50816 13.3067 3.53103C13.3067 3.5539 13.3018 3.5765 13.2922 3.59733L12.6127 5.46407C12.7218 5.43266 12.831 5.40126 12.9401 5.37684C13.3342 5.27387 13.7356 5.2004 14.1408 5.15702L15.5423 0.725671C15.4892 0.632714 15.417 0.551813 15.3305 0.488191C15.2439 0.42457 15.1448 0.379644 15.0396 0.356301C14.9345 0.332958 14.8255 0.331719 14.7198 0.35267C14.6142 0.373621 14.5141 0.416296 14.4261 0.477937L13.8134 2.15975C13.7999 2.19631 13.7737 2.22692 13.7395 2.24609C13.7053 2.26527 13.6653 2.27177 13.6268 2.26443C13.2171 2.19892 12.7985 2.21314 12.3944 2.3063C12.0951 2.64476 12.1514 2.81922 12.1937 2.90296V2.89598ZM23.676 27.0695C23.2952 27.0613 22.9196 26.9796 22.5704 26.8287C21.4613 26.3996 20.662 26.246 20.1937 26.3752C20.1726 26.3811 20.1506 26.3829 20.1289 26.3804C20.1071 26.3779 20.0861 26.3713 20.067 26.3607C20.0478 26.3502 20.031 26.336 20.0174 26.319C20.0038 26.3021 19.9937 26.2826 19.9877 26.2617C19.9817 26.2409 19.9799 26.2191 19.9824 26.1975C19.9849 26.176 19.9916 26.1552 20.0022 26.1362C20.0129 26.1172 20.0271 26.1006 20.0443 26.0871C20.0614 26.0736 20.0811 26.0636 20.1021 26.0576C20.6514 25.9041 21.5106 26.0576 22.6937 26.5217C23.14 26.732 23.6448 26.7873 24.1268 26.6787C24.3428 26.6073 24.5417 26.4927 24.7113 26.3421C24.8809 26.1914 25.0175 26.0079 25.1127 25.8029C25.588 24.9166 25.3486 24.0967 24.3873 23.2907C23.4261 22.4846 22.0986 22.2264 20.3979 22.5091C20.354 22.5162 20.3091 22.5059 20.2729 22.4804C20.2366 22.4549 20.212 22.4163 20.2042 22.373C20.2007 22.3517 20.2015 22.3299 20.2065 22.3089C20.2115 22.2878 20.2206 22.268 20.2334 22.2505C20.2461 22.233 20.2623 22.2182 20.2808 22.2068C20.2994 22.1955 20.32 22.188 20.3415 22.1846C22.1444 21.8845 23.5775 22.1846 24.6056 23.0394C25.6338 23.8943 25.9578 24.9271 25.4085 25.9564C25.2933 26.202 25.1286 26.4216 24.9245 26.6016C24.7204 26.7816 24.4813 26.9183 24.2218 27.0032C24.0446 27.0544 23.8606 27.079 23.676 27.0765V27.0695ZM14.9366 21.075C14.9132 21.0739 14.8903 21.0677 14.8696 21.0569C14.8489 21.046 14.8309 21.0308 14.8169 21.0122L14.2042 20.2236C14.0986 20.1887 13.9965 20.1538 13.9014 20.1119L13.8028 20.0701C13.4416 20.3163 13.0344 20.4887 12.6052 20.5774C12.176 20.6661 11.7333 20.6692 11.3028 20.5865C10.3768 20.4364 9.83098 20.1119 9.67253 19.62L8.89789 19.6688C8.61964 19.692 8.34145 19.6236 8.10651 19.474C7.87156 19.3245 7.69301 19.1023 7.59859 18.8419C7.58038 18.8021 7.57887 18.7567 7.59439 18.7158C7.60991 18.6749 7.64118 18.6418 7.68133 18.6238C7.72149 18.6057 7.76724 18.6042 7.80851 18.6196C7.84978 18.635 7.88319 18.666 7.9014 18.7058C7.96962 18.904 8.10254 19.074 8.27918 19.1891C8.45581 19.3041 8.66608 19.3575 8.87676 19.3408C9.51057 19.3059 9.71479 19.285 9.77465 19.278C10.3282 19.1652 10.8961 19.1393 11.4577 19.2013C12.2731 19.2641 13.0748 19.444 13.838 19.7351C13.8979 19.756 13.9683 19.784 14.0352 19.8154C14.1376 19.858 14.2422 19.8953 14.3486 19.927C14.3886 19.9411 14.4299 19.9517 14.4718 19.9584C14.8633 20.0466 15.2642 20.0864 15.6655 20.077H16.0599C16.3716 20.0557 16.6724 19.9547 16.9331 19.784C16.9514 19.7723 16.9718 19.7643 16.9932 19.7604C17.0145 19.7565 17.0365 19.7569 17.0577 19.7614C17.079 19.7659 17.0991 19.7746 17.117 19.7868C17.1349 19.7991 17.1502 19.8147 17.162 19.8328C17.1738 19.8509 17.1818 19.8711 17.1857 19.8923C17.1896 19.9135 17.1893 19.9353 17.1847 19.9563C17.1801 19.9774 17.1714 19.9973 17.1591 20.0151C17.1467 20.0328 17.1309 20.0479 17.1127 20.0596C16.8038 20.2625 16.4471 20.3827 16.0775 20.4085H15.7253L15.0422 21.0366C15.0133 21.0633 14.976 21.0793 14.9366 21.082V21.075ZM14.7007 20.3422L14.9542 20.6667L15.25 20.3981C15.0599 20.3946 14.8732 20.3736 14.7007 20.3492V20.3422ZM9.99648 19.5676C10.1408 19.9165 10.5916 20.1399 11.3416 20.2655C12.0449 20.4023 12.7745 20.2847 13.3979 19.934C12.7534 19.7215 12.0855 19.5868 11.4085 19.5327C10.9385 19.4788 10.4632 19.4905 9.99648 19.5676ZM22.6725 19.1908C22.2782 19.1804 21.8987 19.0391 21.5951 18.7895L20.5387 17.9975C20.2627 17.7819 19.9708 17.5871 19.6655 17.4147C19.3185 17.2454 18.9361 17.1593 18.5493 17.1635C18.2737 17.1683 18.0084 17.2683 17.7993 17.4462C17.7643 17.4728 17.7203 17.485 17.6764 17.4805C17.6326 17.476 17.5921 17.4549 17.5634 17.4217C17.5361 17.3869 17.5237 17.3429 17.529 17.2991C17.5343 17.2553 17.5568 17.2154 17.5916 17.188C17.8609 16.9661 18.1991 16.8429 18.5493 16.839C18.9874 16.8357 19.4202 16.9337 19.8134 17.1251C20.1372 17.3065 20.4468 17.5118 20.7394 17.7393L21.7958 18.5313C22.0378 18.7434 22.3462 18.8666 22.669 18.8802C23.0279 18.8688 23.3809 18.7869 23.7077 18.6395C23.7484 18.6224 23.7942 18.6219 23.8351 18.6383C23.8761 18.6547 23.9088 18.6865 23.9261 18.7267C23.9433 18.767 23.9438 18.8124 23.9273 18.8529C23.9107 18.8935 23.8786 18.9259 23.838 18.943C23.468 19.104 23.0695 19.1906 22.6655 19.1978L22.6725 19.1908ZM0.859151 12.9555C0.655405 12.9509 0.459757 12.8756 0.306342 12.7426C0.181187 12.652 0.0876107 12.525 0.0386147 12.3792C-0.0103812 12.2335 -0.0123711 12.0762 0.0329196 11.9293C0.0782102 11.7824 0.168531 11.6531 0.291352 11.5594C0.414173 11.4657 0.563398 11.4121 0.718308 11.4063C0.762199 11.4026 0.805777 11.4163 0.839454 11.4444C0.873131 11.4726 0.894153 11.5128 0.897889 11.5563C0.901624 11.5998 0.887771 11.643 0.859376 11.6764C0.830982 11.7097 0.790374 11.7305 0.746483 11.7343C0.658299 11.7351 0.572677 11.7638 0.50202 11.8161C0.431363 11.8684 0.379331 11.9416 0.353451 12.0251C0.327571 12.1087 0.329194 12.1982 0.358071 12.2808C0.386949 12.3634 0.441589 12.4347 0.514087 12.4844C0.611 12.5714 0.735573 12.622 0.8662 12.6275C0.927967 12.6145 0.987346 12.5921 1.04226 12.5612C1.06206 12.5512 1.0837 12.5452 1.10589 12.5436C1.12808 12.5421 1.15035 12.545 1.17139 12.5521C1.19242 12.5593 1.21179 12.5706 1.22832 12.5853C1.24485 12.6001 1.25821 12.618 1.2676 12.638C1.28598 12.6774 1.28818 12.7224 1.27373 12.7634C1.25927 12.8044 1.2293 12.8383 1.19014 12.8578C1.08805 12.9133 0.975225 12.9466 0.859151 12.9555ZM3.6162 12.781C3.39278 12.7852 3.17283 12.7259 2.98239 12.6101C2.87544 12.5489 2.78661 12.4609 2.72481 12.3549C2.663 12.249 2.6304 12.1288 2.63028 12.0064C2.62796 11.7869 2.70546 11.5738 2.8486 11.4063C2.91892 11.3142 3.01 11.2398 3.11455 11.1889C3.2191 11.138 3.33423 11.1121 3.45071 11.1132C3.63454 11.1178 3.81501 11.1631 3.97887 11.2458C3.99859 11.2551 4.01624 11.2682 4.03082 11.2843C4.0454 11.3004 4.05661 11.3193 4.06381 11.3397C4.07101 11.3601 4.07405 11.3818 4.07277 11.4034C4.07149 11.425 4.06591 11.4461 4.05634 11.4656C4.04731 11.4854 4.03429 11.5033 4.01809 11.518C4.00188 11.5327 3.98281 11.544 3.96206 11.5512C3.9413 11.5584 3.9193 11.5613 3.89737 11.5598C3.87544 11.5582 3.85405 11.5523 3.83451 11.5423C3.71503 11.4831 3.58419 11.4498 3.45071 11.4446C3.3823 11.4419 3.31428 11.4561 3.2528 11.486C3.19133 11.5158 3.13833 11.5604 3.09859 11.6156C3.00484 11.7243 2.95471 11.8634 2.95775 12.0064C2.95637 12.0726 2.97295 12.138 3.00578 12.1957C3.03861 12.2534 3.08648 12.3013 3.14437 12.3344C3.28016 12.4153 3.43675 12.4553 3.59507 12.4496C3.65254 12.4469 3.70885 12.4327 3.76057 12.4077C3.80634 12.3902 3.88733 12.3484 4.00352 12.2925C4.02285 12.2824 4.04403 12.2763 4.06581 12.2746C4.08758 12.2728 4.10948 12.2754 4.13021 12.2823C4.15093 12.2891 4.17004 12.3001 4.18639 12.3144C4.20274 12.3288 4.21599 12.3462 4.22535 12.3658C4.24492 12.4047 4.24813 12.4497 4.23427 12.4909C4.2204 12.5321 4.1906 12.5662 4.15141 12.5856L3.89788 12.7112C3.80907 12.7514 3.71361 12.775 3.6162 12.781ZM4.00352 9.59535C3.903 9.59435 3.80384 9.57203 3.71274 9.5299C3.62164 9.48777 3.5407 9.42681 3.47536 9.3511C3.31487 9.18087 3.22661 8.95599 3.22887 8.72304C3.22673 8.62428 3.24642 8.52625 3.28657 8.43583C3.32671 8.34541 3.38634 8.2648 3.46127 8.19965C3.53995 8.12682 3.63245 8.07018 3.73339 8.03304C3.83433 7.99591 3.9417 7.979 4.04929 7.98331C4.1805 7.99389 4.30842 8.02944 4.42605 8.08799C4.58644 8.15233 4.7408 8.23055 4.88732 8.32176C4.92446 8.346 4.95046 8.38378 4.95969 8.42688C4.96892 8.46999 4.96063 8.51496 4.93662 8.55206C4.92488 8.57025 4.90955 8.58591 4.89156 8.5981C4.87357 8.61029 4.85328 8.61875 4.83192 8.62298C4.81055 8.62722 4.78854 8.62714 4.76721 8.62275C4.74587 8.61836 4.72565 8.60974 4.70775 8.59742C4.57889 8.51757 4.44342 8.4487 4.30281 8.39155C4.22231 8.35369 4.13704 8.32669 4.04929 8.3113C3.91933 8.30662 3.79277 8.35302 3.69718 8.4404C3.65555 8.47468 3.62246 8.51802 3.60048 8.56704C3.57849 8.61606 3.56821 8.66944 3.57042 8.72304C3.56979 8.87463 3.62774 9.0207 3.73239 9.13127C3.78463 9.19438 3.8563 9.23878 3.93643 9.25769C4.01656 9.2766 4.10073 9.26896 4.17606 9.23596C4.19686 9.22948 4.21876 9.22714 4.24048 9.22908C4.2622 9.23101 4.28331 9.23718 4.30262 9.24723C4.32192 9.25729 4.33904 9.27102 4.35297 9.28764C4.3669 9.30427 4.37738 9.32347 4.3838 9.34412C4.39711 9.38623 4.39311 9.43184 4.37267 9.47104C4.35223 9.51024 4.317 9.53986 4.27465 9.55347C4.18706 9.5815 4.09556 9.59564 4.00352 9.59535ZM1.18662 8.93238H1.15141C0.478875 8.7963 0.338031 8.41598 0.338031 8.1159C0.339179 8.02087 0.360827 7.92719 0.401516 7.84113C0.442205 7.75507 0.500989 7.67863 0.57394 7.61694C0.716243 7.48239 0.905423 7.4074 1.10211 7.40758C1.21074 7.41452 1.31765 7.43807 1.41902 7.47737C1.59807 7.55263 1.74415 7.68873 1.83099 7.86119C1.84262 7.8795 1.8505 7.8999 1.85414 7.92124C1.85779 7.94257 1.85713 7.9644 1.85222 7.98548C1.84731 8.00656 1.83825 8.02647 1.82554 8.04407C1.81283 8.06166 1.79673 8.07659 1.77817 8.08799C1.75949 8.09937 1.73871 8.10696 1.71704 8.11031C1.69537 8.11366 1.67324 8.11271 1.65194 8.10752C1.63065 8.10232 1.61061 8.09298 1.59299 8.08005C1.57537 8.06711 1.56052 8.05084 1.5493 8.03216C1.43662 7.85421 1.35211 7.80536 1.30985 7.7914C1.244 7.76271 1.1738 7.74502 1.10211 7.73907C0.988873 7.73863 0.880048 7.78252 0.799298 7.86119C0.760682 7.89214 0.729113 7.93084 0.70666 7.97473C0.684206 8.01863 0.671377 8.06674 0.669018 8.1159C0.669018 8.27989 0.728876 8.51019 1.21831 8.61138C1.26121 8.61981 1.29899 8.64474 1.3234 8.6807C1.34782 8.71666 1.35687 8.76073 1.34859 8.80328C1.34187 8.83739 1.32416 8.86841 1.29813 8.8917C1.2721 8.91498 1.23915 8.92925 1.20422 8.93238H1.18662ZM5.25 6.48991C5.2172 6.49093 5.185 6.48111 5.15845 6.462C4.73592 6.18286 4.53169 5.9107 4.53169 5.63156C4.53273 5.53854 4.5533 5.44676 4.59209 5.36206C4.63089 5.27735 4.68707 5.20158 4.75704 5.13957C4.8226 5.07047 4.9017 5.01534 4.98948 4.97754C5.07726 4.93975 5.1719 4.92008 5.26761 4.91975C5.4118 4.92977 5.55204 4.97088 5.67854 5.04019C5.80504 5.1095 5.91475 5.20534 6 5.32102C6.02809 5.35495 6.04162 5.39846 6.03767 5.44219C6.03372 5.48591 6.01261 5.52634 5.97887 5.55479C5.96263 5.56912 5.94363 5.58007 5.92303 5.58697C5.90242 5.59387 5.88063 5.59659 5.85894 5.59496C5.83725 5.59333 5.81612 5.58739 5.7968 5.57749C5.77748 5.5676 5.76036 5.55394 5.74648 5.53735C5.47183 5.21983 5.21127 5.1605 4.99296 5.37684C4.95434 5.40779 4.92277 5.44649 4.90031 5.49039C4.87786 5.53429 4.86504 5.58239 4.86268 5.63156C4.86268 5.73972 4.94719 5.92465 5.34507 6.18984C5.3747 6.20957 5.3971 6.23828 5.40891 6.27166C5.42073 6.30504 5.42134 6.34131 5.41064 6.37507C5.39995 6.40882 5.37853 6.43823 5.34958 6.45893C5.32062 6.47963 5.28569 6.49049 5.25 6.48991ZM2.10916 4.76622C2.02221 4.76347 1.9369 4.74208 1.8591 4.70353C1.78129 4.66498 1.71284 4.61019 1.65845 4.54291C1.51535 4.41004 1.42957 4.22753 1.41902 4.03348C1.41448 3.93603 1.43663 3.83916 1.48312 3.75317C1.52961 3.66717 1.59872 3.59523 1.6831 3.54498C1.8138 3.46766 1.96405 3.42893 2.1162 3.43333C2.16771 3.42832 2.21961 3.42832 2.27113 3.43333H2.28873C2.36458 3.45602 2.43871 3.484 2.51056 3.51707C2.55035 3.53598 2.58109 3.56956 2.59622 3.61064C2.61136 3.65171 2.60968 3.69703 2.59155 3.7369C2.58246 3.75673 2.56947 3.77457 2.55334 3.78938C2.53721 3.80419 2.51827 3.81565 2.49762 3.82313C2.47697 3.8306 2.45502 3.83392 2.43306 3.83289C2.4111 3.83186 2.38957 3.82651 2.36972 3.81714L2.21127 3.75434H2.1162C2.02618 3.75014 1.93689 3.77196 1.85916 3.81714C1.82215 3.83655 1.79191 3.8666 1.77243 3.90334C1.75295 3.94008 1.74513 3.9818 1.75 4.02302C1.76383 4.13242 1.81771 4.23299 1.90141 4.30564C2.03874 4.45219 2.12324 4.42776 2.15493 4.42079C2.17597 4.41483 2.19798 4.41304 2.21972 4.41551C2.24146 4.41799 2.2625 4.42468 2.28162 4.43521C2.30075 4.44574 2.3176 4.4599 2.3312 4.47688C2.34481 4.49386 2.35491 4.51334 2.36092 4.53419C2.36693 4.55504 2.36873 4.57686 2.36624 4.5984C2.36374 4.61994 2.35698 4.64078 2.34636 4.65973C2.33573 4.67869 2.32145 4.69538 2.30431 4.70887C2.28717 4.72235 2.26751 4.73235 2.24648 4.73831C2.20719 4.74719 2.16705 4.75187 2.12676 4.75227L2.10916 4.76622Z" fill="black"/>
<path d="M14.6549 32.4781C13.7058 32.476 12.7677 32.2763 11.9014 31.8919C11.8613 31.8743 11.8298 31.8416 11.8139 31.8011C11.7981 31.7605 11.7992 31.7153 11.8169 31.6756C11.8347 31.6358 11.8676 31.6046 11.9086 31.5889C11.9495 31.5732 11.9951 31.5742 12.0352 31.5918C13.4278 32.2077 14.995 32.3177 16.4613 31.9024C16.5038 31.8908 16.5492 31.8964 16.5875 31.918C16.6258 31.9396 16.6538 31.9754 16.6655 32.0175C16.6772 32.0596 16.6715 32.1046 16.6497 32.1425C16.6279 32.1805 16.5918 32.2083 16.5493 32.2199C15.9322 32.3888 15.2952 32.4756 14.6549 32.4781ZM14.5141 30.2519C13.5131 30.2495 12.5186 30.0918 11.5669 29.7844C11.546 29.7777 11.5266 29.7669 11.5099 29.7527C11.4932 29.7385 11.4796 29.7212 11.4698 29.7017C11.4599 29.6822 11.4541 29.6609 11.4527 29.6392C11.4512 29.6174 11.4541 29.5956 11.4613 29.575C11.4676 29.5544 11.4781 29.5353 11.4921 29.5188C11.5061 29.5023 11.5233 29.4888 11.5427 29.479C11.5621 29.4692 11.5833 29.4634 11.605 29.4619C11.6267 29.4604 11.6485 29.4633 11.669 29.4703C13.1985 29.9688 14.8341 30.0555 16.4085 29.7216C16.4492 29.7185 16.4897 29.7301 16.5225 29.7543C16.5553 29.7786 16.5781 29.8137 16.5867 29.8533C16.5953 29.893 16.5891 29.9343 16.5692 29.9697C16.5494 30.0052 16.5173 30.0323 16.4789 30.0461C15.833 30.183 15.1746 30.2531 14.5141 30.2554V30.2519ZM14.4014 27.9944C13.4125 27.9896 12.427 27.8808 11.4613 27.6699C11.4398 27.6658 11.4193 27.6574 11.4012 27.6452C11.383 27.633 11.3675 27.6173 11.3557 27.5991C11.3438 27.5808 11.3358 27.5604 11.3322 27.5389C11.3286 27.5175 11.3293 27.4956 11.3345 27.4745C11.3446 27.4324 11.3708 27.3957 11.4076 27.3723C11.4443 27.3489 11.4888 27.3405 11.5317 27.3489C13.0008 27.6783 14.5173 27.7468 16.0106 27.5513C16.054 27.5453 16.098 27.5566 16.133 27.5828C16.168 27.609 16.1911 27.6478 16.1972 27.6908C16.2007 27.7122 16.1997 27.734 16.1945 27.755C16.1892 27.7761 16.1797 27.7958 16.1666 27.8131C16.1534 27.8303 16.1369 27.8448 16.1179 27.8556C16.099 27.8663 16.078 27.8732 16.0563 27.8758C15.5084 27.9557 14.9553 27.9966 14.4014 27.9979V27.9944Z" fill="#66CE94"/>
<path d="M16.0105 15.5272H15.9437C15.8236 15.5056 15.712 15.4509 15.6217 15.3695C15.5315 15.2881 15.4661 15.1831 15.4331 15.0667C15.3105 14.7611 15.2728 14.4285 15.3239 14.1036C15.3598 13.7782 15.4812 13.4678 15.676 13.2034C15.7385 13.0996 15.8281 13.0144 15.9352 12.9566C16.0424 12.8989 16.1633 12.8709 16.2852 12.8754C16.4052 12.899 16.5162 12.9552 16.6058 13.0378C16.6953 13.1204 16.7599 13.2261 16.7922 13.343C16.9063 13.6214 16.9475 13.9239 16.912 14.2223C16.9029 14.2255 16.8929 14.2255 16.8838 14.2223H16.8662H16.7218C16.5996 14.2153 16.4777 14.2418 16.3697 14.299C16.3313 14.3206 16.2995 14.3521 16.2778 14.3902C16.256 14.4283 16.2452 14.4716 16.2465 14.5154C16.2465 14.6096 16.3063 14.6863 16.4296 14.7596C16.504 14.8038 16.5847 14.8367 16.669 14.8573H16.6866V14.8782C16.6886 14.8863 16.6886 14.8946 16.6866 14.9027C16.688 14.9084 16.688 14.9144 16.6866 14.9201C16.6456 14.9992 16.5985 15.075 16.5458 15.1469C16.4946 15.2487 16.4191 15.3366 16.3258 15.4029C16.2325 15.4692 16.1243 15.5119 16.0105 15.5272ZM16.2113 12.9766C16.117 12.9848 16.0261 13.015 15.9459 13.0647C15.8657 13.1144 15.7986 13.1823 15.75 13.2627C15.5802 13.5171 15.4724 13.8072 15.4351 14.11C15.3979 14.4127 15.4321 14.7199 15.5352 15.0073C15.6373 15.2551 15.7746 15.3842 15.9542 15.4016C16.0567 15.4074 16.1588 15.3843 16.2486 15.3349C16.3383 15.2855 16.4121 15.2118 16.4613 15.1225C16.4974 15.0735 16.5303 15.0222 16.5599 14.969C16.4897 14.9465 16.4223 14.916 16.3591 14.8782C16.2906 14.848 16.2321 14.7992 16.1904 14.7375C16.1487 14.6758 16.1254 14.6036 16.1232 14.5293C16.1214 14.467 16.1364 14.4053 16.1667 14.3507C16.1971 14.2961 16.2416 14.2505 16.2958 14.2188C16.4179 14.1541 16.5552 14.1228 16.6936 14.1281H16.7922C16.8142 13.8656 16.7744 13.6016 16.676 13.3569C16.5739 13.1092 16.4401 12.9801 16.2606 12.9557L16.2113 12.9766ZM9.55633 15.1958H9.4859C9.36644 15.1735 9.25564 15.1186 9.16603 15.0372C9.07643 14.9558 9.01159 14.8512 8.97886 14.7352C8.86804 14.4284 8.83103 14.1002 8.87077 13.7767C8.9105 13.4532 9.02589 13.1434 9.20774 12.8719C9.26977 12.7675 9.35911 12.6815 9.46632 12.6232C9.57353 12.5648 9.69464 12.5363 9.81689 12.5404C9.93684 12.5654 10.0476 12.6225 10.137 12.7056C10.2264 12.7887 10.2911 12.8945 10.3239 13.0115C10.4362 13.2891 10.4773 13.59 10.4436 13.8873C10.4452 13.8942 10.4452 13.9013 10.4436 13.9082V13.9257H10.2782C10.1562 13.9172 10.0343 13.9426 9.92604 13.999C9.88733 14.0202 9.85533 14.0517 9.83357 14.0899C9.81182 14.128 9.80117 14.1715 9.80281 14.2153C9.80281 14.3095 9.86266 14.3897 9.9859 14.4595C10.0604 14.5037 10.1411 14.5366 10.2253 14.5572V14.5747C10.227 14.5827 10.227 14.5911 10.2253 14.5991C10.2275 14.6047 10.2275 14.6109 10.2253 14.6165C10.1847 14.6958 10.1376 14.7716 10.0845 14.8433C10.0306 14.9391 9.95466 15.0209 9.8629 15.0821C9.77114 15.1433 9.66611 15.1823 9.55633 15.1958ZM9.75703 12.6451C9.6624 12.6534 9.57114 12.684 9.4909 12.7344C9.41065 12.7848 9.34374 12.8535 9.29577 12.9347C9.12572 13.189 9.01778 13.4791 8.9805 13.7819C8.94322 14.0847 8.97761 14.392 9.08097 14.6794C9.18308 14.9271 9.32041 15.0562 9.49999 15.0771C9.60214 15.0811 9.7034 15.0568 9.79235 15.0069C9.88131 14.9569 9.95443 14.8834 10.0035 14.7945C10.0416 14.7461 10.0757 14.6947 10.1056 14.641C10.0346 14.6207 9.96696 14.5901 9.90491 14.5503C9.83575 14.5205 9.77652 14.472 9.73413 14.4102C9.69174 14.3484 9.66793 14.276 9.66548 14.2013C9.66397 14.1387 9.67952 14.0768 9.7105 14.0221C9.74148 13.9675 9.78675 13.9221 9.84154 13.8908C9.96371 13.8262 10.101 13.7948 10.2394 13.8001H10.338C10.3606 13.5372 10.3196 13.2729 10.2183 13.0289C10.1197 12.7812 9.98239 12.6486 9.80281 12.6277L9.75703 12.6451Z" fill="black"/>
</g>
<defs>
<clipPath id="clip0_101:190">
<rect width="39" height="37" fill="white"/>
</clipPath>
</defs>
</svg>
