<svg width="38" height="38" viewBox="0 0 38 38" fill="none" xmlns="http://www.w3.org/2000/svg">
<g clip-path="url(#clip0_101:114)">
<path d="M7.45699 5.94053C7.49636 6.73601 7.80921 7.49225 8.34102 8.07747L11.4767 6.36845C11.1733 5.81942 10.8189 5.3011 10.4185 4.82056C10.1139 4.51796 9.74463 4.29104 9.33943 4.15755C8.95938 3.98073 8.53232 3.93706 8.12521 4.0334C7.65546 4.42434 7.43272 5.06005 7.45699 5.94053Z" fill="#66CE94"/>
<path d="M8.34102 8.20692C8.32439 8.20693 8.30792 8.20341 8.2927 8.19659C8.27748 8.18976 8.26383 8.17979 8.25261 8.1673C7.70169 7.56093 7.377 6.77783 7.3348 5.95376C7.3062 5.02925 7.548 4.35568 8.04721 3.93833C8.05905 3.92775 8.07337 3.92046 8.08881 3.9172C8.52395 3.81105 8.98153 3.85568 9.38884 4.04399C9.81049 4.1859 10.1953 4.42244 10.5147 4.73605C10.9204 5.22454 11.2799 5.75076 11.5885 6.30772C11.6003 6.3392 11.6003 6.37398 11.5885 6.40545C11.5787 6.43769 11.5574 6.46502 11.5287 6.48205L8.39303 8.19107C8.37712 8.20034 8.35932 8.20576 8.34102 8.20692ZM8.18501 4.147C7.7586 4.51416 7.5558 5.11642 7.5792 5.93791C7.61568 6.66948 7.89001 7.3681 8.35923 7.92429L11.2973 6.32357C11.0157 5.82226 10.6893 5.34832 10.3223 4.90774C10.0273 4.61981 9.67161 4.40391 9.28225 4.27644C8.93821 4.12004 8.55516 4.07485 8.18501 4.147Z" fill="black"/>
<path d="M9.02224 29.9198C8.97977 31.4875 9.37554 33.0353 10.1637 34.3838C10.4159 34.5226 10.6764 34.6453 10.9437 34.751C12.4344 35.3251 14.3801 35.4783 16.7808 35.2106C17.21 34.1642 17.4073 33.0347 17.3587 31.9021C17.3102 30.7696 17.0171 29.6618 16.5 28.6572C15.4392 26.4806 14.0213 25.4302 12.2463 25.5059C10.1143 25.4443 9.03957 26.9173 9.02224 29.9251V29.9198ZM10.5485 30.4534C12.111 30.979 13.7835 31.0702 15.3924 30.7175C13.7835 31.0702 12.111 30.979 10.5485 30.4534ZM10.4237 28.2768C11.9176 28.6224 13.4605 28.6931 14.979 28.4855C13.4605 28.6931 11.9176 28.6224 10.4237 28.2768ZM10.8969 32.6326C12.3302 33.2861 13.9452 33.4021 15.4548 32.9601C13.9452 33.4021 12.3302 33.2861 10.8969 32.6326ZM16.1282 5.56555C16.8217 5.69275 17.5035 5.8783 18.1667 6.12025L19.0013 4.27123L20.4703 4.55387C20.7097 4.32264 20.8686 4.01852 20.9228 3.68747C20.5335 3.35031 20.1098 3.05632 19.6591 2.81051L20.4547 1.04602C20.2739 0.82639 20.0311 0.668372 19.7592 0.593273C19.4872 0.518175 19.1991 0.529608 18.9337 0.626025C18.067 1.7689 17.1319 3.41364 16.1282 5.56027V5.56555ZM14.6852 0.657721C14.2978 0.0818837 13.8194 -0.0316986 13.2421 0.319615L12.6077 2.10788C12.1581 2.03227 11.6979 2.05115 11.2557 2.16336C10.9307 2.50939 10.8475 2.80523 10.9957 3.05088C11.3155 3.30714 11.6836 3.49413 12.0773 3.60031L11.2791 5.84026C11.4845 5.77158 11.6977 5.71083 11.9213 5.65536C12.3478 5.54224 12.7825 5.46451 13.2214 5.42291L14.6852 0.657721Z" fill="#FEF5AA"/>
<path d="M33.3459 31.9114C34.2415 32.1777 35.1535 32.3833 36.076 32.5268C36.1384 31.774 35.7327 31.288 34.8565 31.074C34.1571 30.8997 33.6553 31.1797 33.3459 31.9114ZM29.9788 30.5484C30.4381 29.7401 30.2821 29.0454 29.5108 28.4643C28.7394 27.8831 28.0261 27.8629 27.3709 28.4035C28.0815 29.2942 28.967 30.0247 29.971 30.5484H29.9788ZM31.986 30.1522C31.6683 30.0473 31.3275 30.0378 31.0047 30.125C30.6818 30.2121 30.3906 30.3922 30.166 30.6435C31.1301 31.1259 32.1309 31.5287 33.1587 31.848C33.0547 30.9235 32.6647 30.3582 31.9938 30.1522H31.986ZM27.5139 25.7515C27.2123 24.8287 26.5086 24.3339 25.4027 24.267L25.4703 24.5047V24.5628C25.7556 25.5958 26.1809 26.5835 26.7339 27.4975C26.7547 27.5345 26.7781 27.5688 26.8015 27.6058L26.8665 27.7062L26.8847 27.7352L26.9783 27.8726C26.9877 27.8889 26.9991 27.904 27.0121 27.9175L27.0719 28.0073L27.0979 28.0416L27.1161 28.0654C27.1239 28.0792 27.1326 28.0924 27.1421 28.105L27.2279 28.2186C27.2361 28.2263 27.2431 28.2352 27.2487 28.245L27.2773 28.2794C27.5011 27.9031 27.6386 27.4805 27.6795 27.0429C27.7205 26.6052 27.6639 26.1638 27.5139 25.7515ZM25.3247 23.9685C26.1446 23.0968 26.4418 22.1283 26.2165 21.0629C25.9877 19.9905 25.4183 19.346 24.5056 19.1214C24.6825 20.2203 24.8333 21.187 24.9503 22.027C25.0403 22.6824 25.1653 23.3322 25.3247 23.9738V23.9685ZM25.2623 17.7611C25.4373 17.2969 25.4928 16.795 25.4235 16.303C25.3895 15.8409 25.1962 15.4059 24.8775 15.0744C24.5589 14.7429 24.1353 14.5363 23.6814 14.491C23.8444 15.2728 24.0879 16.6288 24.412 18.5588C24.6083 18.5107 24.7892 18.4128 24.9379 18.2742C25.0867 18.1356 25.1983 17.9608 25.2623 17.7664V17.7611ZM22.7012 10.7559C22.8156 11.0729 22.9248 11.4084 23.0236 11.757C23.242 12.5442 23.4613 13.4573 23.6814 14.4962C24.4874 14.1088 24.8029 13.4203 24.6279 12.4306C24.3991 11.1768 23.7542 10.6186 22.6934 10.7559H22.7012Z" fill="#1F969A"/>
<path d="M7.16579 8.66926C6.22457 10.078 5.62308 11.9623 5.36134 14.322C4.88608 14.6487 4.48863 15.0791 4.19804 15.5818C3.90745 16.0845 3.73105 16.6468 3.68171 17.2276C3.80251 17.1628 3.92662 17.1046 4.05352 17.0533C4.35645 16.9175 4.69267 16.8779 5.01813 16.9397C5.23522 16.9635 5.44647 17.0261 5.64215 17.1246C5.44647 17.0261 5.23522 16.9635 5.01813 16.9397C4.69267 16.8779 4.35645 16.9175 4.05352 17.0533C3.92662 17.1046 3.80251 17.1628 3.68171 17.2276C3.66428 17.4402 3.65992 17.6537 3.6687 17.8668C3.76576 20.4572 5.071 22.1372 7.5844 22.9067C7.782 22.9648 7.98482 23.0177 8.19282 23.0652C10.6421 23.6375 13.38 23.6815 16.4064 23.1973C13.38 23.6833 10.6421 23.6393 8.19282 23.0652C7.98482 23.0177 7.782 22.9648 7.5844 22.9067C6.04169 26.5783 5.70976 30.0351 6.58858 33.2771C6.83646 34.3448 7.02397 35.426 7.15019 36.5155C7.23079 37.3079 7.73781 37.7226 8.66604 37.7887C9.71646 37.9067 10.3656 37.6196 10.6135 36.9276C10.8643 36.2266 10.9799 35.4832 10.9541 34.7378C10.6868 34.632 10.4263 34.5094 10.1741 34.3706C10.0181 34.2808 9.86727 34.1857 9.72166 34.088C9.86727 34.1857 10.0181 34.2808 10.1741 34.3706C9.38594 33.0221 8.99017 31.4743 9.03264 29.9066C9.05171 26.9006 10.1264 25.4275 12.2567 25.4874C14.03 25.4135 15.4479 26.4639 16.5104 28.6387C17.0299 29.6432 17.3253 30.7515 17.3756 31.8851C17.4259 33.0186 17.23 34.1495 16.8016 35.1974C17.0235 36.1343 17.3147 36.8201 17.6753 37.2551C18.0358 37.6901 18.6338 37.8917 19.4693 37.86C20.2987 37.8336 20.876 37.5959 21.1958 37.1257C21.5156 36.6555 21.8614 35.8049 22.2358 34.5503C28.4534 36.1985 32.8571 36.3403 35.4467 34.9755C38.0364 33.6108 38.5564 32.8298 37.0068 32.6326C36.6948 32.5982 36.3828 32.5586 36.076 32.5137C35.1535 32.3702 34.2415 32.1646 33.3459 31.8982C33.2835 31.8753 33.2211 31.8542 33.1587 31.8348C32.1309 31.5156 31.1301 31.1128 30.166 30.6303L30.0568 30.5749C30.0319 30.5596 30.0058 30.5463 29.9788 30.5352C28.9748 30.0115 28.0893 29.2811 27.3787 28.3904L27.2903 28.2768L27.2617 28.2425C27.2561 28.2327 27.2491 28.2238 27.2409 28.216L27.1551 28.1025C27.1456 28.0899 27.1369 28.0766 27.1291 28.0628L27.1109 28.0391L27.0849 28.0047L27.0251 27.9149C27.0121 27.9014 27.0007 27.8864 26.9913 27.87L26.8977 27.7327L26.8795 27.7036L26.8145 27.6032C26.1916 26.6845 25.742 25.6563 25.4885 24.5708V24.5127L25.4209 24.275C25.3897 24.177 25.3637 24.0773 25.3429 23.9765C25.1835 23.3349 25.0585 22.6851 24.9685 22.0298C24.8515 21.1924 24.7085 20.2256 24.5239 19.1242C24.4953 18.9392 24.4615 18.7517 24.4303 18.5589C24.1061 16.6218 23.8626 15.2659 23.6996 14.491C23.4691 13.4538 23.2412 12.5408 23.0158 11.7518C22.917 11.4032 22.8078 11.0677 22.6934 10.7507C22.0434 8.96863 21.1282 7.70337 19.9477 6.95496C19.3765 6.62898 18.781 6.34901 18.1667 6.11762C17.5035 5.87567 16.8217 5.69012 16.1282 5.56292L15.7772 5.50744C14.9293 5.37279 14.0683 5.34441 13.2136 5.42292C12.7747 5.46451 12.34 5.54225 11.9135 5.65537C11.6899 5.71084 11.4767 5.77159 11.2713 5.84027C9.37499 6.4478 8.00302 7.38904 7.1554 8.66398L7.16579 8.66926ZM7.5402 13.1835C7.6676 13.1545 7.78461 13.1228 7.89641 13.0884C8.1537 13.0141 8.4022 12.9114 8.63744 12.782L8.69463 12.7477C8.81632 12.6722 8.92964 12.5837 9.03264 12.4835C8.92964 12.5837 8.81632 12.6722 8.69463 12.7477H8.80124C8.90226 12.7545 8.99912 12.7911 9.07995 12.853C9.16077 12.915 9.22206 12.9995 9.25626 13.0963C9.34958 13.2727 9.39953 13.4693 9.40186 13.6695C9.40146 13.7172 9.39356 13.7644 9.37845 13.8095C9.36816 13.8431 9.36119 13.8776 9.35765 13.9126C9.3665 13.9763 9.39794 14.0345 9.44606 14.0763C9.50623 14.1502 9.53603 14.2448 9.52926 14.3405C9.52954 14.4799 9.49746 14.6175 9.43565 14.742C9.40526 14.8096 9.36591 14.8727 9.31866 14.9295C9.23285 14.9295 9.14965 14.9295 9.05865 14.9295C9.19385 15.0246 9.25884 15.1144 9.25884 15.1937C9.25884 15.3548 9.12364 15.5027 8.85323 15.6348C8.60044 15.7658 8.31728 15.8242 8.03422 15.8038C7.83156 15.792 7.63217 15.7465 7.444 15.6691C7.37997 15.6294 7.32823 15.5721 7.29467 15.504C7.26111 15.4358 7.24709 15.3594 7.2542 15.2835C7.25337 15.1885 7.27239 15.0944 7.31005 15.0074C7.3477 14.9204 7.4031 14.8425 7.4726 14.779L7.50121 14.7525C7.46008 14.6521 7.43886 14.5444 7.4388 14.4356C7.44107 14.3449 7.45958 14.2554 7.4934 14.1714C7.51695 14.1204 7.53608 14.0673 7.5506 14.0129C7.52552 13.964 7.51217 13.9097 7.5116 13.8544C7.51248 13.7123 7.54258 13.572 7.6 13.4424C7.65752 13.3004 7.75642 13.1796 7.88341 13.0963C7.77161 13.1307 7.65461 13.1624 7.5272 13.1914L7.5402 13.1835ZM13.5542 11.8707C13.5486 12.0445 13.5812 12.2174 13.6496 12.3769C13.7179 12.5363 13.8203 12.6783 13.9494 12.7926C13.8203 12.6783 13.7179 12.5363 13.6496 12.3769C13.5812 12.2174 13.5486 12.0445 13.5542 11.8707ZM14.2718 14.5808C14.271 14.2109 14.3857 13.8502 14.5994 13.5507C14.8204 13.2337 15.0492 13.0911 15.291 13.1228C15.4505 13.1393 15.6087 13.1676 15.7642 13.2073C15.347 13.0292 14.9573 12.7908 14.6072 12.4994C14.9573 12.7908 15.347 13.0292 15.7642 13.2073C15.9296 13.2618 16.0858 13.342 16.227 13.445C16.417 13.6312 16.5467 13.8716 16.5988 14.1344C16.6873 14.4408 16.6136 14.8371 16.3778 15.3231C16.424 15.353 16.4623 15.3939 16.4895 15.4422C16.5167 15.4905 16.5319 15.5448 16.5338 15.6004C16.5333 15.6407 16.5272 15.6807 16.5156 15.7193L16.5728 15.751L16.5156 15.7193C16.4945 15.7972 16.458 15.8698 16.4084 15.933C16.3588 15.9961 16.2971 16.0483 16.227 16.0865C15.9706 16.2248 15.6825 16.2913 15.3924 16.2793C15.2912 16.2786 15.1903 16.2688 15.0908 16.2502C15.0188 16.2348 14.9458 16.2251 14.8724 16.2212C14.7771 16.2305 14.6825 16.2454 14.589 16.2661C14.4449 16.3 14.2975 16.3177 14.1496 16.3189C14.0582 16.3305 13.9654 16.3205 13.8784 16.2899C13.7913 16.2592 13.7124 16.2086 13.6478 16.1419C13.5709 16.0175 13.5362 15.8709 13.549 15.7246C13.5519 15.6177 13.5813 15.5132 13.6345 15.4209C13.6876 15.3285 13.7629 15.2513 13.8532 15.1963C14.0003 15.0915 14.1711 15.0261 14.3498 15.0061C14.2993 14.872 14.2729 14.7297 14.2718 14.5861V14.5808ZM22.2306 19.6049C22.7168 19.6313 23.0106 19.5098 23.1146 19.243C23.0106 19.5072 22.7168 19.6313 22.2306 19.6049C21.8133 19.5986 21.4068 19.4692 21.0606 19.2325C20.7642 19.0141 20.4504 18.7684 20.1193 18.4955C19.8612 18.2739 19.5874 18.0717 19.3003 17.8906C18.984 17.7292 18.6394 17.6331 18.2863 17.608C17.7971 17.556 17.3029 17.6324 16.851 17.8298C17.3029 17.6324 17.7971 17.556 18.2863 17.608C18.6394 17.6331 18.984 17.7292 19.3003 17.8906C19.5874 18.0717 19.8612 18.2739 20.1193 18.4955C20.4487 18.7684 20.7624 19.0141 21.0606 19.2325C21.414 19.4718 21.8292 19.5995 22.254 19.5996L22.2306 19.6049Z" fill="#66CE94"/>
<path d="M16.4012 15.3178C16.3596 15.4049 16.3128 15.4921 16.2608 15.5819C16.3562 15.6201 16.4491 15.6642 16.539 15.714C16.5505 15.6754 16.5567 15.6354 16.5572 15.5951C16.5553 15.5395 16.5401 15.4852 16.5129 15.4369C16.4857 15.3886 16.4474 15.3477 16.4012 15.3178ZM16.2608 15.5819L16.2062 15.6506L16.2608 15.5819C15.7559 15.3999 15.2136 15.3518 14.6852 15.4419H14.6618C14.4971 15.461 14.3338 15.491 14.173 15.5317C14.3338 15.491 14.4971 15.461 14.6618 15.4419C14.5434 15.3234 14.4488 15.1825 14.3836 15.0272C14.3836 15.0272 14.3836 15.0061 14.3836 14.9955C14.2049 15.0155 14.0341 15.0809 13.887 15.1857C13.7967 15.2407 13.7214 15.3179 13.6683 15.4103C13.6151 15.5026 13.5857 15.6071 13.5827 15.714C13.57 15.8603 13.6047 16.0069 13.6816 16.1313C13.7462 16.198 13.8251 16.2486 13.9122 16.2793C13.9992 16.3099 14.092 16.3199 14.1834 16.3083C14.3313 16.3071 14.4786 16.2894 14.6228 16.2555C14.7163 16.2348 14.8109 16.2199 14.9062 16.2106C14.9796 16.2145 15.0526 16.2242 15.1246 16.2396C15.2241 16.2582 15.325 16.2679 15.4262 16.2687C15.7163 16.2807 16.0043 16.2142 16.2608 16.0759C16.3309 16.0377 16.3926 15.9855 16.4422 15.9224C16.4918 15.8592 16.5283 15.7866 16.5494 15.7087C16.4595 15.6589 16.3666 15.6148 16.2712 15.5766L16.2608 15.5819ZM15.9644 14.5703C15.9322 14.6436 15.9136 14.7224 15.9098 14.8027V14.837C15.9228 14.9506 15.9956 15.0061 16.1308 15.0061C16.1746 15.0055 16.2175 14.9937 16.2556 14.9718C16.3132 14.9368 16.3621 14.8889 16.3986 14.8318C16.4359 14.7812 16.4576 14.7205 16.461 14.6574C16.4688 14.6039 16.4626 14.5492 16.4428 14.4989C16.4038 14.3801 16.305 14.3404 16.149 14.3721C16.0814 14.3721 16.0216 14.4461 15.9696 14.5597L15.9644 14.5703ZM15.0726 14.7578C15.0449 14.7778 15.0224 14.8044 15.007 14.8352C14.9916 14.8661 14.9838 14.9002 14.9842 14.9348C14.9853 14.9629 14.9924 14.9904 15.005 15.0155C15.0175 15.0406 15.0353 15.0626 15.057 15.0801C15.0682 15.0935 15.0813 15.1051 15.096 15.1144C15.1604 15.1642 15.2387 15.1919 15.3196 15.1936H15.3352C15.5085 15.1936 15.6125 15.1487 15.6472 15.0589C15.6512 15.0344 15.6512 15.0094 15.6472 14.985C15.6482 14.9362 15.6346 14.8883 15.6082 14.8476C15.5358 14.7755 15.4462 14.7236 15.3482 14.697C15.3258 14.694 15.303 14.694 15.2806 14.697H15.252C15.1844 14.7015 15.1198 14.7274 15.0674 14.771L15.0726 14.7578ZM14.6566 14.0525C14.6578 14.1113 14.68 14.1676 14.719 14.211L14.7788 14.2612C14.8698 14.3314 14.9818 14.3678 15.096 14.3642C15.2656 14.3694 15.4326 14.3214 15.5744 14.2269C15.6282 14.1923 15.6772 14.1505 15.72 14.1027C15.7691 14.0499 15.8119 13.9914 15.8474 13.9284C15.8715 13.8828 15.8848 13.8322 15.8864 13.7805C15.8864 13.6563 15.8058 13.5691 15.642 13.5163C15.5634 13.488 15.481 13.472 15.3976 13.4688C15.3786 13.4673 15.3594 13.4673 15.3404 13.4688L15.0024 13.5295L14.9348 13.5586C14.8481 13.6048 14.776 13.6749 14.7268 13.7609C14.6775 13.8468 14.6532 13.9452 14.6566 14.0446V14.0525ZM7.53499 14.7472L7.50639 14.7736C7.4369 14.8372 7.38149 14.9151 7.34384 15.0021C7.30619 15.089 7.28716 15.1831 7.28799 15.2782C7.28088 15.3541 7.2949 15.4304 7.32846 15.4986C7.36202 15.5668 7.41376 15.6241 7.47779 15.6638C7.66596 15.7412 7.86535 15.7867 8.06801 15.7985C8.35107 15.8189 8.63423 15.7604 8.88702 15.6295C9.14703 15.4974 9.29263 15.3495 9.29263 15.1884C9.29263 15.1012 9.22764 15.0114 9.09244 14.9242C8.65174 14.9284 8.21392 14.9969 7.79241 15.1276L7.5324 15.2121L7.79241 15.1276C7.71112 15.0698 7.64287 14.995 7.5922 14.9084C7.56456 14.8594 7.54107 14.8081 7.52199 14.7551L7.53499 14.7472ZM9.01963 14.4144H8.99103C8.95051 14.4188 8.91278 14.4375 8.88442 14.4672C8.87096 14.4804 8.85955 14.4955 8.85062 14.5121C8.83673 14.54 8.82961 14.5708 8.82983 14.6019C8.82932 14.627 8.83391 14.6519 8.8433 14.6751C8.8527 14.6983 8.86669 14.7192 8.88442 14.7367C8.91299 14.767 8.95033 14.7874 8.99103 14.7948H9.01963C9.04454 14.7953 9.06926 14.7904 9.09214 14.7803C9.11501 14.7703 9.13551 14.7554 9.15224 14.7367C9.17031 14.7194 9.18471 14.6985 9.19454 14.6753C9.20438 14.6521 9.20945 14.6272 9.20943 14.6019C9.21002 14.559 9.19628 14.5171 9.17044 14.4831L9.15224 14.4672C9.14154 14.4547 9.1282 14.4448 9.11323 14.4382C9.08547 14.4195 9.05295 14.4094 9.01963 14.4091V14.4144ZM9.18083 13.8808C9.15382 13.8807 9.12706 13.8861 9.10207 13.8965C9.07709 13.9069 9.05438 13.9222 9.03523 13.9416C9.01582 13.9608 9.0005 13.9838 8.99021 14.0092C8.97992 14.0347 8.97489 14.062 8.97543 14.0895C8.97485 14.1325 8.98858 14.1744 9.01443 14.2084C9.01983 14.2191 9.02686 14.2289 9.03523 14.2374C9.05438 14.2568 9.07709 14.2721 9.10207 14.2825C9.12706 14.293 9.15382 14.2983 9.18083 14.2982C9.23531 14.2982 9.28755 14.2762 9.32607 14.2371C9.36459 14.1979 9.38625 14.1448 9.38625 14.0895V14.0499C9.37577 14.0092 9.35517 13.9719 9.32644 13.9416C9.28761 13.9027 9.23533 13.8809 9.18083 13.8808ZM7.7378 14.6733C7.73938 14.6923 7.7477 14.7101 7.76121 14.7235C7.78818 14.7567 7.82186 14.7838 7.85999 14.8027C7.93044 14.8414 8.00874 14.8631 8.0888 14.8661C8.22914 14.8616 8.36568 14.8187 8.48402 14.7419C8.52302 14.7181 8.56037 14.6917 8.59582 14.6627C8.65562 14.6152 8.68423 14.5702 8.68423 14.5306C8.68314 14.5136 8.67809 14.497 8.6695 14.4823C8.66091 14.4676 8.64904 14.4552 8.63483 14.4461C8.61333 14.4282 8.58859 14.4147 8.56202 14.4065C8.50622 14.3816 8.44614 14.3681 8.38521 14.3669C8.27359 14.3785 8.16312 14.3997 8.055 14.4303C7.96172 14.471 7.87427 14.5243 7.79499 14.5887C7.78118 14.5983 7.7696 14.6108 7.76106 14.6254C7.75253 14.64 7.74725 14.6564 7.74559 14.6733H7.7378ZM7.9016 13.7461C7.90288 13.7974 7.91544 13.8478 7.93839 13.8935C7.96134 13.9392 7.99409 13.9791 8.03421 14.0103C8.12012 14.083 8.22919 14.1215 8.34102 14.1186C8.48857 14.1191 8.63278 14.074 8.75442 13.9891L8.84283 13.9099C8.89852 13.8664 8.94498 13.812 8.97939 13.7498C9.01379 13.6876 9.03545 13.6189 9.04304 13.548C9.04304 13.3922 9.01963 13.2971 8.97023 13.2601C8.91248 13.2238 8.84778 13.2004 8.78043 13.1914C8.73623 13.1914 8.68682 13.1703 8.63222 13.1624H8.57501C8.4952 13.1732 8.41677 13.1927 8.34102 13.2205L8.28122 13.2574C8.01341 13.4397 7.8964 13.6008 7.8964 13.7567L7.9016 13.7461Z" fill="white"/>
<path d="M14.6228 13.5454C14.4091 13.845 14.2944 14.2057 14.2952 14.5756C14.2963 14.7192 14.3227 14.8614 14.3732 14.9956C14.3732 14.9956 14.3732 15.0194 14.3732 15.0273C14.4385 15.1826 14.533 15.3235 14.6514 15.442H14.6748C15.2032 15.3518 15.7455 15.4 16.2504 15.582C16.3024 15.4922 16.3492 15.405 16.3908 15.3179C16.6283 14.8318 16.702 14.4356 16.6118 14.1292C16.5597 13.8664 16.43 13.6259 16.24 13.4398C16.0988 13.3367 15.9426 13.2565 15.7772 13.202C15.6217 13.1623 15.4635 13.1341 15.304 13.1175C15.0622 13.0858 14.8334 13.2285 14.6124 13.5454H14.6228ZM14.6982 14.2137C14.6592 14.1703 14.637 14.114 14.6358 14.0552C14.6324 13.9558 14.6567 13.8575 14.706 13.7715C14.7552 13.6855 14.8273 13.6154 14.914 13.5692L14.9816 13.5401L15.3196 13.4794C15.3386 13.4779 15.3578 13.4779 15.3768 13.4794C15.4602 13.4826 15.5426 13.4987 15.6212 13.5269C15.785 13.5798 15.8656 13.6669 15.8656 13.7911C15.864 13.8428 15.8507 13.8934 15.8266 13.939C15.7911 14.002 15.7483 14.0606 15.6992 14.1134C15.6564 14.1612 15.6074 14.2029 15.5536 14.2375C15.4118 14.3321 15.2448 14.38 15.0752 14.3749C14.961 14.3784 14.849 14.3421 14.758 14.2718L14.6982 14.2217V14.2137ZM14.9582 14.9586C14.9578 14.9241 14.9656 14.8899 14.981 14.8591C14.9964 14.8283 15.0189 14.8017 15.0466 14.7816C15.099 14.738 15.1636 14.7122 15.2312 14.7077H15.2598C15.2822 14.7047 15.305 14.7047 15.3274 14.7077C15.4254 14.7342 15.515 14.7861 15.5874 14.8582C15.6138 14.899 15.6274 14.9469 15.6264 14.9956C15.6304 15.0201 15.6304 15.0451 15.6264 15.0696C15.5935 15.1594 15.4895 15.2043 15.3144 15.2043H15.2936C15.2127 15.2026 15.1344 15.1748 15.07 15.125C15.0553 15.1157 15.0422 15.1041 15.031 15.0907C15.0093 15.0732 14.9915 15.0512 14.979 15.0261C14.9664 15.0011 14.9593 14.9735 14.9582 14.9454V14.9586ZM15.9436 14.5756C15.9956 14.462 16.0554 14.4013 16.123 14.3881C16.279 14.3564 16.383 14.3881 16.4168 14.5148C16.4366 14.5651 16.4429 14.6198 16.435 14.6733C16.4317 14.7364 16.4099 14.7971 16.3726 14.8477C16.3361 14.9048 16.2872 14.9527 16.2296 14.9877C16.1915 15.0096 16.1486 15.0214 16.1048 15.022C15.9696 15.022 15.8968 14.9665 15.8838 14.853V14.8186C15.8877 14.7384 15.9062 14.6595 15.9384 14.5862L15.9436 14.5756ZM7.89121 13.099C7.76422 13.1823 7.66532 13.3031 7.6078 13.4451C7.55039 13.5747 7.52027 13.715 7.51939 13.8571C7.51995 13.9123 7.53332 13.9666 7.5584 14.0156C7.54388 14.07 7.52475 14.1231 7.5012 14.1741C7.46738 14.2581 7.44887 14.3476 7.4466 14.4383C7.44667 14.5471 7.46787 14.6548 7.509 14.7552C7.52808 14.8082 7.55157 14.8595 7.5792 14.9084C7.62987 14.9951 7.69811 15.0698 7.7794 15.1277C8.20091 14.9969 8.63873 14.9285 9.07943 14.9243C9.16783 14.9243 9.25104 14.9243 9.33944 14.9243C9.38669 14.8675 9.42606 14.8044 9.45644 14.7367C9.51826 14.6122 9.55032 14.4747 9.55004 14.3352C9.55682 14.2396 9.52703 14.145 9.46686 14.0711C9.41874 14.0293 9.3873 13.971 9.37845 13.9073C9.38199 13.8724 9.38896 13.8378 9.39925 13.8043C9.41435 13.7592 9.42225 13.7119 9.42264 13.6643C9.42031 13.4641 9.37036 13.2674 9.27704 13.0911C9.24284 12.9943 9.18157 12.9097 9.10074 12.8478C9.01992 12.7859 8.92305 12.7492 8.82203 12.7424H8.71543L8.65822 12.7768C8.42298 12.9061 8.1745 13.0089 7.91721 13.0832L7.89121 13.099ZM8.0394 14.0209C7.99928 13.9897 7.96655 13.9498 7.9436 13.9041C7.92065 13.8584 7.90809 13.808 7.90681 13.7568C7.90681 13.6009 8.03421 13.4398 8.28641 13.2734L8.34623 13.2364C8.42198 13.2086 8.50041 13.1891 8.58022 13.1783H8.63743C8.69203 13.1783 8.74142 13.1968 8.78562 13.2073C8.85297 13.2163 8.91769 13.2397 8.97544 13.276C9.02484 13.313 9.04823 13.4081 9.04823 13.5639C9.04064 13.6348 9.019 13.7035 8.9846 13.7657C8.95019 13.8279 8.90373 13.8823 8.84804 13.9258L8.75963 14.005C8.63799 14.0899 8.49378 14.1351 8.34623 14.1345C8.2344 14.1375 8.12532 14.099 8.0394 14.0262V14.0209ZM7.7794 14.7288C7.76589 14.7155 7.75759 14.6977 7.75601 14.6786C7.75766 14.6617 7.76294 14.6454 7.77148 14.6308C7.78001 14.6162 7.79159 14.6037 7.80541 14.5941C7.88468 14.5297 7.97214 14.4763 8.06541 14.4356C8.17354 14.4051 8.28399 14.3839 8.39561 14.3722C8.45654 14.3735 8.51664 14.3869 8.57243 14.4118C8.59901 14.4201 8.62373 14.4336 8.64522 14.4515C8.65944 14.4606 8.67133 14.473 8.67992 14.4877C8.6885 14.5024 8.69354 14.5189 8.69463 14.536C8.69463 14.5756 8.66603 14.6205 8.60623 14.6681C8.57079 14.697 8.53342 14.7235 8.49442 14.7473C8.37608 14.8241 8.23955 14.867 8.09922 14.8714C8.01916 14.8685 7.94085 14.8468 7.87041 14.8081C7.83227 14.7891 7.79858 14.7621 7.77161 14.7288H7.7794ZM9.04563 13.9364C9.06478 13.917 9.0875 13.9017 9.11249 13.8913C9.13747 13.8808 9.16424 13.8755 9.19125 13.8756C9.24574 13.8757 9.29802 13.8975 9.33685 13.9364C9.36559 13.9667 9.38617 14.004 9.39665 14.0447V14.0843C9.39665 14.1396 9.37501 14.1927 9.33649 14.2318C9.29797 14.271 9.24573 14.293 9.19125 14.293C9.16424 14.2931 9.13747 14.2877 9.11249 14.2773C9.0875 14.2669 9.06478 14.2516 9.04563 14.2322C9.03726 14.2237 9.03025 14.2139 9.02484 14.2032C8.999 14.1691 8.98524 14.1272 8.98583 14.0843C8.98529 14.0568 8.99032 14.0295 9.00061 14.004C9.01089 13.9786 9.02622 13.9555 9.04563 13.9364ZM9.00143 14.4118H9.03003C9.06335 14.4121 9.09588 14.4222 9.12364 14.4409C9.13862 14.4475 9.15194 14.4574 9.16264 14.4699L9.18084 14.4858C9.20668 14.5198 9.22043 14.5617 9.21985 14.6047C9.21986 14.6299 9.2148 14.6549 9.20496 14.678C9.19512 14.7012 9.18071 14.7221 9.16264 14.7394C9.14591 14.7581 9.12541 14.773 9.10254 14.7831C9.07966 14.7931 9.05494 14.798 9.03003 14.7975H9.00143C8.96073 14.7901 8.92341 14.7697 8.89484 14.7394C8.87711 14.7219 8.8631 14.701 8.8537 14.6778C8.84431 14.6546 8.83972 14.6297 8.84023 14.6047C8.84001 14.5735 8.84715 14.5427 8.86103 14.5148C8.86997 14.4982 8.88137 14.4831 8.89484 14.4699C8.9219 14.4437 8.95654 14.4271 8.99364 14.4224L9.00143 14.4118Z" fill="black"/>
<path d="M13.5984 33.3485C12.651 33.3464 11.7147 33.1422 10.8501 32.7489C10.8354 32.7423 10.8221 32.7328 10.8111 32.721C10.8 32.7092 10.7913 32.6953 10.7855 32.6801C10.7797 32.6649 10.7769 32.6487 10.7773 32.6324C10.7777 32.6161 10.7812 32.6 10.7877 32.5851C10.7942 32.5702 10.8035 32.5567 10.8151 32.5455C10.8267 32.5342 10.8404 32.5254 10.8554 32.5195C10.8703 32.5136 10.8863 32.5108 10.9023 32.5111C10.9184 32.5115 10.9342 32.5151 10.9489 32.5217C12.3555 33.1616 13.9395 33.2757 15.421 32.844C15.4524 32.8352 15.4859 32.8395 15.5142 32.8558C15.5425 32.8722 15.5632 32.8993 15.5718 32.9311C15.5804 32.963 15.5762 32.9971 15.5601 33.0258C15.5441 33.0545 15.5174 33.0756 15.486 33.0843C14.8713 33.258 14.2364 33.3468 13.5984 33.3485ZM13.4554 31.0557C12.4545 31.0548 11.4602 30.8925 10.5095 30.575C10.4941 30.5702 10.4799 30.5623 10.4676 30.5518C10.4553 30.5413 10.4452 30.5284 10.4379 30.5138C10.4306 30.4993 10.4263 30.4834 10.4252 30.4671C10.4241 30.4509 10.4262 30.4345 10.4315 30.4191C10.4362 30.4035 10.444 30.3889 10.4542 30.3764C10.4645 30.3638 10.4772 30.3534 10.4914 30.3458C10.5057 30.3382 10.5213 30.3335 10.5373 30.332C10.5533 30.3306 10.5695 30.3323 10.5849 30.3372C12.1274 30.8549 13.7777 30.9461 15.3664 30.6014C15.3821 30.5979 15.3983 30.5976 15.4141 30.6005C15.43 30.6034 15.4451 30.6094 15.4586 30.6183C15.4721 30.6271 15.4838 30.6386 15.493 30.652C15.5021 30.6654 15.5086 30.6805 15.512 30.6965C15.5154 30.7124 15.5157 30.7289 15.5129 30.745C15.51 30.761 15.5041 30.7764 15.4954 30.7901C15.4867 30.8038 15.4754 30.8157 15.4622 30.825C15.449 30.8343 15.4341 30.8409 15.4184 30.8444C14.7732 30.9852 14.1152 31.056 13.4554 31.0557ZM13.3409 28.7312C12.3518 28.7235 11.3661 28.6101 10.4003 28.3931C10.3684 28.3861 10.3405 28.3667 10.3225 28.3391C10.3045 28.3114 10.2979 28.2777 10.3041 28.2452C10.3075 28.2292 10.3139 28.2141 10.3231 28.2007C10.3322 28.1872 10.3439 28.1758 10.3574 28.1669C10.371 28.1581 10.3861 28.1521 10.4019 28.1492C10.4177 28.1463 10.434 28.1466 10.4497 28.1501C11.9302 28.491 13.4587 28.5607 14.9634 28.3561C14.9794 28.3539 14.9958 28.3549 15.0114 28.359C15.0271 28.3632 15.0418 28.3704 15.0547 28.3803C15.0677 28.3903 15.0785 28.4027 15.0867 28.4169C15.0949 28.4311 15.1003 28.4468 15.1025 28.4631C15.1047 28.4794 15.1037 28.496 15.0997 28.5119C15.0956 28.5278 15.0884 28.5428 15.0786 28.5559C15.0689 28.569 15.0566 28.5801 15.0427 28.5884C15.0287 28.5967 15.0132 28.6022 14.9972 28.6044C14.4488 28.6872 13.8953 28.7296 13.3409 28.7312Z" fill="#66CE94"/>
<path d="M19.3159 38.0027C18.5177 38.0027 17.9301 37.7834 17.5713 37.3503C17.1391 36.755 16.8408 36.0706 16.6976 35.3454C14.4226 35.5884 12.5375 35.4484 11.0789 34.9307C11.0812 35.6302 10.9633 36.3248 10.7305 36.9831C10.4705 37.7359 9.76066 38.0529 8.65043 37.9234C7.665 37.8574 7.11639 37.3952 7.02799 36.542C6.90285 35.4577 6.7162 34.3818 6.46897 33.3194C5.60055 30.1047 5.92036 26.6312 7.418 22.9992C4.94534 22.2068 3.6427 20.4766 3.5465 17.8854C3.5465 17.7454 3.5465 17.6054 3.5465 17.4706C3.48885 17.508 3.4333 17.5485 3.38009 17.5921L2.44407 18.3555C2.21541 18.6027 1.92731 18.785 1.60816 18.8846C1.289 18.9842 0.949816 18.9976 0.624022 18.9234C0.408937 18.8647 0.223367 18.7262 0.104009 18.5351C-0.0493953 18.3185 -0.0597943 17.9355 0.0728092 17.3703C0.0808196 17.3383 0.100777 17.3108 0.128448 17.2935C0.156119 17.2762 0.189327 17.2706 0.221015 17.2778C0.236773 17.2815 0.25164 17.2884 0.264767 17.298C0.277894 17.3076 0.289009 17.3198 0.297474 17.3338C0.30594 17.3478 0.311579 17.3634 0.314074 17.3796C0.316569 17.3958 0.315873 17.4124 0.312011 17.4284C0.171607 18.0333 0.228809 18.2842 0.312011 18.3899C0.393381 18.5295 0.523236 18.6331 0.676027 18.6804C0.965533 18.7439 1.2664 18.7284 1.54814 18.6357C1.82987 18.5429 2.08245 18.3761 2.28026 18.1521L3.21368 17.3888C3.32126 17.3013 3.43609 17.2236 3.55689 17.1563C3.61477 16.5778 3.79479 16.0187 4.08465 15.5173C4.37451 15.0159 4.7674 14.5839 5.23654 14.2507C5.49655 11.913 6.11276 10.0112 7.05659 8.59799C7.90681 7.31688 9.29524 6.35803 11.1803 5.74257L11.9109 3.68752C11.5504 3.57365 11.2131 3.39469 10.9151 3.15923C10.9042 3.14902 10.8946 3.13749 10.8865 3.12489C10.7019 2.82904 10.7929 2.47773 11.1465 2.0868C11.1633 2.06861 11.185 2.05576 11.2089 2.04981C11.634 1.94368 12.0748 1.9186 12.5089 1.97585L13.1095 0.285321C13.1193 0.258114 13.1376 0.234912 13.1615 0.219285C13.7908 -0.163727 14.3472 -0.0448629 14.7684 0.597011C14.7784 0.612408 14.785 0.629845 14.7877 0.648094C14.7904 0.666344 14.7891 0.684972 14.784 0.702676L13.3695 5.29089C14.1733 5.23233 14.9809 5.26601 15.7772 5.39126L16.0372 5.43352C17.0278 3.32035 17.9639 1.69058 18.8193 0.562679C18.8335 0.542807 18.8535 0.528011 18.8765 0.520415C19.1635 0.414691 19.4754 0.401061 19.7703 0.481375C20.0651 0.561689 20.3285 0.732065 20.5249 0.969458C20.5425 0.987561 20.5541 1.01069 20.5583 1.03572C20.5625 1.06075 20.559 1.08649 20.5483 1.10945L19.8177 2.77093C20.2385 3.00832 20.6348 3.28795 21.0008 3.60563C21.0182 3.62051 21.0312 3.63994 21.0386 3.66182C21.0459 3.6837 21.0472 3.7072 21.0423 3.72978C20.9816 4.08758 20.8083 4.4157 20.5483 4.66486C20.5345 4.67579 20.5185 4.68356 20.5015 4.68767C20.4844 4.69177 20.4667 4.6921 20.4495 4.68863L19.0715 4.42449L18.3331 6.05955C18.9094 6.28219 19.469 6.54703 20.0075 6.85199C21.1906 7.59952 22.1188 8.86742 22.774 10.6213C23.8504 10.521 24.5134 11.1206 24.7423 12.4096C24.9035 13.3236 24.6617 13.9945 24.0272 14.4356C24.359 14.527 24.6629 14.7013 24.9112 14.9428C25.2753 15.301 25.4982 15.7819 25.5379 16.2952C25.6085 16.8079 25.5504 17.3303 25.3689 17.814C25.3028 18.0082 25.1943 18.1846 25.0516 18.3301C24.9089 18.4756 24.7355 18.5863 24.5446 18.654L24.607 19.0291C25.5197 19.28 26.0969 19.9589 26.3283 21.0445C26.5597 22.1302 26.2633 23.1286 25.4521 24.0162C25.4521 24.0637 25.4755 24.1139 25.4885 24.1615C26.5961 24.2513 27.3085 24.7769 27.6205 25.7226C27.7645 26.1157 27.8275 26.5348 27.8056 26.9537C27.7837 27.3726 27.6773 27.7825 27.4931 28.158C28.1379 27.738 28.8399 27.8067 29.5732 28.364C30.3532 28.9583 30.5508 29.6715 30.14 30.4904C30.3795 30.2425 30.6828 30.0682 31.0153 29.9874C31.3477 29.9066 31.6959 29.9225 32.0198 30.0334C32.7193 30.2474 33.1353 30.8258 33.2601 31.753C33.5981 31.0398 34.1363 30.7677 34.8643 30.9606C35.7587 31.1798 36.2034 31.6738 36.1826 32.4292C36.4426 32.4662 36.726 32.5005 36.999 32.5296C37.6048 32.6062 37.922 32.7752 37.9714 33.0579C38.0286 33.3749 37.7946 33.8952 35.4831 35.1182C32.8831 36.4838 28.4629 36.3544 22.2982 34.7326C21.9186 35.9476 21.5806 36.7638 21.2582 37.2287C20.9357 37.6936 20.3039 37.9895 19.4381 38.0212L19.3159 38.0027ZM16.7912 35.0839C16.8189 35.0847 16.8456 35.0948 16.8672 35.1124C16.8887 35.13 16.9041 35.1543 16.9108 35.1816C17.1266 36.0956 17.4127 36.7665 17.7585 37.1891C18.1043 37.6117 18.6581 37.7755 19.4537 37.7491C20.2493 37.7227 20.7901 37.485 21.084 37.0676C21.3778 36.6503 21.7392 35.7627 22.124 34.5265C22.1336 34.4961 22.1543 34.4707 22.1819 34.4554C22.2095 34.4402 22.2419 34.4363 22.2722 34.4446C28.4291 36.0771 32.8441 36.2223 35.3947 34.8778C37.6048 33.7077 37.7816 33.2349 37.7556 33.0843C37.7556 33.0156 37.6464 32.8518 36.9964 32.77C36.6844 32.7356 36.3698 32.696 36.0629 32.6511C35.1355 32.5045 34.2184 32.2972 33.3173 32.0303C33.2575 32.0092 33.1977 31.9881 33.1353 31.9722C32.0981 31.6545 31.0878 31.2526 30.114 30.7704L30.0022 30.7149L29.932 30.6779C28.9119 30.146 28.0115 29.4048 27.2877 28.5014L27.1993 28.3904C27.1993 28.3904 27.1993 28.3904 27.1863 28.3772L27.1707 28.3561C27.1395 28.3165 27.1109 28.2795 27.0849 28.2399C27.0736 28.2275 27.0631 28.2142 27.0537 28.2002L26.9939 28.1289L26.9731 28.1025C26.9647 28.093 26.9577 28.0823 26.9523 28.0708C26.9341 28.0444 26.9159 28.0206 26.9029 27.9968C26.886 27.98 26.8719 27.9603 26.8613 27.9387L26.7703 27.8119L26.7495 27.775L26.6845 27.6772C26.056 26.7443 25.6013 25.7022 25.3429 24.6026C25.3403 24.5922 25.3403 24.5813 25.3429 24.5709V24.5524L25.2779 24.3173C25.2467 24.2169 25.2207 24.1139 25.1973 24.0109C25.0382 23.3657 24.9132 22.7123 24.8229 22.0536C24.7033 21.2189 24.5628 20.2415 24.3756 19.148C24.3479 18.9719 24.3167 18.7843 24.282 18.5853C23.9596 16.665 23.7152 15.2967 23.554 14.5228C23.3356 13.49 23.1146 12.5707 22.8988 11.7915C22.8 11.4455 22.6908 11.1127 22.579 10.801C21.942 9.05232 21.0346 7.79499 19.8827 7.06594C19.3192 6.74445 18.7315 6.46887 18.1251 6.24181C17.4688 6.00163 16.7939 5.81784 16.1074 5.69238L15.7564 5.63427C14.9195 5.50307 14.07 5.47557 13.2265 5.55239C12.7977 5.59538 12.3727 5.67132 11.9551 5.77956C11.7341 5.83503 11.5209 5.89842 11.3207 5.96445C9.45904 6.56142 8.09922 7.49386 7.2724 8.73798C6.34417 10.13 5.74356 12.0134 5.48615 14.3352C5.48469 14.3525 5.4795 14.3693 5.47097 14.3844C5.46243 14.3994 5.45076 14.4124 5.43675 14.4224C5.00651 14.7205 4.64196 15.1062 4.36624 15.555C4.09052 16.0038 3.90964 16.5059 3.8351 17.0295L4.0093 16.9503C4.33617 16.8048 4.6985 16.7625 5.04933 16.8288C5.28647 16.8499 5.5167 16.921 5.72535 17.0374C5.74108 17.0462 5.75477 17.0582 5.7655 17.0728C5.77624 17.0873 5.78377 17.1041 5.78758 17.1218C5.79138 17.1396 5.79138 17.158 5.78756 17.1758C5.78375 17.1936 5.77622 17.2103 5.76547 17.2248C5.75473 17.2394 5.74102 17.2514 5.72529 17.2601C5.70956 17.2688 5.69218 17.274 5.67432 17.2753C5.65645 17.2765 5.63852 17.2739 5.62176 17.2675C5.60499 17.2611 5.58978 17.2511 5.57715 17.2382C5.39803 17.1483 5.2041 17.0928 5.00513 17.0744C4.70409 17.0201 4.39397 17.0568 4.11331 17.1801C4.01023 17.2219 3.90955 17.2695 3.81171 17.3227C3.80124 17.5066 3.80124 17.6909 3.81171 17.8748C3.90531 20.4317 5.15853 22.043 7.6364 22.8011C7.8314 22.8566 8.03161 22.9094 8.23701 22.957C10.6603 23.5249 13.4086 23.5671 16.4038 23.0864C16.4362 23.081 16.4694 23.0888 16.4961 23.1081C16.5229 23.1274 16.5411 23.1566 16.5468 23.1894C16.5494 23.2057 16.5488 23.2224 16.5449 23.2385C16.541 23.2545 16.5341 23.2697 16.5244 23.2829C16.5147 23.2962 16.5025 23.3074 16.4885 23.3158C16.4745 23.3243 16.459 23.3298 16.4428 23.332C13.4163 23.8207 10.6369 23.7758 8.18242 23.2C8.01082 23.1603 7.83921 23.1154 7.66241 23.0705C6.17777 26.6603 5.85795 30.0889 6.71338 33.2586C6.9637 34.3323 7.15295 35.4198 7.28019 36.5155C7.35559 37.2367 7.81321 37.617 8.68163 37.6752C9.68266 37.7914 10.2781 37.5378 10.5017 36.8986C10.7369 36.2386 10.8498 35.54 10.8345 34.8382C10.5857 34.7367 10.3426 34.6212 10.1065 34.4922C9.94786 34.3997 9.79186 34.3046 9.64626 34.2043C9.63277 34.1953 9.62116 34.1836 9.61209 34.17C9.60303 34.1565 9.59669 34.1412 9.59343 34.1252C9.59017 34.1091 9.59006 34.0925 9.5931 34.0764C9.59614 34.0603 9.60228 34.045 9.61116 34.0313C9.62004 34.0176 9.63147 34.0058 9.64483 33.9966C9.6582 33.9873 9.67321 33.9809 9.68903 33.9776C9.70484 33.9743 9.72114 33.9742 9.737 33.9773C9.75286 33.9803 9.76797 33.9866 9.78145 33.9956C9.92446 34.0933 10.0727 34.1858 10.2261 34.2756C10.479 34.4107 10.7394 34.5306 11.0061 34.6348C12.4699 35.1975 14.4122 35.3507 16.7834 35.0865L16.7912 35.0839ZM33.5175 31.827C34.3199 32.0589 35.1352 32.2423 35.9589 32.3764C35.9589 31.7662 35.5871 31.3753 34.8279 31.1904C34.5709 31.1018 34.29 31.1188 34.0452 31.2378C33.8003 31.3567 33.611 31.5681 33.5175 31.827ZM30.374 30.6119C31.2233 31.0254 32.0999 31.3784 32.9975 31.6685C32.8727 30.9051 32.5269 30.4481 31.9574 30.2685C31.6878 30.1731 31.3976 30.1546 31.1184 30.2152C30.8392 30.2757 30.5817 30.4129 30.374 30.6119ZM27.5373 28.4248C28.1993 29.2257 29.007 29.8893 29.9164 30.3794C30.2752 29.6768 30.114 29.0825 29.4276 28.5648C28.7411 28.047 28.1275 27.9995 27.5477 28.4248H27.5373ZM27.1681 27.9493L27.1889 27.9731V27.9889V28.0048L27.2123 28.0338L27.2279 28.055C27.4007 27.7066 27.5009 27.3258 27.5224 26.9363C27.5438 26.5468 27.4861 26.157 27.3527 25.7912C27.0927 24.9645 26.4843 24.5101 25.5327 24.4071L25.5509 24.4705C25.5521 24.4837 25.5521 24.4969 25.5509 24.5101V24.5339C25.7982 25.6038 26.239 26.6177 26.8509 27.524L26.9185 27.6244V27.6376C26.9185 27.6376 26.9185 27.6376 26.9185 27.6535L27.0121 27.7855V27.8014V27.8146L27.0303 27.8384C27.0459 27.8648 27.0667 27.8912 27.0849 27.9202C27.0919 27.9127 27.1008 27.9073 27.1106 27.9047C27.1205 27.902 27.1309 27.9022 27.1406 27.9053C27.1503 27.9083 27.159 27.914 27.1657 27.9218C27.1724 27.9296 27.1769 27.9391 27.1785 27.9493H27.1681ZM24.6538 19.3038C24.815 20.3155 24.9555 21.2268 25.0673 22.014C25.1505 22.6109 25.2571 23.1815 25.3845 23.7203C25.7036 23.3746 25.9346 22.9549 26.0574 22.4977C26.1802 22.0406 26.1911 21.5598 26.0891 21.0974C25.8863 20.1412 25.4131 19.5521 24.6538 19.3038ZM23.8296 14.6575C23.9882 15.4499 24.2144 16.6993 24.5004 18.4163C24.65 18.3558 24.7849 18.2631 24.8958 18.1445C25.0066 18.026 25.0909 17.8844 25.1427 17.7295C25.3077 17.2831 25.3596 16.8016 25.2935 16.3295C25.2604 15.8762 25.0642 15.4512 24.7423 15.1356C24.49 14.8898 24.173 14.7237 23.8296 14.6575ZM22.8624 10.8749C22.9586 11.1391 23.0496 11.4376 23.1224 11.7334C23.3304 12.4783 23.5384 13.3473 23.7464 14.322C24.399 13.9469 24.6408 13.3394 24.4874 12.473C24.3002 11.3266 23.7646 10.8062 22.8624 10.8644V10.8749ZM16.3076 5.48635C16.9165 5.60619 17.516 5.77039 18.1017 5.97767L18.8817 4.23694C18.8929 4.21125 18.9125 4.19022 18.937 4.17726C18.9616 4.16431 18.9897 4.1602 19.0169 4.16562L20.4261 4.42977C20.6022 4.23841 20.7236 4.00187 20.7772 3.74563C20.4115 3.43376 20.015 3.16111 19.5941 2.93206C19.566 2.91785 19.5446 2.893 19.5343 2.86285C19.5241 2.83271 19.526 2.7997 19.5395 2.77093L20.2987 1.08304C20.1381 0.903974 19.9295 0.776554 19.6985 0.716477C19.4675 0.656399 19.2242 0.66629 18.9987 0.744932C17.9518 2.22888 17.0505 3.81339 16.3076 5.47578V5.48635ZM11.0919 2.98225C11.3931 3.2212 11.739 3.39553 12.1085 3.49469C12.1251 3.49923 12.1406 3.50721 12.154 3.51812C12.1675 3.52902 12.1785 3.54264 12.1865 3.55809C12.1941 3.5737 12.198 3.59087 12.198 3.60828C12.198 3.62568 12.1941 3.64285 12.1865 3.65846L11.4741 5.66333C11.6067 5.62371 11.7341 5.58408 11.8849 5.54974C12.2887 5.44274 12.6998 5.36681 13.1147 5.32258L14.5422 0.694752C14.2068 0.227214 13.822 0.137404 13.3357 0.430606L12.7169 2.17661C12.7061 2.20367 12.6866 2.22623 12.6616 2.24062C12.6366 2.25501 12.6075 2.26037 12.5791 2.25585C12.1571 2.18802 11.7262 2.20418 11.3103 2.3034C10.9593 2.68113 11.0425 2.88716 11.0919 2.97169V2.98225ZM22.3788 19.7397H22.2462C21.8056 19.7307 21.3769 19.5932 21.0111 19.3434C20.7147 19.1242 20.3949 18.8759 20.0647 18.6038C19.8117 18.3858 19.5432 18.1872 19.2613 18.0095C18.9596 17.8589 18.632 17.7692 18.2967 17.7454C17.8272 17.6978 17.3534 17.7705 16.9186 17.9567C16.9036 17.9641 16.8871 17.9683 16.8704 17.969C16.8537 17.9697 16.8369 17.9669 16.8213 17.9608C16.8057 17.9546 16.7915 17.9453 16.7795 17.9334C16.7676 17.9214 16.7582 17.9071 16.7519 17.8913C16.7457 17.8755 16.7427 17.8586 16.7432 17.8416C16.7436 17.8245 16.7475 17.8078 16.7546 17.7924C16.7617 17.777 16.7719 17.7632 16.7844 17.7519C16.797 17.7406 16.8117 17.7321 16.8276 17.7269C17.2997 17.5229 17.815 17.4438 18.3253 17.4971C18.6951 17.5247 19.0557 17.6271 19.3861 17.7982C19.6796 17.981 19.9587 18.1867 20.2207 18.4136C20.5483 18.6778 20.8629 18.9419 21.1567 19.1453C21.4848 19.3663 21.8682 19.4873 22.2618 19.494C22.6856 19.5178 22.943 19.4227 23.0236 19.2114C23.0358 19.1803 23.0595 19.1553 23.0897 19.142C23.1199 19.1286 23.1541 19.1279 23.1848 19.14C23.2147 19.1524 23.2387 19.1762 23.2513 19.2064C23.264 19.2366 23.2644 19.2707 23.2524 19.3012C23.138 19.5785 22.8338 19.7291 22.3788 19.7291V19.7397ZM16.5936 15.8726C16.5714 15.8733 16.5496 15.8668 16.5312 15.8541L16.4792 15.825C16.3955 15.7775 16.3087 15.736 16.2192 15.7009C15.7335 15.5257 15.2117 15.4793 14.7034 15.5662H14.6722C14.5146 15.5857 14.3583 15.6148 14.2042 15.6533C14.1725 15.661 14.139 15.6556 14.1112 15.6383C14.0834 15.6209 14.0636 15.5931 14.056 15.5609C14.0484 15.5286 14.0537 15.4947 14.0708 15.4664C14.0878 15.4382 14.1153 15.418 14.147 15.4103C14.3121 15.3685 14.4797 15.3376 14.6488 15.3179H14.68C15.1903 15.2342 15.7128 15.2722 16.2062 15.4288C16.2374 15.3733 16.266 15.3179 16.292 15.265C16.5156 14.8081 16.5884 14.4383 16.5078 14.1635C16.4649 13.9268 16.3514 13.7092 16.1828 13.5402C16.0499 13.446 15.9046 13.3713 15.7512 13.3183C15.3234 13.1344 14.9233 12.8898 14.563 12.5919C14.5507 12.5813 14.5406 12.5684 14.5332 12.5538C14.5258 12.5393 14.5214 12.5234 14.52 12.5071C14.5173 12.4741 14.5277 12.4414 14.5487 12.4162C14.5697 12.391 14.5997 12.3753 14.6322 12.3726C14.6646 12.3698 14.6968 12.3803 14.7216 12.4017C15.0619 12.6831 15.4402 12.9134 15.8448 13.0858C16.0199 13.1484 16.1847 13.2375 16.3336 13.35C16.5486 13.5506 16.6959 13.8149 16.7548 14.1054C16.8536 14.4462 16.7782 14.8662 16.5234 15.3892L16.448 15.5345L16.6144 15.619L16.669 15.6507C16.6928 15.6642 16.7115 15.6854 16.722 15.711C16.7326 15.7365 16.7344 15.7649 16.7272 15.7917C16.7201 15.8184 16.7043 15.8419 16.6824 15.8585C16.6606 15.8751 16.6339 15.8837 16.6066 15.8831L16.5936 15.8726ZM7.53759 15.3443C7.50909 15.344 7.48158 15.3335 7.45985 15.3148C7.43811 15.296 7.42353 15.2702 7.41859 15.2416C7.41365 15.2131 7.41869 15.1837 7.43282 15.1586C7.44696 15.1334 7.46931 15.1141 7.496 15.1039C7.5844 15.0722 7.6702 15.0431 7.75601 15.0167C8.18524 14.884 8.6308 14.8138 9.07943 14.8081C9.16523 14.8081 9.25364 14.8081 9.33944 14.8081H9.37324C9.40565 14.8081 9.43673 14.8211 9.45965 14.8444C9.48257 14.8677 9.49545 14.8993 9.49545 14.9322C9.49545 14.9651 9.48257 14.9967 9.45965 15.02C9.43673 15.0433 9.40565 15.0564 9.37324 15.0564H9.33425H9.07424C8.64868 15.0637 8.22613 15.1304 7.81841 15.2545L7.5584 15.339C7.55234 15.3395 7.54625 15.3395 7.5402 15.339L7.53759 15.3443ZM7.53759 13.3209C7.50816 13.3194 7.48022 13.3073 7.45872 13.2868C7.43722 13.2663 7.42355 13.2388 7.42013 13.209C7.4167 13.1793 7.42375 13.1493 7.44001 13.1243C7.45628 13.0993 7.48071 13.081 7.509 13.0726C7.6338 13.0436 7.7508 13.0119 7.86 12.9802C8.10782 12.9071 8.34745 12.8079 8.57502 12.6843L8.62702 12.6526C8.74137 12.5817 8.84851 12.4994 8.94684 12.407C8.97015 12.3839 9.00139 12.371 9.03393 12.371C9.06648 12.371 9.09774 12.3839 9.12104 12.407C9.1326 12.4185 9.14177 12.4323 9.14804 12.4475C9.1543 12.4627 9.15753 12.479 9.15753 12.4955C9.15753 12.5119 9.1543 12.5282 9.14804 12.5434C9.14177 12.5586 9.1326 12.5724 9.12104 12.5839C9.00957 12.6829 8.88947 12.7713 8.76223 12.8481L8.70762 12.8824C8.45976 13.0166 8.1982 13.1229 7.9276 13.1994C7.8132 13.2337 7.69101 13.2681 7.5636 13.2971L7.53759 13.3209ZM13.9598 12.9194C13.9288 12.9189 13.8991 12.9066 13.8766 12.8851C13.7358 12.7582 13.6239 12.6018 13.5485 12.4267C13.4731 12.2515 13.436 12.0619 13.4398 11.8708C13.4404 11.8376 13.4539 11.806 13.4772 11.7828C13.5006 11.7596 13.5319 11.7466 13.5645 11.7466C13.5972 11.7473 13.6283 11.761 13.6511 11.7847C13.674 11.8084 13.6868 11.8402 13.6868 11.8734C13.682 12.0298 13.7114 12.1854 13.773 12.3288C13.8346 12.4722 13.9268 12.6 14.043 12.7028C14.0655 12.726 14.0782 12.7574 14.0782 12.79C14.0782 12.8226 14.0655 12.8539 14.043 12.8772C14.0239 12.8966 13.9994 12.9095 13.9728 12.9141L13.9598 12.9194Z" fill="black"/>
<path d="M16.2062 15.6929C16.2021 15.6947 16.1977 15.6956 16.1932 15.6956C16.1888 15.6956 16.1843 15.6947 16.1802 15.6929C16.1763 15.6892 16.1731 15.6847 16.171 15.6797C16.1688 15.6747 16.1677 15.6693 16.1677 15.6639C16.1677 15.6584 16.1688 15.653 16.171 15.648C16.1731 15.643 16.1763 15.6385 16.1802 15.6348L16.2348 15.5662C16.2428 15.5593 16.2529 15.5555 16.2634 15.5555C16.2739 15.5555 16.284 15.5593 16.292 15.5662C16.296 15.5699 16.2991 15.5744 16.3013 15.5794C16.3034 15.5844 16.3045 15.5897 16.3045 15.5952C16.3045 15.6007 16.3034 15.6061 16.3013 15.6111C16.2991 15.6161 16.296 15.6206 16.292 15.6243L16.2374 15.6929C16.2274 15.6971 16.2162 15.6971 16.2062 15.6929ZM14.6618 15.4843C14.6512 15.4828 14.6412 15.4782 14.6332 15.4711C14.5121 15.3491 14.415 15.2047 14.3472 15.0458C14.3472 15.0326 14.3472 15.022 14.3342 15.0114C14.2828 14.872 14.2556 14.7245 14.2536 14.5756C14.253 14.1959 14.3713 13.8258 14.5916 13.519C14.8178 13.1915 15.0622 13.0383 15.3196 13.0726C15.4816 13.0912 15.6423 13.1203 15.8006 13.1598C15.8056 13.1613 15.8102 13.1638 15.8143 13.1671C15.8183 13.1705 15.8216 13.1746 15.824 13.1793C15.8264 13.184 15.8279 13.1891 15.8284 13.1944C15.8288 13.1996 15.8282 13.2049 15.8266 13.21C15.8254 13.2153 15.8232 13.2203 15.82 13.2246C15.8168 13.229 15.8128 13.2327 15.8081 13.2354C15.8035 13.2381 15.7984 13.2399 15.793 13.2405C15.7877 13.2411 15.7823 13.2406 15.7772 13.239C15.6231 13.201 15.4668 13.1728 15.3092 13.1545C15.0856 13.1281 14.8672 13.2654 14.6566 13.5666C14.4481 13.8593 14.3361 14.2116 14.3368 14.573C14.3383 14.712 14.3638 14.8497 14.4122 14.9797C14.4122 14.9797 14.4122 14.9982 14.4122 15.0088C14.4742 15.1567 14.5623 15.2919 14.6722 15.4077C14.6761 15.4114 14.6793 15.4159 14.6814 15.4209C14.6836 15.4259 14.6847 15.4313 14.6847 15.4367C14.6847 15.4422 14.6836 15.4476 14.6814 15.4526C14.6793 15.4576 14.6761 15.4621 14.6722 15.4658C14.6702 15.4727 14.6667 15.479 14.6618 15.4843ZM7.795 15.1858C7.78831 15.1884 7.7809 15.1884 7.77421 15.1858C7.68672 15.1257 7.61382 15.0462 7.561 14.9533C7.53065 14.9032 7.50538 14.8501 7.48559 14.7948C7.4436 14.689 7.42155 14.5761 7.42059 14.462C7.42215 14.363 7.44246 14.2653 7.4804 14.1741C7.4993 14.1293 7.51579 14.0834 7.5298 14.0367C7.50526 13.983 7.49282 13.9243 7.4934 13.8651C7.49506 13.7165 7.52692 13.5699 7.587 13.4345C7.64768 13.2848 7.75203 13.1576 7.88601 13.07C7.89078 13.0672 7.89604 13.0653 7.90151 13.0646C7.90699 13.0639 7.91255 13.0643 7.91788 13.0657C7.9232 13.0672 7.92817 13.0697 7.93252 13.0732C7.93687 13.0766 7.9405 13.0809 7.9432 13.0858C7.94598 13.0907 7.94779 13.096 7.9485 13.1016C7.94922 13.1071 7.94885 13.1128 7.94739 13.1182C7.94594 13.1236 7.94344 13.1287 7.94005 13.1331C7.93665 13.1375 7.93242 13.1412 7.9276 13.1439C7.81067 13.2231 7.72003 13.3364 7.6676 13.4688C7.61426 13.594 7.58597 13.7287 7.58439 13.8651C7.58474 13.9138 7.59632 13.9617 7.6182 14.005C7.61932 14.0112 7.61932 14.0174 7.6182 14.0235C7.60685 14.0843 7.5867 14.1431 7.5584 14.1979C7.52452 14.2817 7.50686 14.3714 7.50639 14.462C7.50623 14.5661 7.52566 14.6692 7.5636 14.7658C7.58222 14.8156 7.60573 14.8634 7.6338 14.9084C7.67996 14.9914 7.74396 15.0627 7.82101 15.1171C7.82779 15.1252 7.83151 15.1355 7.83151 15.1462C7.83151 15.1568 7.82779 15.1671 7.82101 15.1752C7.8137 15.1815 7.80456 15.1852 7.795 15.1858ZM9.33944 14.9877C9.33536 14.9896 9.33093 14.9906 9.32644 14.9906C9.32195 14.9906 9.31752 14.9896 9.31344 14.9877C9.30951 14.984 9.30637 14.9795 9.30422 14.9745C9.30208 14.9695 9.30096 14.9641 9.30096 14.9586C9.30096 14.9532 9.30208 14.9478 9.30422 14.9428C9.30637 14.9378 9.30951 14.9333 9.31344 14.9296C9.35692 14.8749 9.39441 14.8155 9.42525 14.7526C9.48353 14.6327 9.51379 14.5007 9.51365 14.3669C9.51815 14.2846 9.49217 14.2036 9.44085 14.1398C9.38619 14.0907 9.35105 14.0231 9.34204 13.9496C9.34456 13.9108 9.35245 13.8726 9.36545 13.836C9.37951 13.7944 9.38654 13.7506 9.38625 13.7066C9.38466 13.5136 9.33643 13.3241 9.24584 13.1545C9.13404 12.9326 8.98584 12.8243 8.82723 12.8243H8.71803C8.707 12.8243 8.69641 12.8199 8.68861 12.8119C8.68081 12.804 8.67642 12.7933 8.67642 12.7821C8.67709 12.7713 8.68177 12.7612 8.6895 12.7539C8.69723 12.7465 8.70744 12.7424 8.71803 12.7424H8.82463C8.93326 12.7495 9.03753 12.7884 9.12477 12.8545C9.21201 12.9206 9.27847 13.0111 9.31605 13.1149C9.41257 13.2969 9.46431 13.4999 9.46686 13.7066C9.46667 13.7587 9.45787 13.8105 9.44085 13.8598C9.4303 13.8886 9.42416 13.9189 9.42264 13.9496C9.42264 13.9734 9.43564 14.0156 9.50064 14.0843C9.56482 14.1637 9.59814 14.2643 9.59426 14.3669C9.59403 14.5128 9.56019 14.6567 9.49545 14.7869C9.46365 14.8574 9.42253 14.9232 9.37324 14.9824C9.36738 14.9836 9.36133 14.9835 9.3555 14.9822C9.34967 14.9808 9.34418 14.9782 9.33944 14.9745V14.9877Z" fill="black"/>
<path d="M7.52459 23.2372C6.9559 23.3534 6.43749 23.6482 6.04255 24.0798C5.67481 24.4465 5.44801 24.9345 5.40294 25.456C5.37287 25.6592 5.38987 25.8667 5.45261 26.0621C5.51536 26.2574 5.62209 26.4352 5.76434 26.5813C5.94562 26.7538 6.15734 26.89 6.38836 26.9828C6.93523 27.1967 7.52687 27.2649 8.107 27.1809C9.14703 27.0884 9.75025 26.6315 9.88025 25.8179C10.0103 25.0043 9.70604 24.4311 8.98322 24.1142C8.72313 23.9962 8.44354 23.929 8.15901 23.9161C7.74161 23.8993 7.33098 24.0269 6.99418 24.2779C7.33098 24.0269 7.74161 23.8993 8.15901 23.9161C8.17479 23.8264 8.16959 23.7342 8.14384 23.6469C8.11808 23.5596 8.0725 23.4797 8.01075 23.4137C7.94901 23.3476 7.87284 23.2972 7.78839 23.2665C7.70394 23.2359 7.61357 23.2258 7.52459 23.2372Z" fill="#66CE94"/>
<path d="M7.61301 27.3578C7.17524 27.3632 6.74064 27.2816 6.33376 27.1174C6.08619 27.0182 5.85942 26.872 5.66554 26.6868C5.50811 26.5258 5.38955 26.3299 5.31917 26.1145C5.2488 25.8991 5.22852 25.67 5.25993 25.4453C5.30677 24.8919 5.54541 24.3734 5.93336 23.982C6.34859 23.5274 6.89459 23.2177 7.4934 23.0971C7.52862 23.0931 7.56404 23.1025 7.5928 23.1236C7.62157 23.1446 7.64161 23.1757 7.64906 23.2109C7.65651 23.2461 7.65083 23.2829 7.63311 23.3141C7.6154 23.3453 7.58692 23.3687 7.55319 23.3797C7.01463 23.4889 6.52296 23.7659 6.14656 24.1722C5.80297 24.5156 5.5894 24.9711 5.54335 25.4586C5.51677 25.6404 5.53179 25.826 5.58726 26.001C5.64272 26.176 5.73713 26.3357 5.86315 26.4676C6.03178 26.6275 6.22847 26.7538 6.44297 26.84C6.9679 27.0435 7.53493 27.109 8.09141 27.0302C9.08203 26.9404 9.61765 26.5336 9.73726 25.7861C9.85686 25.0386 9.58905 24.5314 8.92604 24.2408C8.67988 24.1293 8.41529 24.0656 8.14602 24.0533C7.7608 24.0399 7.38242 24.159 7.07219 24.3914C7.04067 24.413 7.00208 24.4212 6.96467 24.4143C6.92726 24.4074 6.89399 24.3859 6.87198 24.3544C6.86098 24.3388 6.85313 24.3212 6.84887 24.3025C6.84461 24.2838 6.84405 24.2645 6.84719 24.2456C6.85033 24.2267 6.85713 24.2086 6.86718 24.1923C6.87724 24.1761 6.89035 24.1621 6.90578 24.151C7.26883 23.8825 7.71022 23.7457 8.15901 23.7627C8.4608 23.7761 8.75731 23.8478 9.03263 23.974C9.81265 24.3174 10.1533 24.9435 10.0155 25.8231C9.87766 26.7027 9.23545 27.2072 8.11482 27.3076C7.94867 27.3344 7.78111 27.3511 7.61301 27.3578Z" fill="black"/>
<path d="M13.549 20.5163L13.1095 20.437C13.2751 20.7551 13.4932 21.0419 13.7544 21.2849L14.4174 20.4766C14.1389 20.5807 13.8355 20.5946 13.549 20.5163Z" fill="white"/>
<path d="M10.6811 18.0147C10.6836 17.9456 10.6593 17.8782 10.6135 17.8271C10.5959 17.8019 10.5725 17.7814 10.5453 17.7676C10.518 17.7538 10.4879 17.747 10.4575 17.7479C10.4273 17.7483 10.3975 17.7556 10.3705 17.7693C10.3435 17.7831 10.3199 17.8028 10.3015 17.8271C10.2603 17.8774 10.239 17.9414 10.2417 18.0067C10.239 18.0745 10.2602 18.141 10.3015 18.1943C10.3192 18.2197 10.3426 18.2406 10.3696 18.2553C10.3967 18.2699 10.4268 18.278 10.4575 18.2788C10.4884 18.2791 10.5188 18.2715 10.5461 18.2567C10.5733 18.242 10.5965 18.2205 10.6135 18.1943C10.6593 18.1432 10.6836 18.0758 10.6811 18.0067V18.0147ZM11.6899 18.329C11.7161 18.3073 11.7372 18.2799 11.7516 18.2488C11.766 18.2177 11.7733 18.1837 11.7731 18.1494C11.7723 18.1141 11.7645 18.0793 11.7502 18.047C11.7359 18.0148 11.7154 17.9859 11.6899 17.9618C11.6672 17.9365 11.6395 17.9164 11.6085 17.9027C11.5776 17.8891 11.5442 17.8822 11.5105 17.8826C11.4415 17.8826 11.3754 17.9104 11.3267 17.96C11.2779 18.0095 11.2505 18.0767 11.2505 18.1467C11.2498 18.1806 11.2564 18.2143 11.2699 18.2453C11.2834 18.2763 11.3034 18.304 11.3285 18.3264C11.3526 18.3513 11.3813 18.3712 11.413 18.3848C11.4447 18.3984 11.4787 18.4055 11.5131 18.4056C11.5456 18.407 11.5781 18.4016 11.6085 18.3898C11.6389 18.378 11.6666 18.36 11.6899 18.3369V18.329Z" fill="black"/>
<path d="M13.7544 21.4116C13.7221 21.4113 13.6912 21.398 13.6686 21.3746C13.4133 21.1348 13.1966 20.8558 13.0263 20.5478C12.4475 20.4319 11.8801 20.263 11.3311 20.0433C10.5958 19.7653 9.78494 19.7747 9.05604 20.0697C8.41642 20.2916 8.016 20.3154 7.795 20.1463C7.73232 20.0951 7.68364 20.0283 7.6536 19.9525C7.62356 19.8766 7.61316 19.7942 7.6234 19.7131C7.6237 19.6965 7.62735 19.6801 7.63416 19.6649C7.64097 19.6497 7.65079 19.6362 7.66298 19.625C7.67517 19.6139 7.68949 19.6054 7.70505 19.6001C7.72061 19.5948 7.73706 19.5928 7.7534 19.5943C7.76935 19.5949 7.78499 19.5989 7.79943 19.6058C7.81386 19.6127 7.82679 19.6224 7.83745 19.6345C7.84811 19.6466 7.8563 19.6607 7.86151 19.676C7.86672 19.6913 7.86886 19.7075 7.86781 19.7237C7.86781 19.8848 7.9224 19.9297 7.9432 19.9456C8.02381 20.009 8.26821 20.0777 8.98323 19.832C9.76835 19.5188 10.6397 19.5113 11.4299 19.8109C11.9836 20.0324 12.5563 20.2013 13.1407 20.3154L13.5776 20.3946C14.0482 20.4712 14.2666 20.4237 14.3576 20.3682C14.4018 20.3418 14.5162 20.2705 14.42 19.9667C14.4102 19.9349 14.4131 19.9003 14.4282 19.8706C14.4433 19.841 14.4693 19.8185 14.5006 19.8082C14.5159 19.8033 14.5321 19.8016 14.5481 19.803C14.5642 19.8045 14.5798 19.8092 14.594 19.8168C14.6083 19.8244 14.6209 19.8348 14.6312 19.8474C14.6415 19.86 14.6492 19.8745 14.654 19.8901C14.7814 20.2837 14.654 20.4765 14.4954 20.5716L13.848 21.3641C13.8253 21.39 13.7936 21.4061 13.7596 21.409L13.7544 21.4116ZM13.3462 20.606C13.4641 20.7838 13.5981 20.9501 13.7466 21.1026L14.0898 20.6826C13.9017 20.6873 13.7135 20.6731 13.5282 20.6403L13.3462 20.606Z" fill="black"/>
<path d="M21.0606 29.698C21.9966 30.0149 22.6899 29.6082 23.1406 28.4776C23.5913 27.3471 23.3642 25.9101 22.4594 24.1667C21.4843 24.9456 20.3468 25.4877 19.1339 25.7516C19.3846 26.4651 19.5334 27.2114 19.5759 27.9678C19.6296 28.8025 20.1245 29.3792 21.0606 29.698Z" fill="#66CE94"/>
<path d="M21.6482 29.9304C21.4355 29.9268 21.2248 29.8885 21.0242 29.8168C20.0387 29.4814 19.5109 28.8659 19.4641 27.9863C19.4222 27.242 19.2769 26.5074 19.0325 25.8044C19.0267 25.789 19.024 25.7726 19.0245 25.7561C19.0251 25.7396 19.0288 25.7234 19.0356 25.7084C19.0424 25.6933 19.052 25.6799 19.064 25.6687C19.076 25.6575 19.09 25.6489 19.1053 25.6433C19.136 25.6321 19.1698 25.6336 19.1995 25.6475C19.2291 25.6613 19.2522 25.6863 19.2639 25.7173C19.5165 26.4432 19.6671 27.2018 19.7111 27.9704C19.7631 28.747 20.2311 29.2753 21.1126 29.5817C21.994 29.8881 22.6154 29.4999 23.0444 28.4301C23.4734 27.3603 23.2472 25.9233 22.3632 24.2196C22.3522 24.1907 22.3519 24.1587 22.3625 24.1297C22.3731 24.1006 22.3937 24.0765 22.4206 24.0619C22.4475 24.0473 22.4787 24.0432 22.5083 24.0503C22.538 24.0574 22.5641 24.0754 22.5816 24.1007C23.4994 25.8731 23.7334 27.3629 23.2706 28.5225C22.8832 29.4497 22.345 29.9304 21.6482 29.9304Z" fill="black"/>
<path d="M24.152 8.71955C24.4224 8.09579 24.5065 7.40507 24.3938 6.73318C23.9011 6.29486 23.2621 6.06431 22.6076 6.08866C21.578 6.24292 20.5884 6.60196 19.6955 7.14525C20.6331 8.22277 21.4341 9.41544 22.0798 10.6954C22.876 10.1612 23.5768 9.493 24.152 8.71955Z" fill="#66CE94"/>
<path d="M22.0798 10.8302C22.0596 10.8303 22.0398 10.8253 22.0221 10.8157C22.0043 10.806 21.9893 10.7919 21.9784 10.7747C21.9605 10.7473 21.9541 10.7139 21.9604 10.6818C21.9667 10.6496 21.9854 10.6213 22.0122 10.603C22.792 10.0748 23.4793 9.41772 24.0454 8.65889C24.2936 8.07175 24.3747 7.42564 24.2794 6.79402C23.8155 6.39569 23.2225 6.1867 22.6154 6.20762C21.6045 6.36221 20.633 6.71572 19.7553 7.24835C19.7415 7.25697 19.7262 7.26271 19.7102 7.26525C19.6942 7.26779 19.6778 7.26707 19.6621 7.26314C19.6464 7.2592 19.6316 7.25213 19.6186 7.24234C19.6056 7.23255 19.5946 7.22023 19.5863 7.20609C19.5699 7.1776 19.565 7.14372 19.5728 7.11165C19.5806 7.07959 19.6003 7.05188 19.6279 7.0344C20.5352 6.48229 21.5406 6.11699 22.5868 5.95932H22.6024C23.2874 5.93589 23.9556 6.17759 24.4718 6.63553C24.4919 6.65388 24.5064 6.67773 24.5134 6.70421C24.6264 7.40206 24.536 8.11821 24.2534 8.76455C24.2504 8.77606 24.2451 8.78684 24.2378 8.79624C23.6532 9.58175 22.9431 10.2621 22.137 10.809C22.1202 10.8213 22.1004 10.8286 22.0798 10.8302Z" fill="black"/>
<path d="M2.09038 29.2769C2.10519 29.2833 2.12118 29.2864 2.13726 29.2859C2.15373 29.2864 2.17011 29.2834 2.18534 29.277C2.20058 29.2706 2.21431 29.2611 2.22565 29.2489C2.24526 29.2292 2.25772 29.2034 2.26103 29.1756C2.26433 29.1477 2.25828 29.1196 2.24386 29.0957C2.19383 28.9428 2.15387 28.7866 2.12425 28.6282C2.12058 28.6122 2.11383 28.5971 2.10438 28.5837C2.09492 28.5704 2.08295 28.5591 2.06916 28.5505C2.05538 28.5419 2.04005 28.5362 2.02406 28.5336C2.00808 28.5311 1.99177 28.5318 1.97606 28.5357C1.94459 28.5439 1.91748 28.5642 1.90049 28.5923C1.88349 28.6204 1.87795 28.6541 1.88504 28.6863C2.00465 29.2014 2.02025 29.2199 2.05145 29.2489C2.06229 29.261 2.07557 29.2706 2.09038 29.2769Z" fill="#1F1F1F"/>
<path d="M29.8982 26.9377C29.9093 26.9402 29.9209 26.9402 29.932 26.9377C29.9578 26.9383 29.9832 26.9307 30.0046 26.916C30.026 26.9014 30.0424 26.8803 30.0516 26.8558C30.0946 26.7399 30.1243 26.6194 30.14 26.4965C30.14 26.4437 30.1218 26.3697 29.9944 26.1796C29.957 26.1292 29.9231 26.0762 29.893 26.0211C29.9012 26.0053 29.9107 25.9902 29.9216 25.9762C29.9829 25.8701 30.0102 25.7473 29.9996 25.6249C30.0094 25.5068 29.974 25.3895 29.9008 25.2973C29.8175 25.1881 29.7541 25.0647 29.7136 24.9328C29.7086 24.9171 29.7006 24.9026 29.69 24.8902C29.6793 24.8778 29.6663 24.8677 29.6517 24.8605C29.6372 24.8534 29.6213 24.8493 29.6051 24.8485C29.5889 24.8478 29.5727 24.8504 29.5576 24.8562C29.5423 24.8618 29.5282 24.8704 29.5163 24.8816C29.5043 24.8927 29.4947 24.9062 29.4879 24.9212C29.4811 24.9362 29.4773 24.9525 29.4768 24.969C29.4763 24.9855 29.479 25.0019 29.4848 25.0173C29.5342 25.1812 29.6146 25.3337 29.7214 25.4664C29.7318 25.4769 29.7552 25.5166 29.7552 25.6249C29.7628 25.6954 29.7511 25.7667 29.7214 25.8309C29.6761 25.8842 29.6487 25.9508 29.6434 26.0211C29.6434 26.0765 29.6694 26.1479 29.7916 26.3248C29.8333 26.3778 29.8674 26.4365 29.893 26.4992C29.8904 26.5177 29.8748 26.5837 29.815 26.7818C29.806 26.8137 29.8098 26.8478 29.8253 26.877C29.8409 26.9061 29.867 26.9279 29.8982 26.9377Z" fill="#1F1F1F"/>
<path d="M2.23024 25.0576C2.25316 25.0808 2.28425 25.0939 2.31667 25.0939C2.33357 25.0954 2.35057 25.0933 2.36662 25.0877C2.38267 25.0821 2.39739 25.0732 2.40987 25.0615C2.42234 25.0498 2.43229 25.0357 2.43907 25.0199C2.44585 25.0041 2.44932 24.987 2.44926 24.9698C2.44926 24.7743 2.48826 24.7109 2.50647 24.6924C2.59487 24.5973 2.62866 24.5366 2.62866 24.4758C2.62431 24.4183 2.61024 24.362 2.58707 24.3094C2.57754 24.2863 2.56971 24.2624 2.56366 24.2381C2.59726 24.1679 2.64512 24.1058 2.70407 24.0558C2.81892 23.9647 2.89518 23.8324 2.91728 23.686C2.91773 23.6627 2.9114 23.6397 2.89908 23.62C2.84188 23.5196 2.80547 23.4589 2.78467 23.4192C2.81758 23.3806 2.8532 23.3444 2.89127 23.3109C2.91566 23.2857 2.94479 23.2656 2.97695 23.252C3.00911 23.2384 3.04365 23.2315 3.07848 23.2317C3.11089 23.2317 3.14198 23.2186 3.16489 23.1953C3.18781 23.1721 3.20068 23.1405 3.20068 23.1075C3.20068 23.0746 3.18781 23.043 3.16489 23.0198C3.14198 22.9965 3.11089 22.9834 3.07848 22.9834C3.0118 22.9804 2.94522 22.9915 2.883 23.0161C2.82078 23.0406 2.76427 23.0781 2.71707 23.126C2.64866 23.1851 2.58676 23.2515 2.53246 23.3242C2.51523 23.3458 2.50603 23.3729 2.50647 23.4008C2.50647 23.443 2.50647 23.443 2.65465 23.7071L2.65467 23.7072C2.61861 23.7712 2.573 23.8291 2.51946 23.8789C2.37126 24.0294 2.30365 24.1404 2.30365 24.2381C2.30878 24.2929 2.32284 24.3465 2.34526 24.3966C2.36866 24.4283 2.36865 24.46 2.36865 24.46L2.31667 24.5207C2.22178 24.6495 2.17813 24.8098 2.19445 24.9698C2.19445 25.0027 2.20732 25.0343 2.23024 25.0576Z" fill="#1F1F1F"/>
<path d="M28.6631 23.7204C28.7854 23.9343 28.827 23.9845 28.9076 23.9845C28.9242 23.9845 28.9406 23.9812 28.9559 23.9746C28.9712 23.9681 28.9851 23.9585 28.9967 23.9464C29.0084 23.9344 29.0175 23.9201 29.0236 23.9044C29.0297 23.8887 29.0327 23.872 29.0324 23.8551C29.0322 23.834 29.0269 23.8133 29.0169 23.7949C29.0069 23.7765 28.9926 23.7608 28.9752 23.7494C28.9387 23.6993 28.9048 23.6473 28.8738 23.5936C28.8657 23.5792 28.8549 23.5666 28.842 23.5566C28.8291 23.5465 28.8143 23.5392 28.7985 23.535C28.7828 23.5308 28.7664 23.5299 28.7503 23.5322C28.7342 23.5346 28.7187 23.5402 28.7048 23.5487C28.6772 23.5662 28.6574 23.5939 28.6496 23.6259C28.6419 23.658 28.6467 23.6919 28.6631 23.7204Z" fill="#1F1F1F"/>
<path d="M27.2877 17.4363C27.3104 17.4597 27.3412 17.473 27.3735 17.4733H27.3761C27.4082 17.472 27.4387 17.4588 27.4619 17.4363C27.4846 17.4127 27.4973 17.3809 27.4973 17.3479C27.4973 17.3148 27.4846 17.283 27.4619 17.2594C27.4411 17.2388 27.4185 17.2203 27.3943 17.2039C27.3761 17.1616 27.3397 17.0718 27.2669 16.879C27.2547 16.8479 27.231 16.823 27.2008 16.8096C27.1706 16.7962 27.1364 16.7956 27.1057 16.8077C27.0758 16.82 27.0518 16.8439 27.0392 16.8741C27.0265 16.9043 27.0261 16.9383 27.0381 16.9688C27.1759 17.3254 27.1967 17.3465 27.1967 17.3624C27.2131 17.3885 27.2379 17.4081 27.2669 17.4179L27.2877 17.4363Z" fill="#1F1F1F"/>
<path d="M26.8423 15.9085C26.8652 15.9322 26.8963 15.9459 26.9289 15.9466H26.9315C26.9637 15.9452 26.9941 15.9312 27.0164 15.9076C27.0387 15.884 27.0511 15.8525 27.0511 15.8198C27.0475 15.7106 27.0237 15.603 26.9809 15.5028C26.9523 15.4262 26.8873 15.273 26.7911 15.0379C26.7787 15.0074 26.7549 14.9832 26.7249 14.9706C26.6949 14.9579 26.6612 14.9579 26.6312 14.9705C26.6012 14.9832 26.5774 15.0074 26.5649 15.0378C26.5525 15.0683 26.5525 15.1025 26.5649 15.133C26.6584 15.359 26.72 15.5127 26.7497 15.5865L26.7521 15.5926C26.7828 15.6647 26.8013 15.7415 26.8067 15.8198C26.8067 15.8529 26.8195 15.8848 26.8423 15.9085Z" fill="#1F1F1F"/>
<path d="M2.79881 15.5771C2.81975 15.5922 2.84477 15.6004 2.87047 15.6005L2.92247 15.5926C2.93783 15.5878 2.95209 15.58 2.96438 15.5695C2.97668 15.559 2.98676 15.5461 2.99404 15.5315C3.00132 15.517 3.00565 15.5011 3.00675 15.4848C3.00786 15.4685 3.00571 15.4522 3.00047 15.4368C2.96745 15.3381 2.95077 15.2346 2.95108 15.1304C2.94599 15.0759 2.94599 15.0211 2.95108 14.9666C2.99682 14.7956 3.06227 14.6307 3.14609 14.4753C3.16126 14.4458 3.1643 14.4115 3.15455 14.3798C3.14479 14.3481 3.12305 14.3216 3.09408 14.3062C3.06512 14.2908 3.03131 14.2877 3.0001 14.2976C2.9689 14.3075 2.94285 14.3296 2.92767 14.359C2.83377 14.5334 2.76128 14.7188 2.71186 14.9111C2.69693 14.9832 2.68997 15.0567 2.69108 15.1304C2.69126 15.2615 2.71233 15.3917 2.75347 15.516C2.76204 15.5406 2.77787 15.5619 2.79881 15.5771Z" fill="#1F1F1F"/>
</g>
<defs>
<clipPath id="clip0_101:114">
<rect width="38" height="38" fill="white"/>
</clipPath>
</defs>
</svg>
